G04*
G04 #@! TF.GenerationSoftware,Altium Limited,Altium Designer,20.2.4 (192)*
G04*
G04 Layer_Color=65535*
%FSLAX25Y25*%
%MOIN*%
G70*
G04*
G04 #@! TF.SameCoordinates,121250D4-26CC-48BE-A980-2B83B7959B4A*
G04*
G04*
G04 #@! TF.FilePolarity,Positive*
G04*
G01*
G75*
%ADD10C,0.00984*%
%ADD11C,0.02362*%
%ADD12C,0.00787*%
%ADD13C,0.01000*%
G36*
X60250Y29378D02*
X60246Y29374D01*
X60234Y29362D01*
X60214Y29337D01*
X60189Y29308D01*
X60156Y29267D01*
X60115Y29222D01*
X60074Y29169D01*
X60025Y29107D01*
X59972Y29038D01*
X59914Y28960D01*
X59853Y28874D01*
X59791Y28784D01*
X59730Y28689D01*
X59664Y28583D01*
X59594Y28472D01*
X59529Y28357D01*
X59525Y28349D01*
X59512Y28328D01*
X59496Y28296D01*
X59471Y28246D01*
X59443Y28189D01*
X59406Y28119D01*
X59369Y28041D01*
X59328Y27955D01*
X59287Y27861D01*
X59242Y27759D01*
X59197Y27648D01*
X59152Y27537D01*
X59106Y27418D01*
X59061Y27295D01*
X58983Y27045D01*
Y27041D01*
X58979Y27025D01*
X58971Y26996D01*
X58963Y26963D01*
X58951Y26918D01*
X58938Y26865D01*
X58922Y26803D01*
X58910Y26738D01*
X58893Y26664D01*
X58881Y26582D01*
X58865Y26496D01*
X58852Y26406D01*
X58836Y26311D01*
X58824Y26213D01*
X58807Y26008D01*
X58332D01*
Y26012D01*
Y26028D01*
Y26053D01*
X58336Y26086D01*
X58340Y26131D01*
X58344Y26180D01*
X58348Y26242D01*
X58356Y26307D01*
X58364Y26385D01*
X58377Y26463D01*
X58389Y26553D01*
X58405Y26647D01*
X58426Y26750D01*
X58446Y26856D01*
X58475Y26967D01*
X58504Y27082D01*
X58508Y27090D01*
X58512Y27111D01*
X58520Y27143D01*
X58537Y27189D01*
X58553Y27246D01*
X58574Y27316D01*
X58598Y27390D01*
X58627Y27472D01*
X58660Y27562D01*
X58697Y27660D01*
X58733Y27763D01*
X58779Y27865D01*
X58873Y28082D01*
X58983Y28304D01*
X58988Y28312D01*
X59000Y28328D01*
X59016Y28361D01*
X59037Y28402D01*
X59070Y28451D01*
X59102Y28509D01*
X59143Y28574D01*
X59184Y28648D01*
X59234Y28722D01*
X59287Y28804D01*
X59402Y28968D01*
X59525Y29136D01*
X59590Y29218D01*
X59656Y29296D01*
X57803D01*
Y29743D01*
X60250D01*
Y29378D01*
D02*
G37*
G36*
X55954Y29788D02*
X55999D01*
X56052Y29784D01*
X56113Y29780D01*
X56236Y29768D01*
X56364Y29747D01*
X56487Y29722D01*
X56540Y29706D01*
X56593Y29690D01*
X56597D01*
X56605Y29686D01*
X56618Y29677D01*
X56638Y29669D01*
X56687Y29645D01*
X56745Y29608D01*
X56815Y29558D01*
X56884Y29493D01*
X56954Y29419D01*
X57016Y29329D01*
Y29325D01*
X57024Y29317D01*
X57032Y29304D01*
X57040Y29284D01*
X57052Y29259D01*
X57065Y29230D01*
X57081Y29198D01*
X57098Y29161D01*
X57126Y29075D01*
X57151Y28980D01*
X57167Y28874D01*
X57175Y28759D01*
Y28755D01*
Y28743D01*
Y28718D01*
X57171Y28693D01*
X57167Y28657D01*
X57163Y28615D01*
X57155Y28570D01*
X57143Y28521D01*
X57110Y28415D01*
X57089Y28357D01*
X57065Y28300D01*
X57036Y28242D01*
X56999Y28185D01*
X56958Y28132D01*
X56913Y28078D01*
X56909Y28074D01*
X56901Y28066D01*
X56884Y28054D01*
X56864Y28033D01*
X56835Y28013D01*
X56802Y27988D01*
X56761Y27959D01*
X56712Y27931D01*
X56659Y27902D01*
X56601Y27873D01*
X56536Y27845D01*
X56462Y27816D01*
X56384Y27791D01*
X56298Y27767D01*
X56204Y27746D01*
X56105Y27730D01*
X56109D01*
X56113Y27726D01*
X56138Y27714D01*
X56175Y27693D01*
X56220Y27668D01*
X56269Y27640D01*
X56318Y27611D01*
X56368Y27574D01*
X56409Y27541D01*
X56413Y27537D01*
X56417Y27533D01*
X56429Y27521D01*
X56446Y27504D01*
X56466Y27484D01*
X56491Y27459D01*
X56544Y27402D01*
X56605Y27328D01*
X56675Y27242D01*
X56749Y27143D01*
X56823Y27037D01*
X57479Y26008D01*
X56852D01*
X56351Y26795D01*
X56347Y26799D01*
X56343Y26812D01*
X56331Y26828D01*
X56314Y26852D01*
X56298Y26881D01*
X56273Y26914D01*
X56224Y26988D01*
X56167Y27074D01*
X56109Y27160D01*
X56048Y27242D01*
X55990Y27316D01*
Y27320D01*
X55982Y27324D01*
X55966Y27345D01*
X55941Y27377D01*
X55904Y27414D01*
X55867Y27455D01*
X55822Y27496D01*
X55777Y27537D01*
X55736Y27566D01*
X55732Y27570D01*
X55716Y27578D01*
X55695Y27590D01*
X55667Y27607D01*
X55630Y27623D01*
X55593Y27640D01*
X55552Y27656D01*
X55507Y27668D01*
X55503D01*
X55490Y27672D01*
X55470Y27676D01*
X55441Y27681D01*
X55400D01*
X55351Y27685D01*
X55294Y27689D01*
X54650D01*
Y26008D01*
X54150D01*
Y29792D01*
X55909D01*
X55954Y29788D01*
D02*
G37*
G36*
X25984Y42325D02*
X26021Y42321D01*
X26066Y42317D01*
X26116Y42309D01*
X26169Y42296D01*
X26288Y42268D01*
X26345Y42247D01*
X26411Y42222D01*
X26472Y42194D01*
X26530Y42157D01*
X26587Y42120D01*
X26645Y42075D01*
X26649Y42071D01*
X26657Y42063D01*
X26673Y42050D01*
X26690Y42030D01*
X26714Y42005D01*
X26739Y41972D01*
X26768Y41935D01*
X26796Y41895D01*
X26825Y41849D01*
X26854Y41796D01*
X26882Y41739D01*
X26911Y41677D01*
X26936Y41611D01*
X26956Y41542D01*
X26977Y41468D01*
X26989Y41386D01*
X26526Y41349D01*
Y41353D01*
X26522Y41361D01*
X26517Y41374D01*
X26513Y41394D01*
X26501Y41443D01*
X26480Y41501D01*
X26456Y41566D01*
X26423Y41632D01*
X26390Y41693D01*
X26349Y41747D01*
X26345Y41751D01*
X26341Y41755D01*
X26329Y41767D01*
X26316Y41780D01*
X26276Y41813D01*
X26218Y41849D01*
X26153Y41886D01*
X26070Y41915D01*
X25980Y41940D01*
X25931Y41944D01*
X25882Y41948D01*
X25845D01*
X25800Y41940D01*
X25747Y41931D01*
X25685Y41915D01*
X25620Y41895D01*
X25554Y41862D01*
X25488Y41821D01*
X25484D01*
X25480Y41813D01*
X25468Y41804D01*
X25451Y41792D01*
X25414Y41755D01*
X25365Y41702D01*
X25308Y41636D01*
X25251Y41554D01*
X25197Y41460D01*
X25144Y41353D01*
Y41349D01*
X25140Y41341D01*
X25132Y41320D01*
X25123Y41296D01*
X25115Y41267D01*
X25103Y41226D01*
X25091Y41181D01*
X25078Y41132D01*
X25066Y41074D01*
X25058Y41009D01*
X25045Y40935D01*
X25033Y40857D01*
X25025Y40775D01*
X25021Y40685D01*
X25017Y40587D01*
X25013Y40488D01*
X25013Y40488D01*
Y40484D01*
X25013Y40488D01*
X25021Y40496D01*
X25029Y40509D01*
X25041Y40525D01*
X25078Y40570D01*
X25123Y40628D01*
X25185Y40689D01*
X25255Y40751D01*
X25332Y40808D01*
X25419Y40861D01*
X25423D01*
X25431Y40865D01*
X25443Y40874D01*
X25460Y40882D01*
X25484Y40890D01*
X25509Y40902D01*
X25574Y40927D01*
X25652Y40947D01*
X25738Y40968D01*
X25833Y40984D01*
X25931Y40988D01*
X25952D01*
X25976Y40984D01*
X26009D01*
X26050Y40976D01*
X26095Y40972D01*
X26148Y40960D01*
X26206Y40947D01*
X26263Y40927D01*
X26329Y40906D01*
X26394Y40878D01*
X26460Y40845D01*
X26530Y40804D01*
X26595Y40759D01*
X26661Y40705D01*
X26722Y40644D01*
X26726Y40640D01*
X26735Y40628D01*
X26751Y40611D01*
X26776Y40582D01*
X26800Y40550D01*
X26825Y40509D01*
X26858Y40459D01*
X26886Y40406D01*
X26915Y40345D01*
X26948Y40279D01*
X26972Y40205D01*
X27001Y40127D01*
X27022Y40045D01*
X27038Y39955D01*
X27046Y39861D01*
X27050Y39762D01*
Y39758D01*
Y39746D01*
Y39730D01*
X27046Y39701D01*
Y39672D01*
X27042Y39635D01*
X27038Y39590D01*
X27030Y39545D01*
X27013Y39443D01*
X26985Y39332D01*
X26948Y39217D01*
X26895Y39098D01*
Y39094D01*
X26886Y39086D01*
X26878Y39070D01*
X26866Y39049D01*
X26849Y39024D01*
X26833Y38996D01*
X26784Y38926D01*
X26726Y38852D01*
X26653Y38774D01*
X26567Y38696D01*
X26472Y38631D01*
X26468D01*
X26460Y38623D01*
X26444Y38614D01*
X26423Y38606D01*
X26399Y38594D01*
X26370Y38582D01*
X26333Y38565D01*
X26296Y38553D01*
X26206Y38520D01*
X26099Y38495D01*
X25984Y38479D01*
X25861Y38471D01*
X25837D01*
X25804Y38475D01*
X25763Y38479D01*
X25714Y38483D01*
X25656Y38495D01*
X25595Y38508D01*
X25525Y38524D01*
X25451Y38549D01*
X25374Y38574D01*
X25296Y38610D01*
X25218Y38651D01*
X25136Y38701D01*
X25062Y38758D01*
X24984Y38824D01*
X24914Y38897D01*
X24910Y38901D01*
X24898Y38918D01*
X24882Y38943D01*
X24857Y38979D01*
X24828Y39024D01*
X24800Y39082D01*
X24767Y39151D01*
X24734Y39234D01*
X24697Y39324D01*
X24664Y39426D01*
X24635Y39541D01*
X24607Y39668D01*
X24582Y39808D01*
X24566Y39959D01*
X24554Y40123D01*
X24549Y40299D01*
Y40304D01*
Y40312D01*
Y40328D01*
Y40349D01*
Y40373D01*
X24554Y40406D01*
Y40439D01*
X24558Y40480D01*
X24562Y40570D01*
X24570Y40673D01*
X24582Y40788D01*
X24599Y40910D01*
X24623Y41042D01*
X24648Y41173D01*
X24681Y41304D01*
X24722Y41435D01*
X24767Y41562D01*
X24820Y41685D01*
X24886Y41796D01*
X24955Y41895D01*
X24959Y41899D01*
X24972Y41915D01*
X24992Y41935D01*
X25021Y41964D01*
X25054Y41997D01*
X25099Y42034D01*
X25148Y42071D01*
X25205Y42112D01*
X25271Y42153D01*
X25345Y42190D01*
X25423Y42226D01*
X25509Y42259D01*
X25599Y42288D01*
X25697Y42309D01*
X25800Y42325D01*
X25911Y42329D01*
X25956D01*
X25984Y42325D01*
D02*
G37*
G36*
X22754Y42313D02*
X22799D01*
X22852Y42309D01*
X22914Y42305D01*
X23036Y42292D01*
X23164Y42272D01*
X23287Y42247D01*
X23340Y42231D01*
X23393Y42214D01*
X23397D01*
X23405Y42210D01*
X23418Y42202D01*
X23438Y42194D01*
X23487Y42169D01*
X23545Y42132D01*
X23615Y42083D01*
X23684Y42017D01*
X23754Y41944D01*
X23816Y41853D01*
Y41849D01*
X23824Y41841D01*
X23832Y41829D01*
X23840Y41808D01*
X23852Y41784D01*
X23865Y41755D01*
X23881Y41722D01*
X23898Y41685D01*
X23926Y41599D01*
X23951Y41505D01*
X23967Y41398D01*
X23975Y41284D01*
Y41280D01*
Y41267D01*
Y41243D01*
X23971Y41218D01*
X23967Y41181D01*
X23963Y41140D01*
X23955Y41095D01*
X23943Y41046D01*
X23910Y40939D01*
X23889Y40882D01*
X23865Y40824D01*
X23836Y40767D01*
X23799Y40710D01*
X23758Y40656D01*
X23713Y40603D01*
X23709Y40599D01*
X23701Y40591D01*
X23684Y40578D01*
X23664Y40558D01*
X23635Y40537D01*
X23602Y40513D01*
X23561Y40484D01*
X23512Y40455D01*
X23459Y40427D01*
X23401Y40398D01*
X23336Y40369D01*
X23262Y40341D01*
X23184Y40316D01*
X23098Y40291D01*
X23004Y40271D01*
X22905Y40255D01*
X22909D01*
X22914Y40250D01*
X22938Y40238D01*
X22975Y40218D01*
X23020Y40193D01*
X23069Y40164D01*
X23119Y40136D01*
X23168Y40099D01*
X23209Y40066D01*
X23213Y40062D01*
X23217Y40058D01*
X23229Y40045D01*
X23246Y40029D01*
X23266Y40008D01*
X23291Y39984D01*
X23344Y39926D01*
X23405Y39853D01*
X23475Y39767D01*
X23549Y39668D01*
X23623Y39562D01*
X24279Y38533D01*
X23652D01*
X23151Y39320D01*
X23147Y39324D01*
X23143Y39336D01*
X23131Y39352D01*
X23114Y39377D01*
X23098Y39406D01*
X23073Y39439D01*
X23024Y39512D01*
X22967Y39599D01*
X22909Y39685D01*
X22848Y39767D01*
X22791Y39840D01*
Y39845D01*
X22782Y39849D01*
X22766Y39869D01*
X22741Y39902D01*
X22704Y39939D01*
X22668Y39980D01*
X22622Y40021D01*
X22577Y40062D01*
X22536Y40090D01*
X22532Y40095D01*
X22516Y40103D01*
X22495Y40115D01*
X22467Y40132D01*
X22430Y40148D01*
X22393Y40164D01*
X22352Y40181D01*
X22307Y40193D01*
X22303D01*
X22290Y40197D01*
X22270Y40201D01*
X22241Y40205D01*
X22200D01*
X22151Y40209D01*
X22094Y40214D01*
X21450D01*
Y38533D01*
X20950D01*
Y42317D01*
X22708D01*
X22754Y42313D01*
D02*
G37*
G36*
X-55176Y-36046D02*
X-55130Y-36051D01*
X-55085Y-36055D01*
X-55032Y-36059D01*
X-54917Y-36075D01*
X-54790Y-36100D01*
X-54663Y-36136D01*
X-54540Y-36182D01*
X-54536D01*
X-54528Y-36190D01*
X-54507Y-36194D01*
X-54487Y-36206D01*
X-54462Y-36223D01*
X-54429Y-36239D01*
X-54360Y-36280D01*
X-54277Y-36338D01*
X-54196Y-36407D01*
X-54118Y-36485D01*
X-54048Y-36579D01*
X-54044Y-36583D01*
X-54040Y-36592D01*
X-54032Y-36604D01*
X-54019Y-36625D01*
X-54007Y-36649D01*
X-53991Y-36678D01*
X-53978Y-36715D01*
X-53958Y-36751D01*
X-53925Y-36838D01*
X-53896Y-36940D01*
X-53872Y-37051D01*
X-53859Y-37174D01*
X-54339Y-37211D01*
Y-37207D01*
X-54343Y-37194D01*
Y-37178D01*
X-54347Y-37153D01*
X-54355Y-37121D01*
X-54364Y-37088D01*
X-54388Y-37010D01*
X-54421Y-36924D01*
X-54470Y-36834D01*
X-54528Y-36747D01*
X-54564Y-36711D01*
X-54606Y-36674D01*
X-54610Y-36669D01*
X-54614Y-36665D01*
X-54630Y-36657D01*
X-54647Y-36645D01*
X-54671Y-36633D01*
X-54700Y-36616D01*
X-54733Y-36600D01*
X-54770Y-36579D01*
X-54815Y-36563D01*
X-54864Y-36547D01*
X-54917Y-36530D01*
X-54975Y-36518D01*
X-55040Y-36505D01*
X-55110Y-36497D01*
X-55184Y-36489D01*
X-55303D01*
X-55335Y-36493D01*
X-55372D01*
X-55413Y-36497D01*
X-55462Y-36501D01*
X-55512Y-36510D01*
X-55622Y-36530D01*
X-55729Y-36559D01*
X-55831Y-36600D01*
X-55881Y-36629D01*
X-55922Y-36657D01*
X-55926D01*
X-55930Y-36665D01*
X-55954Y-36686D01*
X-55987Y-36723D01*
X-56024Y-36772D01*
X-56061Y-36830D01*
X-56094Y-36899D01*
X-56118Y-36973D01*
X-56123Y-37014D01*
X-56127Y-37059D01*
Y-37063D01*
Y-37067D01*
X-56123Y-37092D01*
X-56118Y-37129D01*
X-56110Y-37174D01*
X-56090Y-37227D01*
X-56065Y-37285D01*
X-56032Y-37338D01*
X-55983Y-37391D01*
X-55975Y-37395D01*
X-55967Y-37403D01*
X-55950Y-37416D01*
X-55930Y-37428D01*
X-55905Y-37440D01*
X-55872Y-37457D01*
X-55836Y-37477D01*
X-55790Y-37498D01*
X-55737Y-37518D01*
X-55676Y-37539D01*
X-55606Y-37563D01*
X-55524Y-37588D01*
X-55438Y-37613D01*
X-55339Y-37641D01*
X-55229Y-37666D01*
X-55221D01*
X-55200Y-37670D01*
X-55171Y-37678D01*
X-55130Y-37690D01*
X-55081Y-37699D01*
X-55024Y-37715D01*
X-54962Y-37727D01*
X-54897Y-37748D01*
X-54757Y-37785D01*
X-54618Y-37822D01*
X-54552Y-37842D01*
X-54495Y-37863D01*
X-54438Y-37883D01*
X-54392Y-37904D01*
X-54388D01*
X-54376Y-37912D01*
X-54360Y-37920D01*
X-54339Y-37932D01*
X-54310Y-37945D01*
X-54277Y-37965D01*
X-54208Y-38010D01*
X-54126Y-38063D01*
X-54048Y-38129D01*
X-53970Y-38207D01*
X-53937Y-38248D01*
X-53904Y-38289D01*
Y-38293D01*
X-53896Y-38301D01*
X-53888Y-38314D01*
X-53880Y-38330D01*
X-53868Y-38350D01*
X-53855Y-38379D01*
X-53822Y-38445D01*
X-53794Y-38523D01*
X-53769Y-38613D01*
X-53753Y-38715D01*
X-53745Y-38826D01*
Y-38830D01*
Y-38838D01*
Y-38855D01*
X-53749Y-38875D01*
Y-38904D01*
X-53753Y-38933D01*
X-53765Y-39011D01*
X-53786Y-39097D01*
X-53818Y-39191D01*
X-53864Y-39289D01*
X-53888Y-39343D01*
X-53921Y-39392D01*
Y-39396D01*
X-53929Y-39404D01*
X-53937Y-39417D01*
X-53954Y-39437D01*
X-53991Y-39482D01*
X-54048Y-39544D01*
X-54118Y-39609D01*
X-54204Y-39679D01*
X-54302Y-39744D01*
X-54417Y-39806D01*
X-54421D01*
X-54433Y-39814D01*
X-54450Y-39818D01*
X-54474Y-39831D01*
X-54503Y-39839D01*
X-54540Y-39851D01*
X-54581Y-39867D01*
X-54630Y-39880D01*
X-54679Y-39892D01*
X-54737Y-39909D01*
X-54860Y-39929D01*
X-54995Y-39945D01*
X-55143Y-39954D01*
X-55192D01*
X-55229Y-39950D01*
X-55274D01*
X-55323Y-39945D01*
X-55380Y-39941D01*
X-55446Y-39933D01*
X-55581Y-39917D01*
X-55725Y-39892D01*
X-55868Y-39855D01*
X-56008Y-39806D01*
X-56012D01*
X-56024Y-39798D01*
X-56041Y-39790D01*
X-56065Y-39777D01*
X-56094Y-39761D01*
X-56127Y-39744D01*
X-56204Y-39695D01*
X-56291Y-39634D01*
X-56381Y-39556D01*
X-56471Y-39466D01*
X-56549Y-39359D01*
X-56553Y-39355D01*
X-56557Y-39347D01*
X-56565Y-39331D01*
X-56578Y-39306D01*
X-56594Y-39277D01*
X-56611Y-39244D01*
X-56631Y-39203D01*
X-56647Y-39158D01*
X-56668Y-39113D01*
X-56684Y-39060D01*
X-56717Y-38941D01*
X-56742Y-38814D01*
X-56750Y-38744D01*
X-56754Y-38675D01*
X-56282Y-38633D01*
Y-38638D01*
Y-38646D01*
X-56278Y-38662D01*
X-56274Y-38683D01*
X-56270Y-38707D01*
X-56266Y-38732D01*
X-56250Y-38802D01*
X-56229Y-38875D01*
X-56204Y-38953D01*
X-56172Y-39031D01*
X-56131Y-39105D01*
X-56127Y-39113D01*
X-56106Y-39134D01*
X-56077Y-39166D01*
X-56037Y-39208D01*
X-55983Y-39257D01*
X-55918Y-39302D01*
X-55840Y-39351D01*
X-55749Y-39396D01*
X-55745D01*
X-55737Y-39400D01*
X-55725Y-39404D01*
X-55704Y-39413D01*
X-55680Y-39421D01*
X-55651Y-39433D01*
X-55618Y-39441D01*
X-55581Y-39449D01*
X-55495Y-39470D01*
X-55393Y-39490D01*
X-55286Y-39503D01*
X-55167Y-39507D01*
X-55118D01*
X-55093Y-39503D01*
X-55065D01*
X-54999Y-39494D01*
X-54921Y-39486D01*
X-54835Y-39474D01*
X-54749Y-39453D01*
X-54667Y-39425D01*
X-54663D01*
X-54659Y-39421D01*
X-54647Y-39417D01*
X-54630Y-39408D01*
X-54593Y-39388D01*
X-54544Y-39363D01*
X-54491Y-39331D01*
X-54433Y-39289D01*
X-54384Y-39244D01*
X-54339Y-39191D01*
X-54335Y-39183D01*
X-54323Y-39166D01*
X-54302Y-39134D01*
X-54282Y-39093D01*
X-54265Y-39044D01*
X-54245Y-38990D01*
X-54232Y-38929D01*
X-54228Y-38867D01*
Y-38863D01*
Y-38859D01*
Y-38838D01*
X-54232Y-38802D01*
X-54241Y-38761D01*
X-54253Y-38711D01*
X-54273Y-38658D01*
X-54298Y-38605D01*
X-54335Y-38555D01*
X-54339Y-38551D01*
X-54355Y-38535D01*
X-54380Y-38510D01*
X-54417Y-38478D01*
X-54462Y-38445D01*
X-54524Y-38408D01*
X-54593Y-38371D01*
X-54675Y-38334D01*
X-54684Y-38330D01*
X-54692Y-38326D01*
X-54708Y-38322D01*
X-54725Y-38318D01*
X-54749Y-38310D01*
X-54782Y-38297D01*
X-54815Y-38289D01*
X-54860Y-38277D01*
X-54905Y-38260D01*
X-54962Y-38248D01*
X-55024Y-38232D01*
X-55093Y-38211D01*
X-55167Y-38195D01*
X-55253Y-38170D01*
X-55348Y-38150D01*
X-55352D01*
X-55368Y-38146D01*
X-55397Y-38137D01*
X-55430Y-38129D01*
X-55475Y-38117D01*
X-55524Y-38105D01*
X-55573Y-38088D01*
X-55631Y-38072D01*
X-55753Y-38035D01*
X-55872Y-37994D01*
X-55930Y-37973D01*
X-55983Y-37953D01*
X-56032Y-37932D01*
X-56073Y-37912D01*
X-56077D01*
X-56086Y-37904D01*
X-56098Y-37895D01*
X-56118Y-37887D01*
X-56168Y-37859D01*
X-56225Y-37817D01*
X-56295Y-37764D01*
X-56360Y-37707D01*
X-56426Y-37637D01*
X-56479Y-37563D01*
Y-37559D01*
X-56483Y-37555D01*
X-56492Y-37543D01*
X-56500Y-37526D01*
X-56520Y-37481D01*
X-56545Y-37424D01*
X-56569Y-37354D01*
X-56590Y-37272D01*
X-56606Y-37182D01*
X-56611Y-37088D01*
Y-37084D01*
Y-37075D01*
Y-37059D01*
X-56606Y-37038D01*
Y-37014D01*
X-56602Y-36985D01*
X-56590Y-36911D01*
X-56569Y-36830D01*
X-56545Y-36743D01*
X-56504Y-36649D01*
X-56450Y-36555D01*
Y-36551D01*
X-56442Y-36542D01*
X-56434Y-36530D01*
X-56422Y-36514D01*
X-56381Y-36469D01*
X-56327Y-36411D01*
X-56262Y-36350D01*
X-56180Y-36288D01*
X-56086Y-36227D01*
X-55975Y-36173D01*
X-55971D01*
X-55963Y-36169D01*
X-55942Y-36161D01*
X-55922Y-36153D01*
X-55893Y-36145D01*
X-55856Y-36132D01*
X-55815Y-36120D01*
X-55770Y-36108D01*
X-55721Y-36095D01*
X-55667Y-36083D01*
X-55553Y-36063D01*
X-55422Y-36046D01*
X-55282Y-36042D01*
X-55212D01*
X-55176Y-36046D01*
D02*
G37*
G36*
X-48460Y-36100D02*
X-48431Y-36104D01*
X-48353Y-36112D01*
X-48267Y-36128D01*
X-48169Y-36153D01*
X-48070Y-36186D01*
X-47972Y-36231D01*
X-47968D01*
X-47959Y-36235D01*
X-47947Y-36243D01*
X-47927Y-36255D01*
X-47881Y-36284D01*
X-47824Y-36325D01*
X-47759Y-36378D01*
X-47693Y-36440D01*
X-47627Y-36510D01*
X-47570Y-36592D01*
Y-36596D01*
X-47566Y-36600D01*
X-47558Y-36616D01*
X-47550Y-36633D01*
X-47537Y-36653D01*
X-47525Y-36678D01*
X-47500Y-36739D01*
X-47476Y-36813D01*
X-47451Y-36895D01*
X-47435Y-36985D01*
X-47431Y-37080D01*
Y-37084D01*
Y-37092D01*
Y-37104D01*
Y-37121D01*
X-47439Y-37170D01*
X-47447Y-37227D01*
X-47463Y-37297D01*
X-47488Y-37371D01*
X-47521Y-37449D01*
X-47566Y-37526D01*
Y-37530D01*
X-47570Y-37535D01*
X-47590Y-37559D01*
X-47619Y-37596D01*
X-47664Y-37641D01*
X-47717Y-37694D01*
X-47787Y-37748D01*
X-47865Y-37797D01*
X-47955Y-37846D01*
X-47951D01*
X-47939Y-37850D01*
X-47923Y-37854D01*
X-47898Y-37863D01*
X-47873Y-37871D01*
X-47841Y-37883D01*
X-47763Y-37916D01*
X-47681Y-37961D01*
X-47594Y-38014D01*
X-47508Y-38084D01*
X-47435Y-38170D01*
X-47431Y-38174D01*
X-47426Y-38183D01*
X-47418Y-38195D01*
X-47406Y-38215D01*
X-47390Y-38236D01*
X-47373Y-38264D01*
X-47357Y-38297D01*
X-47340Y-38338D01*
X-47324Y-38379D01*
X-47308Y-38424D01*
X-47275Y-38527D01*
X-47254Y-38646D01*
X-47246Y-38711D01*
Y-38777D01*
Y-38781D01*
Y-38797D01*
X-47250Y-38826D01*
Y-38859D01*
X-47258Y-38904D01*
X-47267Y-38953D01*
X-47275Y-39007D01*
X-47291Y-39068D01*
X-47312Y-39134D01*
X-47336Y-39199D01*
X-47365Y-39269D01*
X-47402Y-39339D01*
X-47443Y-39413D01*
X-47492Y-39482D01*
X-47545Y-39552D01*
X-47611Y-39617D01*
X-47615Y-39622D01*
X-47627Y-39634D01*
X-47648Y-39650D01*
X-47677Y-39671D01*
X-47709Y-39695D01*
X-47754Y-39724D01*
X-47804Y-39757D01*
X-47861Y-39786D01*
X-47923Y-39818D01*
X-47992Y-39851D01*
X-48066Y-39880D01*
X-48148Y-39904D01*
X-48234Y-39925D01*
X-48324Y-39941D01*
X-48419Y-39954D01*
X-48521Y-39958D01*
X-48542D01*
X-48570Y-39954D01*
X-48603D01*
X-48648Y-39950D01*
X-48697Y-39941D01*
X-48751Y-39933D01*
X-48812Y-39921D01*
X-48878Y-39904D01*
X-48943Y-39884D01*
X-49013Y-39863D01*
X-49083Y-39835D01*
X-49153Y-39798D01*
X-49218Y-39761D01*
X-49288Y-39716D01*
X-49349Y-39663D01*
X-49353Y-39658D01*
X-49362Y-39650D01*
X-49378Y-39634D01*
X-49403Y-39609D01*
X-49427Y-39581D01*
X-49456Y-39544D01*
X-49485Y-39503D01*
X-49518Y-39453D01*
X-49550Y-39404D01*
X-49583Y-39343D01*
X-49616Y-39281D01*
X-49645Y-39211D01*
X-49669Y-39138D01*
X-49694Y-39060D01*
X-49710Y-38978D01*
X-49722Y-38892D01*
X-49259Y-38830D01*
Y-38834D01*
X-49255Y-38847D01*
X-49251Y-38867D01*
X-49243Y-38896D01*
X-49235Y-38929D01*
X-49226Y-38966D01*
X-49198Y-39052D01*
X-49161Y-39146D01*
X-49116Y-39240D01*
X-49058Y-39326D01*
X-49025Y-39363D01*
X-48993Y-39400D01*
X-48989D01*
X-48984Y-39408D01*
X-48972Y-39417D01*
X-48960Y-39429D01*
X-48919Y-39453D01*
X-48862Y-39486D01*
X-48792Y-39519D01*
X-48714Y-39544D01*
X-48619Y-39564D01*
X-48521Y-39572D01*
X-48488D01*
X-48464Y-39568D01*
X-48439Y-39564D01*
X-48402Y-39560D01*
X-48328Y-39544D01*
X-48238Y-39519D01*
X-48144Y-39478D01*
X-48099Y-39449D01*
X-48054Y-39421D01*
X-48009Y-39388D01*
X-47964Y-39347D01*
X-47959Y-39343D01*
X-47955Y-39335D01*
X-47943Y-39322D01*
X-47927Y-39306D01*
X-47910Y-39285D01*
X-47894Y-39257D01*
X-47873Y-39228D01*
X-47849Y-39191D01*
X-47808Y-39109D01*
X-47775Y-39015D01*
X-47746Y-38904D01*
X-47742Y-38847D01*
X-47738Y-38785D01*
Y-38781D01*
Y-38773D01*
Y-38752D01*
X-47742Y-38732D01*
X-47746Y-38703D01*
X-47750Y-38675D01*
X-47763Y-38601D01*
X-47791Y-38515D01*
X-47828Y-38428D01*
X-47853Y-38383D01*
X-47881Y-38342D01*
X-47914Y-38301D01*
X-47951Y-38260D01*
X-47955Y-38256D01*
X-47959Y-38252D01*
X-47972Y-38240D01*
X-47988Y-38228D01*
X-48009Y-38211D01*
X-48033Y-38195D01*
X-48095Y-38154D01*
X-48173Y-38117D01*
X-48263Y-38084D01*
X-48365Y-38059D01*
X-48423Y-38055D01*
X-48480Y-38051D01*
X-48505D01*
X-48533Y-38055D01*
X-48570D01*
X-48619Y-38063D01*
X-48673Y-38072D01*
X-48739Y-38084D01*
X-48808Y-38100D01*
X-48759Y-37694D01*
X-48751D01*
X-48730Y-37699D01*
X-48706Y-37703D01*
X-48652D01*
X-48632Y-37699D01*
X-48603D01*
X-48575Y-37694D01*
X-48505Y-37682D01*
X-48423Y-37666D01*
X-48333Y-37637D01*
X-48238Y-37600D01*
X-48148Y-37547D01*
X-48144D01*
X-48136Y-37539D01*
X-48128Y-37530D01*
X-48111Y-37518D01*
X-48070Y-37481D01*
X-48025Y-37428D01*
X-47984Y-37363D01*
X-47943Y-37280D01*
X-47927Y-37235D01*
X-47918Y-37182D01*
X-47910Y-37129D01*
X-47906Y-37071D01*
Y-37067D01*
Y-37059D01*
Y-37047D01*
X-47910Y-37026D01*
X-47914Y-36981D01*
X-47927Y-36920D01*
X-47947Y-36854D01*
X-47980Y-36784D01*
X-48025Y-36711D01*
X-48050Y-36678D01*
X-48083Y-36645D01*
X-48091Y-36637D01*
X-48115Y-36620D01*
X-48152Y-36592D01*
X-48201Y-36559D01*
X-48267Y-36530D01*
X-48345Y-36501D01*
X-48431Y-36485D01*
X-48529Y-36477D01*
X-48554D01*
X-48575Y-36481D01*
X-48599D01*
X-48624Y-36485D01*
X-48689Y-36497D01*
X-48759Y-36518D01*
X-48837Y-36551D01*
X-48911Y-36592D01*
X-48984Y-36649D01*
X-48993Y-36657D01*
X-49013Y-36682D01*
X-49046Y-36719D01*
X-49079Y-36776D01*
X-49120Y-36846D01*
X-49157Y-36936D01*
X-49189Y-37038D01*
X-49214Y-37157D01*
X-49677Y-37075D01*
Y-37071D01*
X-49673Y-37055D01*
X-49669Y-37030D01*
X-49661Y-36998D01*
X-49649Y-36961D01*
X-49636Y-36916D01*
X-49620Y-36866D01*
X-49599Y-36813D01*
X-49546Y-36694D01*
X-49518Y-36637D01*
X-49481Y-36575D01*
X-49440Y-36518D01*
X-49395Y-36460D01*
X-49345Y-36403D01*
X-49292Y-36354D01*
X-49288Y-36350D01*
X-49280Y-36342D01*
X-49259Y-36329D01*
X-49239Y-36313D01*
X-49206Y-36292D01*
X-49173Y-36272D01*
X-49132Y-36247D01*
X-49083Y-36223D01*
X-49034Y-36202D01*
X-48976Y-36178D01*
X-48915Y-36157D01*
X-48849Y-36136D01*
X-48775Y-36120D01*
X-48702Y-36108D01*
X-48624Y-36100D01*
X-48542Y-36095D01*
X-48488D01*
X-48460Y-36100D01*
D02*
G37*
G36*
X-51559Y-36112D02*
X-51514D01*
X-51469Y-36116D01*
X-51416Y-36124D01*
X-51309Y-36136D01*
X-51190Y-36157D01*
X-51080Y-36186D01*
X-50973Y-36227D01*
X-50969D01*
X-50961Y-36231D01*
X-50948Y-36239D01*
X-50928Y-36247D01*
X-50883Y-36276D01*
X-50821Y-36313D01*
X-50756Y-36362D01*
X-50690Y-36424D01*
X-50625Y-36497D01*
X-50563Y-36579D01*
Y-36583D01*
X-50555Y-36592D01*
X-50551Y-36604D01*
X-50538Y-36620D01*
X-50526Y-36641D01*
X-50514Y-36669D01*
X-50485Y-36731D01*
X-50460Y-36805D01*
X-50436Y-36891D01*
X-50419Y-36981D01*
X-50411Y-37080D01*
Y-37084D01*
Y-37092D01*
Y-37104D01*
Y-37121D01*
X-50419Y-37166D01*
X-50428Y-37227D01*
X-50444Y-37297D01*
X-50469Y-37375D01*
X-50501Y-37453D01*
X-50547Y-37535D01*
Y-37539D01*
X-50551Y-37543D01*
X-50559Y-37555D01*
X-50571Y-37572D01*
X-50600Y-37608D01*
X-50645Y-37658D01*
X-50698Y-37711D01*
X-50768Y-37768D01*
X-50846Y-37826D01*
X-50940Y-37879D01*
X-50936D01*
X-50924Y-37883D01*
X-50907Y-37891D01*
X-50883Y-37900D01*
X-50854Y-37912D01*
X-50821Y-37924D01*
X-50747Y-37961D01*
X-50661Y-38006D01*
X-50575Y-38068D01*
X-50489Y-38137D01*
X-50415Y-38223D01*
X-50411Y-38228D01*
X-50407Y-38236D01*
X-50399Y-38248D01*
X-50387Y-38264D01*
X-50370Y-38289D01*
X-50354Y-38318D01*
X-50337Y-38350D01*
X-50321Y-38388D01*
X-50288Y-38469D01*
X-50256Y-38568D01*
X-50235Y-38679D01*
X-50227Y-38736D01*
Y-38797D01*
Y-38802D01*
Y-38810D01*
Y-38822D01*
Y-38842D01*
X-50231Y-38867D01*
Y-38892D01*
X-50239Y-38957D01*
X-50256Y-39035D01*
X-50276Y-39117D01*
X-50305Y-39208D01*
X-50342Y-39294D01*
Y-39298D01*
X-50346Y-39302D01*
X-50354Y-39314D01*
X-50362Y-39331D01*
X-50387Y-39371D01*
X-50419Y-39421D01*
X-50456Y-39478D01*
X-50506Y-39535D01*
X-50559Y-39593D01*
X-50620Y-39646D01*
X-50629Y-39650D01*
X-50649Y-39667D01*
X-50686Y-39687D01*
X-50735Y-39716D01*
X-50792Y-39744D01*
X-50862Y-39777D01*
X-50944Y-39806D01*
X-51034Y-39831D01*
X-51038D01*
X-51047Y-39835D01*
X-51059D01*
X-51080Y-39839D01*
X-51104Y-39843D01*
X-51133Y-39851D01*
X-51166Y-39855D01*
X-51202Y-39859D01*
X-51244Y-39867D01*
X-51293Y-39872D01*
X-51395Y-39884D01*
X-51514Y-39888D01*
X-51645Y-39892D01*
X-53084D01*
Y-36108D01*
X-51596D01*
X-51559Y-36112D01*
D02*
G37*
G36*
X-3857Y-35948D02*
X-3812Y-35952D01*
X-3767Y-35957D01*
X-3714Y-35961D01*
X-3599Y-35977D01*
X-3472Y-36002D01*
X-3345Y-36039D01*
X-3221Y-36084D01*
X-3217D01*
X-3209Y-36092D01*
X-3189Y-36096D01*
X-3168Y-36108D01*
X-3144Y-36125D01*
X-3111Y-36141D01*
X-3041Y-36182D01*
X-2959Y-36239D01*
X-2877Y-36309D01*
X-2799Y-36387D01*
X-2730Y-36481D01*
X-2725Y-36485D01*
X-2721Y-36494D01*
X-2713Y-36506D01*
X-2701Y-36527D01*
X-2688Y-36551D01*
X-2672Y-36580D01*
X-2660Y-36617D01*
X-2639Y-36654D01*
X-2606Y-36740D01*
X-2578Y-36842D01*
X-2553Y-36953D01*
X-2541Y-37076D01*
X-3021Y-37113D01*
Y-37109D01*
X-3025Y-37096D01*
Y-37080D01*
X-3029Y-37055D01*
X-3037Y-37023D01*
X-3045Y-36990D01*
X-3070Y-36912D01*
X-3103Y-36826D01*
X-3152Y-36736D01*
X-3209Y-36650D01*
X-3246Y-36613D01*
X-3287Y-36576D01*
X-3291Y-36572D01*
X-3295Y-36568D01*
X-3312Y-36559D01*
X-3328Y-36547D01*
X-3353Y-36535D01*
X-3381Y-36518D01*
X-3414Y-36502D01*
X-3451Y-36481D01*
X-3496Y-36465D01*
X-3545Y-36449D01*
X-3599Y-36432D01*
X-3656Y-36420D01*
X-3722Y-36408D01*
X-3791Y-36399D01*
X-3865Y-36391D01*
X-3984D01*
X-4017Y-36395D01*
X-4054D01*
X-4095Y-36399D01*
X-4144Y-36404D01*
X-4193Y-36412D01*
X-4304Y-36432D01*
X-4411Y-36461D01*
X-4513Y-36502D01*
X-4562Y-36531D01*
X-4603Y-36559D01*
X-4607D01*
X-4611Y-36568D01*
X-4636Y-36588D01*
X-4669Y-36625D01*
X-4706Y-36674D01*
X-4743Y-36731D01*
X-4775Y-36801D01*
X-4800Y-36875D01*
X-4804Y-36916D01*
X-4808Y-36961D01*
Y-36965D01*
Y-36969D01*
X-4804Y-36994D01*
X-4800Y-37031D01*
X-4792Y-37076D01*
X-4771Y-37129D01*
X-4747Y-37187D01*
X-4714Y-37240D01*
X-4665Y-37293D01*
X-4656Y-37297D01*
X-4648Y-37306D01*
X-4632Y-37318D01*
X-4611Y-37330D01*
X-4587Y-37342D01*
X-4554Y-37359D01*
X-4517Y-37379D01*
X-4472Y-37400D01*
X-4419Y-37420D01*
X-4357Y-37441D01*
X-4287Y-37465D01*
X-4205Y-37490D01*
X-4119Y-37515D01*
X-4021Y-37543D01*
X-3910Y-37568D01*
X-3902D01*
X-3882Y-37572D01*
X-3853Y-37580D01*
X-3812Y-37593D01*
X-3763Y-37601D01*
X-3705Y-37617D01*
X-3644Y-37629D01*
X-3578Y-37650D01*
X-3439Y-37687D01*
X-3299Y-37724D01*
X-3234Y-37744D01*
X-3176Y-37765D01*
X-3119Y-37785D01*
X-3074Y-37806D01*
X-3070D01*
X-3057Y-37814D01*
X-3041Y-37822D01*
X-3021Y-37834D01*
X-2992Y-37847D01*
X-2959Y-37867D01*
X-2889Y-37912D01*
X-2807Y-37966D01*
X-2730Y-38031D01*
X-2652Y-38109D01*
X-2619Y-38150D01*
X-2586Y-38191D01*
Y-38195D01*
X-2578Y-38203D01*
X-2570Y-38216D01*
X-2561Y-38232D01*
X-2549Y-38253D01*
X-2537Y-38281D01*
X-2504Y-38347D01*
X-2475Y-38425D01*
X-2451Y-38515D01*
X-2434Y-38618D01*
X-2426Y-38728D01*
Y-38732D01*
Y-38741D01*
Y-38757D01*
X-2430Y-38777D01*
Y-38806D01*
X-2434Y-38835D01*
X-2447Y-38913D01*
X-2467Y-38999D01*
X-2500Y-39093D01*
X-2545Y-39191D01*
X-2570Y-39245D01*
X-2602Y-39294D01*
Y-39298D01*
X-2611Y-39306D01*
X-2619Y-39319D01*
X-2635Y-39339D01*
X-2672Y-39384D01*
X-2730Y-39446D01*
X-2799Y-39511D01*
X-2885Y-39581D01*
X-2984Y-39647D01*
X-3098Y-39708D01*
X-3103D01*
X-3115Y-39716D01*
X-3131Y-39720D01*
X-3156Y-39733D01*
X-3185Y-39741D01*
X-3221Y-39753D01*
X-3263Y-39770D01*
X-3312Y-39782D01*
X-3361Y-39794D01*
X-3418Y-39811D01*
X-3541Y-39831D01*
X-3677Y-39847D01*
X-3824Y-39856D01*
X-3873D01*
X-3910Y-39852D01*
X-3955D01*
X-4005Y-39847D01*
X-4062Y-39843D01*
X-4128Y-39835D01*
X-4263Y-39819D01*
X-4406Y-39794D01*
X-4550Y-39757D01*
X-4689Y-39708D01*
X-4693D01*
X-4706Y-39700D01*
X-4722Y-39692D01*
X-4747Y-39679D01*
X-4775Y-39663D01*
X-4808Y-39647D01*
X-4886Y-39597D01*
X-4972Y-39536D01*
X-5062Y-39458D01*
X-5153Y-39368D01*
X-5231Y-39261D01*
X-5235Y-39257D01*
X-5239Y-39249D01*
X-5247Y-39233D01*
X-5259Y-39208D01*
X-5276Y-39179D01*
X-5292Y-39146D01*
X-5313Y-39105D01*
X-5329Y-39060D01*
X-5349Y-39015D01*
X-5366Y-38962D01*
X-5399Y-38843D01*
X-5423Y-38716D01*
X-5431Y-38646D01*
X-5435Y-38576D01*
X-4964Y-38535D01*
Y-38540D01*
Y-38548D01*
X-4960Y-38564D01*
X-4956Y-38585D01*
X-4952Y-38609D01*
X-4948Y-38634D01*
X-4931Y-38704D01*
X-4911Y-38777D01*
X-4886Y-38855D01*
X-4853Y-38933D01*
X-4812Y-39007D01*
X-4808Y-39015D01*
X-4788Y-39036D01*
X-4759Y-39068D01*
X-4718Y-39110D01*
X-4665Y-39159D01*
X-4599Y-39204D01*
X-4521Y-39253D01*
X-4431Y-39298D01*
X-4427D01*
X-4419Y-39302D01*
X-4406Y-39306D01*
X-4386Y-39314D01*
X-4361Y-39323D01*
X-4333Y-39335D01*
X-4300Y-39343D01*
X-4263Y-39351D01*
X-4177Y-39372D01*
X-4074Y-39392D01*
X-3968Y-39405D01*
X-3849Y-39409D01*
X-3800D01*
X-3775Y-39405D01*
X-3746D01*
X-3681Y-39397D01*
X-3603Y-39388D01*
X-3517Y-39376D01*
X-3431Y-39355D01*
X-3349Y-39327D01*
X-3345D01*
X-3340Y-39323D01*
X-3328Y-39319D01*
X-3312Y-39310D01*
X-3275Y-39290D01*
X-3226Y-39265D01*
X-3172Y-39233D01*
X-3115Y-39191D01*
X-3066Y-39146D01*
X-3021Y-39093D01*
X-3016Y-39085D01*
X-3004Y-39068D01*
X-2984Y-39036D01*
X-2963Y-38995D01*
X-2947Y-38945D01*
X-2926Y-38892D01*
X-2914Y-38831D01*
X-2910Y-38769D01*
Y-38765D01*
Y-38761D01*
Y-38741D01*
X-2914Y-38704D01*
X-2922Y-38663D01*
X-2935Y-38613D01*
X-2955Y-38560D01*
X-2980Y-38507D01*
X-3016Y-38458D01*
X-3021Y-38454D01*
X-3037Y-38437D01*
X-3062Y-38412D01*
X-3098Y-38380D01*
X-3144Y-38347D01*
X-3205Y-38310D01*
X-3275Y-38273D01*
X-3357Y-38236D01*
X-3365Y-38232D01*
X-3373Y-38228D01*
X-3390Y-38224D01*
X-3406Y-38220D01*
X-3431Y-38212D01*
X-3463Y-38199D01*
X-3496Y-38191D01*
X-3541Y-38179D01*
X-3586Y-38162D01*
X-3644Y-38150D01*
X-3705Y-38134D01*
X-3775Y-38113D01*
X-3849Y-38097D01*
X-3935Y-38072D01*
X-4029Y-38052D01*
X-4033D01*
X-4050Y-38048D01*
X-4078Y-38039D01*
X-4111Y-38031D01*
X-4156Y-38019D01*
X-4205Y-38007D01*
X-4255Y-37990D01*
X-4312Y-37974D01*
X-4435Y-37937D01*
X-4554Y-37896D01*
X-4611Y-37875D01*
X-4665Y-37855D01*
X-4714Y-37834D01*
X-4755Y-37814D01*
X-4759D01*
X-4767Y-37806D01*
X-4780Y-37797D01*
X-4800Y-37789D01*
X-4849Y-37761D01*
X-4907Y-37720D01*
X-4976Y-37666D01*
X-5042Y-37609D01*
X-5108Y-37539D01*
X-5161Y-37465D01*
Y-37461D01*
X-5165Y-37457D01*
X-5173Y-37445D01*
X-5181Y-37429D01*
X-5202Y-37383D01*
X-5226Y-37326D01*
X-5251Y-37256D01*
X-5271Y-37174D01*
X-5288Y-37084D01*
X-5292Y-36990D01*
Y-36986D01*
Y-36977D01*
Y-36961D01*
X-5288Y-36941D01*
Y-36916D01*
X-5284Y-36887D01*
X-5271Y-36814D01*
X-5251Y-36731D01*
X-5226Y-36645D01*
X-5185Y-36551D01*
X-5132Y-36457D01*
Y-36453D01*
X-5124Y-36445D01*
X-5116Y-36432D01*
X-5103Y-36416D01*
X-5062Y-36371D01*
X-5009Y-36313D01*
X-4944Y-36252D01*
X-4862Y-36190D01*
X-4767Y-36129D01*
X-4656Y-36075D01*
X-4652D01*
X-4644Y-36071D01*
X-4624Y-36063D01*
X-4603Y-36055D01*
X-4575Y-36047D01*
X-4538Y-36035D01*
X-4497Y-36022D01*
X-4451Y-36010D01*
X-4402Y-35998D01*
X-4349Y-35985D01*
X-4234Y-35965D01*
X-4103Y-35948D01*
X-3964Y-35944D01*
X-3894D01*
X-3857Y-35948D01*
D02*
G37*
G36*
X2937Y-36002D02*
X2982Y-36006D01*
X3035Y-36014D01*
X3097Y-36022D01*
X3158Y-36035D01*
X3228Y-36051D01*
X3297Y-36071D01*
X3371Y-36096D01*
X3441Y-36125D01*
X3515Y-36162D01*
X3585Y-36203D01*
X3650Y-36248D01*
X3712Y-36301D01*
X3716Y-36305D01*
X3724Y-36313D01*
X3740Y-36334D01*
X3761Y-36354D01*
X3785Y-36383D01*
X3814Y-36420D01*
X3843Y-36461D01*
X3872Y-36510D01*
X3900Y-36559D01*
X3929Y-36617D01*
X3958Y-36678D01*
X3982Y-36744D01*
X4003Y-36818D01*
X4019Y-36891D01*
X4027Y-36969D01*
X4031Y-37051D01*
Y-37055D01*
Y-37060D01*
Y-37072D01*
Y-37088D01*
X4027Y-37133D01*
X4019Y-37191D01*
X4007Y-37260D01*
X3990Y-37334D01*
X3970Y-37416D01*
X3937Y-37498D01*
Y-37502D01*
X3933Y-37506D01*
X3929Y-37519D01*
X3921Y-37535D01*
X3896Y-37580D01*
X3863Y-37638D01*
X3818Y-37707D01*
X3765Y-37785D01*
X3703Y-37867D01*
X3625Y-37957D01*
X3621Y-37962D01*
X3617Y-37970D01*
X3601Y-37982D01*
X3585Y-38002D01*
X3560Y-38027D01*
X3531Y-38056D01*
X3498Y-38093D01*
X3457Y-38130D01*
X3408Y-38175D01*
X3355Y-38224D01*
X3297Y-38281D01*
X3232Y-38339D01*
X3162Y-38404D01*
X3084Y-38470D01*
X2998Y-38544D01*
X2908Y-38622D01*
X2904Y-38626D01*
X2892Y-38638D01*
X2867Y-38654D01*
X2842Y-38679D01*
X2805Y-38708D01*
X2769Y-38741D01*
X2682Y-38814D01*
X2592Y-38892D01*
X2506Y-38974D01*
X2465Y-39011D01*
X2428Y-39044D01*
X2396Y-39077D01*
X2371Y-39101D01*
X2367Y-39105D01*
X2350Y-39122D01*
X2330Y-39146D01*
X2301Y-39179D01*
X2268Y-39216D01*
X2236Y-39257D01*
X2170Y-39347D01*
X4036D01*
Y-39794D01*
X1530D01*
Y-39786D01*
Y-39766D01*
Y-39733D01*
X1534Y-39692D01*
X1539Y-39643D01*
X1551Y-39589D01*
X1563Y-39532D01*
X1584Y-39474D01*
Y-39470D01*
X1588Y-39462D01*
X1592Y-39450D01*
X1600Y-39429D01*
X1612Y-39409D01*
X1625Y-39380D01*
X1657Y-39314D01*
X1698Y-39237D01*
X1752Y-39151D01*
X1813Y-39060D01*
X1887Y-38970D01*
X1891Y-38966D01*
X1895Y-38958D01*
X1908Y-38945D01*
X1928Y-38925D01*
X1949Y-38905D01*
X1977Y-38876D01*
X2006Y-38843D01*
X2043Y-38806D01*
X2084Y-38765D01*
X2129Y-38724D01*
X2178Y-38675D01*
X2236Y-38626D01*
X2293Y-38572D01*
X2359Y-38519D01*
X2424Y-38462D01*
X2498Y-38400D01*
X2506Y-38396D01*
X2527Y-38376D01*
X2555Y-38351D01*
X2596Y-38314D01*
X2646Y-38273D01*
X2703Y-38224D01*
X2769Y-38171D01*
X2834Y-38109D01*
X2974Y-37982D01*
X3109Y-37847D01*
X3175Y-37781D01*
X3236Y-37716D01*
X3289Y-37654D01*
X3334Y-37597D01*
X3339Y-37593D01*
X3343Y-37584D01*
X3355Y-37568D01*
X3367Y-37547D01*
X3388Y-37519D01*
X3404Y-37490D01*
X3445Y-37416D01*
X3486Y-37330D01*
X3523Y-37236D01*
X3548Y-37137D01*
X3552Y-37088D01*
X3556Y-37039D01*
Y-37035D01*
Y-37027D01*
Y-37010D01*
X3552Y-36994D01*
Y-36969D01*
X3543Y-36941D01*
X3531Y-36879D01*
X3507Y-36805D01*
X3470Y-36727D01*
X3449Y-36686D01*
X3421Y-36650D01*
X3392Y-36613D01*
X3355Y-36576D01*
X3351Y-36572D01*
X3347Y-36568D01*
X3334Y-36559D01*
X3318Y-36547D01*
X3297Y-36531D01*
X3273Y-36514D01*
X3215Y-36477D01*
X3138Y-36445D01*
X3052Y-36412D01*
X2949Y-36391D01*
X2892Y-36383D01*
X2801D01*
X2777Y-36387D01*
X2748D01*
X2715Y-36395D01*
X2641Y-36408D01*
X2555Y-36432D01*
X2465Y-36469D01*
X2420Y-36494D01*
X2375Y-36518D01*
X2334Y-36551D01*
X2293Y-36588D01*
X2289Y-36592D01*
X2285Y-36596D01*
X2277Y-36608D01*
X2260Y-36625D01*
X2248Y-36645D01*
X2231Y-36670D01*
X2211Y-36699D01*
X2195Y-36731D01*
X2174Y-36768D01*
X2158Y-36809D01*
X2125Y-36908D01*
X2100Y-37014D01*
X2096Y-37076D01*
X2092Y-37141D01*
X1616Y-37092D01*
Y-37084D01*
X1621Y-37068D01*
X1625Y-37043D01*
X1629Y-37006D01*
X1637Y-36961D01*
X1649Y-36908D01*
X1662Y-36850D01*
X1682Y-36789D01*
X1703Y-36727D01*
X1727Y-36658D01*
X1760Y-36592D01*
X1793Y-36527D01*
X1834Y-36457D01*
X1879Y-36395D01*
X1928Y-36334D01*
X1986Y-36281D01*
X1990Y-36276D01*
X2002Y-36268D01*
X2018Y-36256D01*
X2043Y-36235D01*
X2076Y-36215D01*
X2117Y-36190D01*
X2162Y-36166D01*
X2215Y-36137D01*
X2272Y-36112D01*
X2338Y-36088D01*
X2408Y-36063D01*
X2486Y-36043D01*
X2568Y-36022D01*
X2654Y-36010D01*
X2748Y-36002D01*
X2847Y-35998D01*
X2900D01*
X2937Y-36002D01*
D02*
G37*
G36*
X-241Y-36014D02*
X-196D01*
X-151Y-36018D01*
X-97Y-36026D01*
X9Y-36039D01*
X128Y-36059D01*
X239Y-36088D01*
X345Y-36129D01*
X350D01*
X358Y-36133D01*
X370Y-36141D01*
X391Y-36149D01*
X436Y-36178D01*
X497Y-36215D01*
X563Y-36264D01*
X628Y-36326D01*
X694Y-36399D01*
X756Y-36481D01*
Y-36485D01*
X764Y-36494D01*
X768Y-36506D01*
X780Y-36522D01*
X792Y-36543D01*
X805Y-36572D01*
X833Y-36633D01*
X858Y-36707D01*
X883Y-36793D01*
X899Y-36883D01*
X907Y-36982D01*
Y-36986D01*
Y-36994D01*
Y-37006D01*
Y-37023D01*
X899Y-37068D01*
X891Y-37129D01*
X874Y-37199D01*
X850Y-37277D01*
X817Y-37355D01*
X772Y-37437D01*
Y-37441D01*
X768Y-37445D01*
X760Y-37457D01*
X747Y-37474D01*
X719Y-37510D01*
X673Y-37560D01*
X620Y-37613D01*
X550Y-37670D01*
X473Y-37728D01*
X378Y-37781D01*
X382D01*
X395Y-37785D01*
X411Y-37793D01*
X436Y-37802D01*
X464Y-37814D01*
X497Y-37826D01*
X571Y-37863D01*
X657Y-37908D01*
X743Y-37970D01*
X829Y-38039D01*
X903Y-38126D01*
X907Y-38130D01*
X911Y-38138D01*
X919Y-38150D01*
X932Y-38166D01*
X948Y-38191D01*
X965Y-38220D01*
X981Y-38253D01*
X997Y-38289D01*
X1030Y-38372D01*
X1063Y-38470D01*
X1084Y-38581D01*
X1092Y-38638D01*
Y-38699D01*
Y-38704D01*
Y-38712D01*
Y-38724D01*
Y-38745D01*
X1088Y-38769D01*
Y-38794D01*
X1079Y-38859D01*
X1063Y-38937D01*
X1043Y-39019D01*
X1014Y-39110D01*
X977Y-39196D01*
Y-39200D01*
X973Y-39204D01*
X965Y-39216D01*
X956Y-39233D01*
X932Y-39274D01*
X899Y-39323D01*
X862Y-39380D01*
X813Y-39437D01*
X760Y-39495D01*
X698Y-39548D01*
X690Y-39552D01*
X669Y-39569D01*
X632Y-39589D01*
X583Y-39618D01*
X526Y-39647D01*
X456Y-39679D01*
X374Y-39708D01*
X284Y-39733D01*
X280D01*
X272Y-39737D01*
X259D01*
X239Y-39741D01*
X214Y-39745D01*
X186Y-39753D01*
X153Y-39757D01*
X116Y-39761D01*
X75Y-39770D01*
X26Y-39774D01*
X-77Y-39786D01*
X-196Y-39790D01*
X-327Y-39794D01*
X-1766D01*
Y-36010D01*
X-278D01*
X-241Y-36014D01*
D02*
G37*
G36*
X63289Y-35848D02*
X63335Y-35853D01*
X63380Y-35857D01*
X63433Y-35861D01*
X63548Y-35877D01*
X63675Y-35902D01*
X63802Y-35939D01*
X63925Y-35984D01*
X63929D01*
X63937Y-35992D01*
X63958Y-35996D01*
X63978Y-36008D01*
X64003Y-36025D01*
X64036Y-36041D01*
X64105Y-36082D01*
X64187Y-36140D01*
X64269Y-36209D01*
X64347Y-36287D01*
X64417Y-36381D01*
X64421Y-36386D01*
X64425Y-36394D01*
X64433Y-36406D01*
X64446Y-36426D01*
X64458Y-36451D01*
X64474Y-36480D01*
X64487Y-36517D01*
X64507Y-36554D01*
X64540Y-36640D01*
X64569Y-36742D01*
X64593Y-36853D01*
X64606Y-36976D01*
X64126Y-37013D01*
Y-37009D01*
X64122Y-36996D01*
Y-36980D01*
X64118Y-36955D01*
X64109Y-36923D01*
X64101Y-36890D01*
X64077Y-36812D01*
X64044Y-36726D01*
X63995Y-36636D01*
X63937Y-36549D01*
X63900Y-36513D01*
X63859Y-36476D01*
X63855Y-36472D01*
X63851Y-36467D01*
X63835Y-36459D01*
X63818Y-36447D01*
X63794Y-36435D01*
X63765Y-36418D01*
X63732Y-36402D01*
X63695Y-36381D01*
X63650Y-36365D01*
X63601Y-36349D01*
X63548Y-36332D01*
X63490Y-36320D01*
X63425Y-36308D01*
X63355Y-36299D01*
X63281Y-36291D01*
X63162D01*
X63130Y-36295D01*
X63093D01*
X63052Y-36299D01*
X63002Y-36303D01*
X62953Y-36312D01*
X62843Y-36332D01*
X62736Y-36361D01*
X62634Y-36402D01*
X62584Y-36431D01*
X62543Y-36459D01*
X62539D01*
X62535Y-36467D01*
X62511Y-36488D01*
X62478Y-36525D01*
X62441Y-36574D01*
X62404Y-36632D01*
X62371Y-36701D01*
X62347Y-36775D01*
X62342Y-36816D01*
X62338Y-36861D01*
Y-36865D01*
Y-36869D01*
X62342Y-36894D01*
X62347Y-36931D01*
X62355Y-36976D01*
X62375Y-37029D01*
X62400Y-37087D01*
X62433Y-37140D01*
X62482Y-37193D01*
X62490Y-37197D01*
X62498Y-37205D01*
X62515Y-37218D01*
X62535Y-37230D01*
X62560Y-37242D01*
X62592Y-37259D01*
X62629Y-37279D01*
X62674Y-37300D01*
X62728Y-37320D01*
X62789Y-37341D01*
X62859Y-37365D01*
X62941Y-37390D01*
X63027Y-37415D01*
X63125Y-37443D01*
X63236Y-37468D01*
X63244D01*
X63265Y-37472D01*
X63294Y-37480D01*
X63335Y-37492D01*
X63384Y-37501D01*
X63441Y-37517D01*
X63503Y-37529D01*
X63568Y-37550D01*
X63708Y-37587D01*
X63847Y-37624D01*
X63913Y-37644D01*
X63970Y-37665D01*
X64027Y-37685D01*
X64073Y-37706D01*
X64077D01*
X64089Y-37714D01*
X64105Y-37722D01*
X64126Y-37734D01*
X64154Y-37747D01*
X64187Y-37767D01*
X64257Y-37812D01*
X64339Y-37866D01*
X64417Y-37931D01*
X64495Y-38009D01*
X64528Y-38050D01*
X64561Y-38091D01*
Y-38095D01*
X64569Y-38103D01*
X64577Y-38116D01*
X64585Y-38132D01*
X64597Y-38153D01*
X64610Y-38181D01*
X64642Y-38247D01*
X64671Y-38325D01*
X64696Y-38415D01*
X64712Y-38517D01*
X64720Y-38628D01*
Y-38632D01*
Y-38640D01*
Y-38657D01*
X64716Y-38677D01*
Y-38706D01*
X64712Y-38735D01*
X64700Y-38813D01*
X64679Y-38899D01*
X64647Y-38993D01*
X64601Y-39092D01*
X64577Y-39145D01*
X64544Y-39194D01*
Y-39198D01*
X64536Y-39206D01*
X64528Y-39219D01*
X64511Y-39239D01*
X64474Y-39284D01*
X64417Y-39346D01*
X64347Y-39411D01*
X64261Y-39481D01*
X64163Y-39547D01*
X64048Y-39608D01*
X64044D01*
X64032Y-39616D01*
X64015Y-39620D01*
X63990Y-39633D01*
X63962Y-39641D01*
X63925Y-39653D01*
X63884Y-39670D01*
X63835Y-39682D01*
X63786Y-39694D01*
X63728Y-39711D01*
X63605Y-39731D01*
X63470Y-39748D01*
X63322Y-39756D01*
X63273D01*
X63236Y-39752D01*
X63191D01*
X63142Y-39748D01*
X63085Y-39743D01*
X63019Y-39735D01*
X62884Y-39719D01*
X62740Y-39694D01*
X62597Y-39657D01*
X62457Y-39608D01*
X62453D01*
X62441Y-39600D01*
X62424Y-39592D01*
X62400Y-39579D01*
X62371Y-39563D01*
X62338Y-39547D01*
X62260Y-39497D01*
X62174Y-39436D01*
X62084Y-39358D01*
X61994Y-39268D01*
X61916Y-39161D01*
X61912Y-39157D01*
X61908Y-39149D01*
X61900Y-39132D01*
X61887Y-39108D01*
X61871Y-39079D01*
X61854Y-39046D01*
X61834Y-39005D01*
X61818Y-38960D01*
X61797Y-38915D01*
X61781Y-38862D01*
X61748Y-38743D01*
X61723Y-38616D01*
X61715Y-38546D01*
X61711Y-38476D01*
X62182Y-38436D01*
Y-38440D01*
Y-38448D01*
X62186Y-38464D01*
X62191Y-38485D01*
X62195Y-38509D01*
X62199Y-38534D01*
X62215Y-38604D01*
X62236Y-38677D01*
X62260Y-38755D01*
X62293Y-38833D01*
X62334Y-38907D01*
X62338Y-38915D01*
X62359Y-38936D01*
X62388Y-38969D01*
X62428Y-39009D01*
X62482Y-39059D01*
X62547Y-39104D01*
X62625Y-39153D01*
X62715Y-39198D01*
X62720D01*
X62728Y-39202D01*
X62740Y-39206D01*
X62761Y-39215D01*
X62785Y-39223D01*
X62814Y-39235D01*
X62847Y-39243D01*
X62884Y-39251D01*
X62970Y-39272D01*
X63072Y-39292D01*
X63179Y-39305D01*
X63298Y-39309D01*
X63347D01*
X63371Y-39305D01*
X63400D01*
X63466Y-39296D01*
X63544Y-39288D01*
X63630Y-39276D01*
X63716Y-39255D01*
X63798Y-39227D01*
X63802D01*
X63806Y-39223D01*
X63818Y-39219D01*
X63835Y-39210D01*
X63872Y-39190D01*
X63921Y-39165D01*
X63974Y-39132D01*
X64032Y-39092D01*
X64081Y-39046D01*
X64126Y-38993D01*
X64130Y-38985D01*
X64142Y-38969D01*
X64163Y-38936D01*
X64183Y-38895D01*
X64200Y-38846D01*
X64220Y-38792D01*
X64232Y-38731D01*
X64236Y-38669D01*
Y-38665D01*
Y-38661D01*
Y-38640D01*
X64232Y-38604D01*
X64224Y-38563D01*
X64212Y-38513D01*
X64191Y-38460D01*
X64167Y-38407D01*
X64130Y-38358D01*
X64126Y-38353D01*
X64109Y-38337D01*
X64085Y-38313D01*
X64048Y-38280D01*
X64003Y-38247D01*
X63941Y-38210D01*
X63872Y-38173D01*
X63790Y-38136D01*
X63781Y-38132D01*
X63773Y-38128D01*
X63757Y-38124D01*
X63740Y-38120D01*
X63716Y-38112D01*
X63683Y-38099D01*
X63650Y-38091D01*
X63605Y-38079D01*
X63560Y-38062D01*
X63503Y-38050D01*
X63441Y-38034D01*
X63371Y-38013D01*
X63298Y-37997D01*
X63212Y-37972D01*
X63117Y-37952D01*
X63113D01*
X63097Y-37948D01*
X63068Y-37939D01*
X63035Y-37931D01*
X62990Y-37919D01*
X62941Y-37907D01*
X62892Y-37890D01*
X62834Y-37874D01*
X62711Y-37837D01*
X62592Y-37796D01*
X62535Y-37775D01*
X62482Y-37755D01*
X62433Y-37734D01*
X62392Y-37714D01*
X62388D01*
X62379Y-37706D01*
X62367Y-37697D01*
X62347Y-37689D01*
X62297Y-37661D01*
X62240Y-37620D01*
X62170Y-37566D01*
X62104Y-37509D01*
X62039Y-37439D01*
X61986Y-37365D01*
Y-37361D01*
X61982Y-37357D01*
X61973Y-37345D01*
X61965Y-37328D01*
X61945Y-37283D01*
X61920Y-37226D01*
X61896Y-37156D01*
X61875Y-37074D01*
X61859Y-36984D01*
X61854Y-36890D01*
Y-36886D01*
Y-36878D01*
Y-36861D01*
X61859Y-36841D01*
Y-36816D01*
X61863Y-36787D01*
X61875Y-36713D01*
X61896Y-36632D01*
X61920Y-36545D01*
X61961Y-36451D01*
X62014Y-36357D01*
Y-36353D01*
X62023Y-36345D01*
X62031Y-36332D01*
X62043Y-36316D01*
X62084Y-36271D01*
X62137Y-36213D01*
X62203Y-36152D01*
X62285Y-36090D01*
X62379Y-36029D01*
X62490Y-35976D01*
X62494D01*
X62502Y-35971D01*
X62523Y-35963D01*
X62543Y-35955D01*
X62572Y-35947D01*
X62609Y-35934D01*
X62650Y-35922D01*
X62695Y-35910D01*
X62744Y-35898D01*
X62797Y-35885D01*
X62912Y-35865D01*
X63043Y-35848D01*
X63183Y-35844D01*
X63253D01*
X63289Y-35848D01*
D02*
G37*
G36*
X70489Y-39694D02*
X70026D01*
Y-36738D01*
X70018Y-36746D01*
X69997Y-36767D01*
X69960Y-36795D01*
X69907Y-36836D01*
X69845Y-36886D01*
X69767Y-36939D01*
X69681Y-36996D01*
X69583Y-37058D01*
X69579D01*
X69571Y-37066D01*
X69558Y-37074D01*
X69538Y-37082D01*
X69513Y-37099D01*
X69485Y-37111D01*
X69419Y-37148D01*
X69345Y-37185D01*
X69263Y-37226D01*
X69177Y-37263D01*
X69095Y-37296D01*
Y-36849D01*
X69099Y-36845D01*
X69112Y-36841D01*
X69132Y-36828D01*
X69161Y-36816D01*
X69193Y-36800D01*
X69235Y-36775D01*
X69279Y-36750D01*
X69325Y-36726D01*
X69431Y-36660D01*
X69546Y-36582D01*
X69665Y-36500D01*
X69776Y-36406D01*
X69780Y-36402D01*
X69788Y-36394D01*
X69804Y-36381D01*
X69825Y-36361D01*
X69845Y-36336D01*
X69874Y-36312D01*
X69936Y-36242D01*
X70005Y-36168D01*
X70075Y-36082D01*
X70136Y-35992D01*
X70190Y-35898D01*
X70489D01*
Y-39694D01*
D02*
G37*
G36*
X66906Y-35914D02*
X66951D01*
X66996Y-35918D01*
X67049Y-35926D01*
X67156Y-35939D01*
X67275Y-35959D01*
X67385Y-35988D01*
X67492Y-36029D01*
X67496D01*
X67504Y-36033D01*
X67516Y-36041D01*
X67537Y-36049D01*
X67582Y-36078D01*
X67644Y-36115D01*
X67709Y-36164D01*
X67775Y-36226D01*
X67840Y-36299D01*
X67902Y-36381D01*
Y-36386D01*
X67910Y-36394D01*
X67914Y-36406D01*
X67927Y-36422D01*
X67939Y-36443D01*
X67951Y-36472D01*
X67980Y-36533D01*
X68004Y-36607D01*
X68029Y-36693D01*
X68046Y-36783D01*
X68054Y-36882D01*
Y-36886D01*
Y-36894D01*
Y-36906D01*
Y-36923D01*
X68046Y-36968D01*
X68037Y-37029D01*
X68021Y-37099D01*
X67996Y-37177D01*
X67963Y-37255D01*
X67918Y-37337D01*
Y-37341D01*
X67914Y-37345D01*
X67906Y-37357D01*
X67894Y-37374D01*
X67865Y-37411D01*
X67820Y-37460D01*
X67767Y-37513D01*
X67697Y-37570D01*
X67619Y-37628D01*
X67525Y-37681D01*
X67529D01*
X67541Y-37685D01*
X67558Y-37693D01*
X67582Y-37702D01*
X67611Y-37714D01*
X67644Y-37726D01*
X67717Y-37763D01*
X67804Y-37808D01*
X67890Y-37870D01*
X67976Y-37939D01*
X68050Y-38026D01*
X68054Y-38030D01*
X68058Y-38038D01*
X68066Y-38050D01*
X68078Y-38067D01*
X68095Y-38091D01*
X68111Y-38120D01*
X68127Y-38153D01*
X68144Y-38190D01*
X68177Y-38271D01*
X68209Y-38370D01*
X68230Y-38481D01*
X68238Y-38538D01*
Y-38600D01*
Y-38604D01*
Y-38612D01*
Y-38624D01*
Y-38645D01*
X68234Y-38669D01*
Y-38694D01*
X68226Y-38759D01*
X68209Y-38837D01*
X68189Y-38919D01*
X68160Y-39009D01*
X68123Y-39096D01*
Y-39100D01*
X68119Y-39104D01*
X68111Y-39116D01*
X68103Y-39132D01*
X68078Y-39173D01*
X68046Y-39223D01*
X68009Y-39280D01*
X67959Y-39338D01*
X67906Y-39395D01*
X67845Y-39448D01*
X67836Y-39452D01*
X67816Y-39469D01*
X67779Y-39489D01*
X67730Y-39518D01*
X67672Y-39547D01*
X67603Y-39579D01*
X67521Y-39608D01*
X67430Y-39633D01*
X67426D01*
X67418Y-39637D01*
X67406D01*
X67385Y-39641D01*
X67361Y-39645D01*
X67332Y-39653D01*
X67299Y-39657D01*
X67262Y-39661D01*
X67221Y-39670D01*
X67172Y-39674D01*
X67070Y-39686D01*
X66951Y-39690D01*
X66820Y-39694D01*
X65380D01*
Y-35910D01*
X66869D01*
X66906Y-35914D01*
D02*
G37*
G36*
X43088Y41431D02*
X41576D01*
X41375Y40414D01*
X41379Y40418D01*
X41391Y40426D01*
X41407Y40435D01*
X41432Y40451D01*
X41465Y40467D01*
X41502Y40488D01*
X41543Y40512D01*
X41592Y40533D01*
X41641Y40554D01*
X41699Y40578D01*
X41818Y40615D01*
X41883Y40631D01*
X41949Y40644D01*
X42018Y40648D01*
X42088Y40652D01*
X42109D01*
X42137Y40648D01*
X42170D01*
X42211Y40640D01*
X42260Y40635D01*
X42318Y40623D01*
X42375Y40611D01*
X42441Y40590D01*
X42506Y40570D01*
X42576Y40541D01*
X42646Y40508D01*
X42715Y40467D01*
X42785Y40422D01*
X42855Y40369D01*
X42920Y40308D01*
X42924Y40303D01*
X42937Y40291D01*
X42953Y40271D01*
X42974Y40246D01*
X43002Y40213D01*
X43031Y40168D01*
X43060Y40123D01*
X43093Y40070D01*
X43125Y40008D01*
X43154Y39939D01*
X43187Y39869D01*
X43211Y39787D01*
X43232Y39705D01*
X43248Y39615D01*
X43261Y39520D01*
X43265Y39422D01*
Y39418D01*
Y39397D01*
Y39373D01*
X43261Y39336D01*
X43257Y39291D01*
X43248Y39241D01*
X43240Y39184D01*
X43228Y39118D01*
X43211Y39053D01*
X43191Y38979D01*
X43166Y38905D01*
X43138Y38831D01*
X43105Y38758D01*
X43064Y38680D01*
X43019Y38606D01*
X42965Y38536D01*
X42961Y38532D01*
X42949Y38516D01*
X42929Y38495D01*
X42900Y38467D01*
X42863Y38430D01*
X42818Y38393D01*
X42765Y38348D01*
X42703Y38307D01*
X42638Y38266D01*
X42564Y38221D01*
X42482Y38184D01*
X42391Y38151D01*
X42297Y38118D01*
X42195Y38098D01*
X42088Y38081D01*
X41973Y38077D01*
X41924D01*
X41887Y38081D01*
X41842Y38085D01*
X41793Y38094D01*
X41735Y38102D01*
X41674Y38114D01*
X41608Y38126D01*
X41539Y38147D01*
X41469Y38171D01*
X41399Y38200D01*
X41330Y38233D01*
X41260Y38270D01*
X41194Y38315D01*
X41129Y38364D01*
X41124Y38368D01*
X41116Y38376D01*
X41100Y38393D01*
X41080Y38417D01*
X41051Y38446D01*
X41022Y38479D01*
X40993Y38520D01*
X40961Y38569D01*
X40928Y38618D01*
X40895Y38676D01*
X40866Y38741D01*
X40837Y38807D01*
X40809Y38881D01*
X40788Y38959D01*
X40772Y39045D01*
X40760Y39131D01*
X41248Y39168D01*
Y39164D01*
X41252Y39151D01*
X41256Y39135D01*
X41260Y39110D01*
X41264Y39082D01*
X41276Y39045D01*
X41297Y38967D01*
X41330Y38881D01*
X41375Y38791D01*
X41428Y38708D01*
X41461Y38672D01*
X41493Y38635D01*
X41498D01*
X41502Y38627D01*
X41514Y38618D01*
X41530Y38606D01*
X41571Y38577D01*
X41629Y38549D01*
X41699Y38516D01*
X41780Y38487D01*
X41871Y38467D01*
X41920Y38462D01*
X41973Y38458D01*
X42006D01*
X42031Y38462D01*
X42059Y38467D01*
X42092Y38471D01*
X42170Y38491D01*
X42260Y38520D01*
X42305Y38540D01*
X42355Y38565D01*
X42404Y38594D01*
X42449Y38627D01*
X42494Y38663D01*
X42539Y38708D01*
X42543Y38713D01*
X42547Y38721D01*
X42560Y38733D01*
X42576Y38754D01*
X42592Y38782D01*
X42613Y38811D01*
X42633Y38848D01*
X42658Y38889D01*
X42678Y38934D01*
X42699Y38983D01*
X42720Y39041D01*
X42736Y39098D01*
X42752Y39164D01*
X42765Y39233D01*
X42769Y39303D01*
X42773Y39381D01*
Y39385D01*
Y39397D01*
Y39418D01*
X42769Y39446D01*
X42765Y39479D01*
X42760Y39520D01*
X42752Y39561D01*
X42744Y39610D01*
X42720Y39709D01*
X42678Y39816D01*
X42654Y39865D01*
X42621Y39914D01*
X42588Y39963D01*
X42547Y40008D01*
X42543Y40012D01*
X42539Y40016D01*
X42523Y40029D01*
X42506Y40045D01*
X42486Y40062D01*
X42457Y40082D01*
X42428Y40102D01*
X42391Y40127D01*
X42351Y40148D01*
X42309Y40168D01*
X42207Y40205D01*
X42154Y40221D01*
X42092Y40234D01*
X42031Y40238D01*
X41965Y40242D01*
X41928D01*
X41883Y40238D01*
X41830Y40230D01*
X41764Y40217D01*
X41695Y40197D01*
X41625Y40172D01*
X41555Y40135D01*
X41547Y40131D01*
X41526Y40119D01*
X41493Y40094D01*
X41453Y40066D01*
X41412Y40025D01*
X41362Y39979D01*
X41317Y39926D01*
X41276Y39869D01*
X40842Y39930D01*
X41206Y41874D01*
X43088D01*
Y41431D01*
D02*
G37*
G36*
X38939Y41919D02*
X38984D01*
X39038Y41915D01*
X39099Y41911D01*
X39222Y41898D01*
X39349Y41878D01*
X39472Y41853D01*
X39525Y41837D01*
X39579Y41820D01*
X39583D01*
X39591Y41816D01*
X39603Y41808D01*
X39624Y41800D01*
X39673Y41775D01*
X39731Y41738D01*
X39800Y41689D01*
X39870Y41624D01*
X39940Y41550D01*
X40001Y41460D01*
Y41456D01*
X40009Y41447D01*
X40018Y41435D01*
X40026Y41414D01*
X40038Y41390D01*
X40050Y41361D01*
X40067Y41328D01*
X40083Y41291D01*
X40112Y41205D01*
X40137Y41111D01*
X40153Y41004D01*
X40161Y40890D01*
Y40886D01*
Y40873D01*
Y40849D01*
X40157Y40824D01*
X40153Y40787D01*
X40149Y40746D01*
X40141Y40701D01*
X40128Y40652D01*
X40095Y40545D01*
X40075Y40488D01*
X40050Y40431D01*
X40022Y40373D01*
X39985Y40316D01*
X39944Y40262D01*
X39899Y40209D01*
X39895Y40205D01*
X39886Y40197D01*
X39870Y40185D01*
X39849Y40164D01*
X39821Y40143D01*
X39788Y40119D01*
X39747Y40090D01*
X39698Y40062D01*
X39645Y40033D01*
X39587Y40004D01*
X39521Y39975D01*
X39448Y39947D01*
X39370Y39922D01*
X39284Y39898D01*
X39189Y39877D01*
X39091Y39861D01*
X39095D01*
X39099Y39856D01*
X39124Y39844D01*
X39161Y39824D01*
X39206Y39799D01*
X39255Y39770D01*
X39304Y39742D01*
X39353Y39705D01*
X39394Y39672D01*
X39399Y39668D01*
X39403Y39664D01*
X39415Y39652D01*
X39431Y39635D01*
X39452Y39615D01*
X39476Y39590D01*
X39530Y39533D01*
X39591Y39459D01*
X39661Y39373D01*
X39735Y39274D01*
X39808Y39168D01*
X40464Y38139D01*
X39837D01*
X39337Y38926D01*
X39333Y38930D01*
X39329Y38942D01*
X39316Y38959D01*
X39300Y38983D01*
X39284Y39012D01*
X39259Y39045D01*
X39210Y39118D01*
X39152Y39205D01*
X39095Y39291D01*
X39034Y39373D01*
X38976Y39446D01*
Y39451D01*
X38968Y39455D01*
X38952Y39475D01*
X38927Y39508D01*
X38890Y39545D01*
X38853Y39586D01*
X38808Y39627D01*
X38763Y39668D01*
X38722Y39697D01*
X38718Y39701D01*
X38701Y39709D01*
X38681Y39721D01*
X38652Y39738D01*
X38615Y39754D01*
X38578Y39770D01*
X38537Y39787D01*
X38492Y39799D01*
X38488D01*
X38476Y39803D01*
X38456Y39807D01*
X38427Y39811D01*
X38386D01*
X38337Y39816D01*
X38279Y39820D01*
X37635D01*
Y38139D01*
X37135D01*
Y41923D01*
X38894D01*
X38939Y41919D01*
D02*
G37*
G36*
X35032Y39540D02*
X35544D01*
Y39114D01*
X35032D01*
Y38208D01*
X34569D01*
Y39114D01*
X32920D01*
Y39540D01*
X34650Y41992D01*
X35032D01*
Y39540D01*
D02*
G37*
G36*
X31260Y41988D02*
X31305D01*
X31358Y41984D01*
X31420Y41980D01*
X31543Y41967D01*
X31670Y41947D01*
X31793Y41922D01*
X31846Y41906D01*
X31899Y41890D01*
X31903D01*
X31912Y41886D01*
X31924Y41877D01*
X31945Y41869D01*
X31994Y41844D01*
X32051Y41808D01*
X32121Y41758D01*
X32190Y41693D01*
X32260Y41619D01*
X32322Y41529D01*
Y41525D01*
X32330Y41517D01*
X32338Y41504D01*
X32346Y41484D01*
X32359Y41459D01*
X32371Y41431D01*
X32387Y41398D01*
X32404Y41361D01*
X32432Y41275D01*
X32457Y41180D01*
X32473Y41074D01*
X32482Y40959D01*
Y40955D01*
Y40942D01*
Y40918D01*
X32477Y40893D01*
X32473Y40857D01*
X32469Y40815D01*
X32461Y40770D01*
X32449Y40721D01*
X32416Y40615D01*
X32395Y40557D01*
X32371Y40500D01*
X32342Y40442D01*
X32305Y40385D01*
X32264Y40332D01*
X32219Y40278D01*
X32215Y40274D01*
X32207Y40266D01*
X32190Y40254D01*
X32170Y40233D01*
X32141Y40213D01*
X32108Y40188D01*
X32067Y40159D01*
X32018Y40131D01*
X31965Y40102D01*
X31907Y40073D01*
X31842Y40045D01*
X31768Y40016D01*
X31690Y39991D01*
X31604Y39967D01*
X31510Y39946D01*
X31411Y39930D01*
X31416D01*
X31420Y39926D01*
X31444Y39913D01*
X31481Y39893D01*
X31526Y39868D01*
X31576Y39840D01*
X31625Y39811D01*
X31674Y39774D01*
X31715Y39741D01*
X31719Y39737D01*
X31723Y39733D01*
X31735Y39721D01*
X31752Y39704D01*
X31772Y39684D01*
X31797Y39659D01*
X31850Y39602D01*
X31912Y39528D01*
X31981Y39442D01*
X32055Y39344D01*
X32129Y39237D01*
X32785Y38208D01*
X32158D01*
X31657Y38995D01*
X31653Y38999D01*
X31649Y39011D01*
X31637Y39028D01*
X31620Y39052D01*
X31604Y39081D01*
X31580Y39114D01*
X31530Y39188D01*
X31473Y39274D01*
X31416Y39360D01*
X31354Y39442D01*
X31297Y39516D01*
Y39520D01*
X31288Y39524D01*
X31272Y39544D01*
X31247Y39577D01*
X31211Y39614D01*
X31174Y39655D01*
X31129Y39696D01*
X31083Y39737D01*
X31043Y39766D01*
X31038Y39770D01*
X31022Y39778D01*
X31001Y39790D01*
X30973Y39807D01*
X30936Y39823D01*
X30899Y39840D01*
X30858Y39856D01*
X30813Y39868D01*
X30809D01*
X30796Y39872D01*
X30776Y39876D01*
X30747Y39881D01*
X30706D01*
X30657Y39885D01*
X30600Y39889D01*
X29956D01*
Y38208D01*
X29456D01*
Y41992D01*
X31215D01*
X31260Y41988D01*
D02*
G37*
G36*
X2337Y-4973D02*
X2365Y-4977D01*
X2443Y-4985D01*
X2530Y-5002D01*
X2628Y-5026D01*
X2726Y-5059D01*
X2825Y-5104D01*
X2829D01*
X2837Y-5108D01*
X2849Y-5116D01*
X2870Y-5129D01*
X2915Y-5158D01*
X2972Y-5198D01*
X3038Y-5252D01*
X3104Y-5313D01*
X3169Y-5383D01*
X3227Y-5465D01*
Y-5469D01*
X3231Y-5473D01*
X3239Y-5490D01*
X3247Y-5506D01*
X3259Y-5526D01*
X3272Y-5551D01*
X3296Y-5613D01*
X3321Y-5686D01*
X3345Y-5768D01*
X3362Y-5859D01*
X3366Y-5953D01*
Y-5957D01*
Y-5965D01*
Y-5977D01*
Y-5994D01*
X3358Y-6043D01*
X3350Y-6101D01*
X3333Y-6170D01*
X3308Y-6244D01*
X3276Y-6322D01*
X3231Y-6400D01*
Y-6404D01*
X3227Y-6408D01*
X3206Y-6433D01*
X3177Y-6470D01*
X3132Y-6515D01*
X3079Y-6568D01*
X3009Y-6621D01*
X2931Y-6670D01*
X2841Y-6720D01*
X2845D01*
X2857Y-6724D01*
X2874Y-6728D01*
X2898Y-6736D01*
X2923Y-6744D01*
X2956Y-6757D01*
X3034Y-6789D01*
X3116Y-6834D01*
X3202Y-6888D01*
X3288Y-6957D01*
X3362Y-7044D01*
X3366Y-7048D01*
X3370Y-7056D01*
X3378Y-7068D01*
X3390Y-7089D01*
X3407Y-7109D01*
X3423Y-7138D01*
X3440Y-7171D01*
X3456Y-7212D01*
X3472Y-7253D01*
X3489Y-7298D01*
X3522Y-7400D01*
X3542Y-7519D01*
X3550Y-7585D01*
Y-7650D01*
Y-7654D01*
Y-7671D01*
X3546Y-7700D01*
Y-7732D01*
X3538Y-7777D01*
X3530Y-7827D01*
X3522Y-7880D01*
X3505Y-7941D01*
X3485Y-8007D01*
X3460Y-8073D01*
X3432Y-8142D01*
X3395Y-8212D01*
X3354Y-8286D01*
X3304Y-8355D01*
X3251Y-8425D01*
X3185Y-8491D01*
X3181Y-8495D01*
X3169Y-8507D01*
X3149Y-8524D01*
X3120Y-8544D01*
X3087Y-8569D01*
X3042Y-8597D01*
X2993Y-8630D01*
X2935Y-8659D01*
X2874Y-8692D01*
X2804Y-8725D01*
X2730Y-8753D01*
X2648Y-8778D01*
X2562Y-8798D01*
X2472Y-8815D01*
X2378Y-8827D01*
X2275Y-8831D01*
X2255D01*
X2226Y-8827D01*
X2193D01*
X2148Y-8823D01*
X2099Y-8815D01*
X2046Y-8806D01*
X1984Y-8794D01*
X1919Y-8778D01*
X1853Y-8757D01*
X1783Y-8737D01*
X1714Y-8708D01*
X1644Y-8671D01*
X1578Y-8634D01*
X1509Y-8589D01*
X1447Y-8536D01*
X1443Y-8532D01*
X1435Y-8524D01*
X1418Y-8507D01*
X1394Y-8483D01*
X1369Y-8454D01*
X1340Y-8417D01*
X1312Y-8376D01*
X1279Y-8327D01*
X1246Y-8278D01*
X1213Y-8216D01*
X1181Y-8155D01*
X1152Y-8085D01*
X1127Y-8011D01*
X1103Y-7933D01*
X1086Y-7851D01*
X1074Y-7765D01*
X1537Y-7704D01*
Y-7708D01*
X1541Y-7720D01*
X1546Y-7740D01*
X1554Y-7769D01*
X1562Y-7802D01*
X1570Y-7839D01*
X1599Y-7925D01*
X1636Y-8019D01*
X1681Y-8114D01*
X1738Y-8200D01*
X1771Y-8237D01*
X1804Y-8274D01*
X1808D01*
X1812Y-8282D01*
X1824Y-8290D01*
X1837Y-8302D01*
X1878Y-8327D01*
X1935Y-8360D01*
X2005Y-8392D01*
X2083Y-8417D01*
X2177Y-8438D01*
X2275Y-8446D01*
X2308D01*
X2333Y-8442D01*
X2357Y-8438D01*
X2394Y-8433D01*
X2468Y-8417D01*
X2558Y-8392D01*
X2653Y-8351D01*
X2698Y-8323D01*
X2743Y-8294D01*
X2788Y-8261D01*
X2833Y-8220D01*
X2837Y-8216D01*
X2841Y-8208D01*
X2853Y-8196D01*
X2870Y-8179D01*
X2886Y-8159D01*
X2903Y-8130D01*
X2923Y-8101D01*
X2948Y-8064D01*
X2989Y-7982D01*
X3022Y-7888D01*
X3050Y-7777D01*
X3054Y-7720D01*
X3058Y-7659D01*
Y-7654D01*
Y-7646D01*
Y-7626D01*
X3054Y-7605D01*
X3050Y-7576D01*
X3046Y-7548D01*
X3034Y-7474D01*
X3005Y-7388D01*
X2968Y-7302D01*
X2944Y-7257D01*
X2915Y-7216D01*
X2882Y-7175D01*
X2845Y-7134D01*
X2841Y-7130D01*
X2837Y-7125D01*
X2825Y-7113D01*
X2808Y-7101D01*
X2788Y-7085D01*
X2763Y-7068D01*
X2702Y-7027D01*
X2624Y-6990D01*
X2534Y-6957D01*
X2431Y-6933D01*
X2374Y-6929D01*
X2316Y-6925D01*
X2292D01*
X2263Y-6929D01*
X2226D01*
X2177Y-6937D01*
X2124Y-6945D01*
X2058Y-6957D01*
X1988Y-6974D01*
X2038Y-6568D01*
X2046D01*
X2066Y-6572D01*
X2091Y-6576D01*
X2144D01*
X2165Y-6572D01*
X2193D01*
X2222Y-6568D01*
X2292Y-6556D01*
X2374Y-6539D01*
X2464Y-6510D01*
X2558Y-6474D01*
X2648Y-6420D01*
X2653D01*
X2661Y-6412D01*
X2669Y-6404D01*
X2685Y-6392D01*
X2726Y-6355D01*
X2771Y-6301D01*
X2812Y-6236D01*
X2853Y-6154D01*
X2870Y-6109D01*
X2878Y-6055D01*
X2886Y-6002D01*
X2890Y-5945D01*
Y-5941D01*
Y-5932D01*
Y-5920D01*
X2886Y-5900D01*
X2882Y-5855D01*
X2870Y-5793D01*
X2849Y-5727D01*
X2816Y-5658D01*
X2771Y-5584D01*
X2747Y-5551D01*
X2714Y-5518D01*
X2706Y-5510D01*
X2681Y-5494D01*
X2644Y-5465D01*
X2595Y-5432D01*
X2530Y-5404D01*
X2452Y-5375D01*
X2365Y-5358D01*
X2267Y-5350D01*
X2242D01*
X2222Y-5354D01*
X2197D01*
X2173Y-5358D01*
X2107Y-5371D01*
X2038Y-5391D01*
X1960Y-5424D01*
X1886Y-5465D01*
X1812Y-5522D01*
X1804Y-5531D01*
X1783Y-5555D01*
X1750Y-5592D01*
X1718Y-5649D01*
X1677Y-5719D01*
X1640Y-5809D01*
X1607Y-5912D01*
X1582Y-6031D01*
X1119Y-5949D01*
Y-5945D01*
X1123Y-5928D01*
X1127Y-5904D01*
X1135Y-5871D01*
X1148Y-5834D01*
X1160Y-5789D01*
X1177Y-5740D01*
X1197Y-5686D01*
X1250Y-5567D01*
X1279Y-5510D01*
X1316Y-5449D01*
X1357Y-5391D01*
X1402Y-5334D01*
X1451Y-5276D01*
X1505Y-5227D01*
X1509Y-5223D01*
X1517Y-5215D01*
X1537Y-5203D01*
X1558Y-5186D01*
X1591Y-5166D01*
X1623Y-5145D01*
X1664Y-5121D01*
X1714Y-5096D01*
X1763Y-5076D01*
X1820Y-5051D01*
X1882Y-5030D01*
X1947Y-5010D01*
X2021Y-4993D01*
X2095Y-4981D01*
X2173Y-4973D01*
X2255Y-4969D01*
X2308D01*
X2337Y-4973D01*
D02*
G37*
G36*
X-746Y-4985D02*
X-701D01*
X-648Y-4989D01*
X-587Y-4993D01*
X-464Y-5006D01*
X-336Y-5026D01*
X-213Y-5051D01*
X-160Y-5067D01*
X-107Y-5084D01*
X-103D01*
X-94Y-5088D01*
X-82Y-5096D01*
X-62Y-5104D01*
X-13Y-5129D01*
X45Y-5166D01*
X115Y-5215D01*
X184Y-5280D01*
X254Y-5354D01*
X316Y-5444D01*
Y-5449D01*
X324Y-5457D01*
X332Y-5469D01*
X340Y-5490D01*
X352Y-5514D01*
X365Y-5543D01*
X381Y-5576D01*
X398Y-5613D01*
X426Y-5699D01*
X451Y-5793D01*
X467Y-5900D01*
X475Y-6014D01*
Y-6019D01*
Y-6031D01*
Y-6055D01*
X471Y-6080D01*
X467Y-6117D01*
X463Y-6158D01*
X455Y-6203D01*
X443Y-6252D01*
X410Y-6359D01*
X389Y-6416D01*
X365Y-6474D01*
X336Y-6531D01*
X299Y-6588D01*
X258Y-6642D01*
X213Y-6695D01*
X209Y-6699D01*
X201Y-6707D01*
X184Y-6720D01*
X164Y-6740D01*
X135Y-6761D01*
X102Y-6785D01*
X61Y-6814D01*
X12Y-6843D01*
X-41Y-6871D01*
X-99Y-6900D01*
X-164Y-6929D01*
X-238Y-6957D01*
X-316Y-6982D01*
X-402Y-7007D01*
X-496Y-7027D01*
X-595Y-7044D01*
X-591D01*
X-587Y-7048D01*
X-562Y-7060D01*
X-525Y-7080D01*
X-480Y-7105D01*
X-431Y-7134D01*
X-381Y-7162D01*
X-332Y-7199D01*
X-291Y-7232D01*
X-287Y-7236D01*
X-283Y-7240D01*
X-271Y-7253D01*
X-254Y-7269D01*
X-234Y-7289D01*
X-209Y-7314D01*
X-156Y-7372D01*
X-94Y-7445D01*
X-25Y-7531D01*
X49Y-7630D01*
X123Y-7736D01*
X779Y-8766D01*
X152D01*
X-349Y-7978D01*
X-353Y-7974D01*
X-357Y-7962D01*
X-369Y-7946D01*
X-386Y-7921D01*
X-402Y-7892D01*
X-427Y-7859D01*
X-476Y-7786D01*
X-533Y-7700D01*
X-591Y-7613D01*
X-652Y-7531D01*
X-709Y-7458D01*
Y-7453D01*
X-718Y-7449D01*
X-734Y-7429D01*
X-759Y-7396D01*
X-796Y-7359D01*
X-833Y-7318D01*
X-878Y-7277D01*
X-923Y-7236D01*
X-964Y-7208D01*
X-968Y-7203D01*
X-984Y-7195D01*
X-1005Y-7183D01*
X-1033Y-7166D01*
X-1070Y-7150D01*
X-1107Y-7134D01*
X-1148Y-7117D01*
X-1193Y-7105D01*
X-1197D01*
X-1210Y-7101D01*
X-1230Y-7097D01*
X-1259Y-7093D01*
X-1300D01*
X-1349Y-7089D01*
X-1407Y-7085D01*
X-2050D01*
Y-8766D01*
X-2550D01*
Y-4981D01*
X-792D01*
X-746Y-4985D01*
D02*
G37*
G36*
X-37514Y16002D02*
X-37978D01*
Y18958D01*
X-37986Y18950D01*
X-38006Y18929D01*
X-38043Y18900D01*
X-38097Y18859D01*
X-38158Y18810D01*
X-38236Y18757D01*
X-38322Y18699D01*
X-38421Y18638D01*
X-38425D01*
X-38433Y18630D01*
X-38445Y18622D01*
X-38466Y18613D01*
X-38490Y18597D01*
X-38519Y18585D01*
X-38585Y18548D01*
X-38658Y18511D01*
X-38740Y18470D01*
X-38827Y18433D01*
X-38908Y18400D01*
Y18847D01*
X-38904Y18851D01*
X-38892Y18855D01*
X-38872Y18868D01*
X-38843Y18880D01*
X-38810Y18896D01*
X-38769Y18921D01*
X-38724Y18946D01*
X-38679Y18970D01*
X-38572Y19036D01*
X-38458Y19114D01*
X-38339Y19196D01*
X-38228Y19290D01*
X-38224Y19294D01*
X-38216Y19302D01*
X-38199Y19315D01*
X-38179Y19335D01*
X-38158Y19360D01*
X-38129Y19384D01*
X-38068Y19454D01*
X-37998Y19528D01*
X-37929Y19614D01*
X-37867Y19704D01*
X-37814Y19798D01*
X-37514D01*
Y16002D01*
D02*
G37*
G36*
X-41082Y19782D02*
X-41036D01*
X-40983Y19778D01*
X-40922Y19774D01*
X-40799Y19761D01*
X-40672Y19741D01*
X-40549Y19716D01*
X-40495Y19700D01*
X-40442Y19683D01*
X-40438D01*
X-40430Y19679D01*
X-40417Y19671D01*
X-40397Y19663D01*
X-40348Y19638D01*
X-40290Y19602D01*
X-40220Y19552D01*
X-40151Y19487D01*
X-40081Y19413D01*
X-40020Y19323D01*
Y19319D01*
X-40011Y19310D01*
X-40003Y19298D01*
X-39995Y19278D01*
X-39983Y19253D01*
X-39970Y19224D01*
X-39954Y19192D01*
X-39938Y19155D01*
X-39909Y19069D01*
X-39884Y18974D01*
X-39868Y18868D01*
X-39860Y18753D01*
Y18749D01*
Y18736D01*
Y18712D01*
X-39864Y18687D01*
X-39868Y18650D01*
X-39872Y18609D01*
X-39880Y18564D01*
X-39893Y18515D01*
X-39925Y18408D01*
X-39946Y18351D01*
X-39970Y18294D01*
X-39999Y18236D01*
X-40036Y18179D01*
X-40077Y18125D01*
X-40122Y18072D01*
X-40126Y18068D01*
X-40134Y18060D01*
X-40151Y18048D01*
X-40171Y18027D01*
X-40200Y18007D01*
X-40233Y17982D01*
X-40274Y17953D01*
X-40323Y17925D01*
X-40376Y17896D01*
X-40434Y17867D01*
X-40499Y17839D01*
X-40573Y17810D01*
X-40651Y17785D01*
X-40737Y17761D01*
X-40831Y17740D01*
X-40930Y17724D01*
X-40926D01*
X-40922Y17720D01*
X-40897Y17707D01*
X-40860Y17687D01*
X-40815Y17662D01*
X-40766Y17634D01*
X-40717Y17605D01*
X-40667Y17568D01*
X-40626Y17535D01*
X-40622Y17531D01*
X-40618Y17527D01*
X-40606Y17515D01*
X-40589Y17498D01*
X-40569Y17478D01*
X-40544Y17453D01*
X-40491Y17396D01*
X-40430Y17322D01*
X-40360Y17236D01*
X-40286Y17137D01*
X-40212Y17031D01*
X-39556Y16002D01*
X-40184D01*
X-40684Y16789D01*
X-40688Y16793D01*
X-40692Y16805D01*
X-40704Y16822D01*
X-40721Y16846D01*
X-40737Y16875D01*
X-40762Y16908D01*
X-40811Y16982D01*
X-40868Y17068D01*
X-40926Y17154D01*
X-40987Y17236D01*
X-41045Y17310D01*
Y17314D01*
X-41053Y17318D01*
X-41069Y17338D01*
X-41094Y17371D01*
X-41131Y17408D01*
X-41168Y17449D01*
X-41213Y17490D01*
X-41258Y17531D01*
X-41299Y17560D01*
X-41303Y17564D01*
X-41319Y17572D01*
X-41340Y17584D01*
X-41368Y17601D01*
X-41405Y17617D01*
X-41442Y17634D01*
X-41483Y17650D01*
X-41528Y17662D01*
X-41532D01*
X-41545Y17666D01*
X-41565Y17670D01*
X-41594Y17674D01*
X-41635D01*
X-41684Y17679D01*
X-41742Y17683D01*
X-42385D01*
Y16002D01*
X-42886D01*
Y19786D01*
X-41127D01*
X-41082Y19782D01*
D02*
G37*
G36*
X-90116Y27725D02*
X-90079Y27721D01*
X-90034Y27717D01*
X-89984Y27709D01*
X-89931Y27696D01*
X-89812Y27667D01*
X-89755Y27647D01*
X-89689Y27622D01*
X-89628Y27594D01*
X-89570Y27557D01*
X-89513Y27520D01*
X-89455Y27475D01*
X-89451Y27471D01*
X-89443Y27463D01*
X-89427Y27450D01*
X-89410Y27430D01*
X-89386Y27405D01*
X-89361Y27372D01*
X-89332Y27335D01*
X-89304Y27294D01*
X-89275Y27249D01*
X-89246Y27196D01*
X-89218Y27139D01*
X-89189Y27077D01*
X-89164Y27011D01*
X-89144Y26942D01*
X-89123Y26868D01*
X-89111Y26786D01*
X-89574Y26749D01*
Y26753D01*
X-89578Y26761D01*
X-89583Y26774D01*
X-89587Y26794D01*
X-89599Y26844D01*
X-89619Y26901D01*
X-89644Y26966D01*
X-89677Y27032D01*
X-89710Y27093D01*
X-89751Y27147D01*
X-89755Y27151D01*
X-89759Y27155D01*
X-89771Y27167D01*
X-89784Y27180D01*
X-89824Y27213D01*
X-89882Y27249D01*
X-89947Y27286D01*
X-90030Y27315D01*
X-90120Y27340D01*
X-90169Y27344D01*
X-90218Y27348D01*
X-90255D01*
X-90300Y27340D01*
X-90353Y27331D01*
X-90415Y27315D01*
X-90481Y27294D01*
X-90546Y27262D01*
X-90612Y27221D01*
X-90616D01*
X-90620Y27213D01*
X-90632Y27204D01*
X-90649Y27192D01*
X-90685Y27155D01*
X-90735Y27102D01*
X-90792Y27036D01*
X-90850Y26954D01*
X-90903Y26860D01*
X-90956Y26753D01*
Y26749D01*
X-90960Y26741D01*
X-90968Y26720D01*
X-90977Y26696D01*
X-90985Y26667D01*
X-90997Y26626D01*
X-91009Y26581D01*
X-91022Y26532D01*
X-91034Y26474D01*
X-91042Y26409D01*
X-91054Y26335D01*
X-91067Y26257D01*
X-91075Y26175D01*
X-91079Y26085D01*
X-91083Y25986D01*
X-91087Y25888D01*
X-91087Y25888D01*
Y25884D01*
X-91087Y25888D01*
X-91079Y25896D01*
X-91071Y25909D01*
X-91059Y25925D01*
X-91022Y25970D01*
X-90977Y26028D01*
X-90915Y26089D01*
X-90845Y26151D01*
X-90768Y26208D01*
X-90681Y26261D01*
X-90677D01*
X-90669Y26265D01*
X-90657Y26274D01*
X-90640Y26282D01*
X-90616Y26290D01*
X-90591Y26302D01*
X-90526Y26327D01*
X-90448Y26347D01*
X-90362Y26368D01*
X-90267Y26384D01*
X-90169Y26388D01*
X-90148D01*
X-90124Y26384D01*
X-90091D01*
X-90050Y26376D01*
X-90005Y26372D01*
X-89952Y26360D01*
X-89894Y26347D01*
X-89837Y26327D01*
X-89771Y26306D01*
X-89706Y26278D01*
X-89640Y26245D01*
X-89570Y26204D01*
X-89505Y26159D01*
X-89439Y26105D01*
X-89378Y26044D01*
X-89373Y26040D01*
X-89365Y26028D01*
X-89349Y26011D01*
X-89324Y25982D01*
X-89300Y25950D01*
X-89275Y25909D01*
X-89242Y25859D01*
X-89214Y25806D01*
X-89185Y25745D01*
X-89152Y25679D01*
X-89127Y25605D01*
X-89099Y25527D01*
X-89078Y25445D01*
X-89062Y25355D01*
X-89054Y25261D01*
X-89050Y25163D01*
Y25158D01*
Y25146D01*
Y25130D01*
X-89054Y25101D01*
Y25072D01*
X-89058Y25035D01*
X-89062Y24990D01*
X-89070Y24945D01*
X-89087Y24843D01*
X-89115Y24732D01*
X-89152Y24617D01*
X-89205Y24498D01*
Y24494D01*
X-89214Y24486D01*
X-89222Y24470D01*
X-89234Y24449D01*
X-89250Y24424D01*
X-89267Y24396D01*
X-89316Y24326D01*
X-89373Y24252D01*
X-89447Y24174D01*
X-89533Y24096D01*
X-89628Y24031D01*
X-89632D01*
X-89640Y24023D01*
X-89656Y24014D01*
X-89677Y24006D01*
X-89701Y23994D01*
X-89730Y23982D01*
X-89767Y23965D01*
X-89804Y23953D01*
X-89894Y23920D01*
X-90001Y23896D01*
X-90116Y23879D01*
X-90239Y23871D01*
X-90263D01*
X-90296Y23875D01*
X-90337Y23879D01*
X-90386Y23883D01*
X-90444Y23896D01*
X-90505Y23908D01*
X-90575Y23924D01*
X-90649Y23949D01*
X-90727Y23973D01*
X-90804Y24010D01*
X-90882Y24051D01*
X-90964Y24101D01*
X-91038Y24158D01*
X-91116Y24224D01*
X-91186Y24297D01*
X-91190Y24301D01*
X-91202Y24318D01*
X-91219Y24342D01*
X-91243Y24379D01*
X-91272Y24424D01*
X-91300Y24482D01*
X-91333Y24552D01*
X-91366Y24633D01*
X-91403Y24724D01*
X-91436Y24826D01*
X-91465Y24941D01*
X-91493Y25068D01*
X-91518Y25208D01*
X-91534Y25359D01*
X-91546Y25523D01*
X-91551Y25699D01*
Y25704D01*
Y25712D01*
Y25728D01*
Y25749D01*
Y25773D01*
X-91546Y25806D01*
Y25839D01*
X-91542Y25880D01*
X-91538Y25970D01*
X-91530Y26073D01*
X-91518Y26188D01*
X-91501Y26310D01*
X-91477Y26442D01*
X-91452Y26573D01*
X-91419Y26704D01*
X-91378Y26835D01*
X-91333Y26962D01*
X-91280Y27085D01*
X-91214Y27196D01*
X-91145Y27294D01*
X-91141Y27299D01*
X-91128Y27315D01*
X-91108Y27335D01*
X-91079Y27364D01*
X-91046Y27397D01*
X-91001Y27434D01*
X-90952Y27471D01*
X-90895Y27512D01*
X-90829Y27553D01*
X-90755Y27590D01*
X-90677Y27626D01*
X-90591Y27659D01*
X-90501Y27688D01*
X-90403Y27709D01*
X-90300Y27725D01*
X-90189Y27729D01*
X-90144D01*
X-90116Y27725D01*
D02*
G37*
G36*
X-92174Y25532D02*
Y25523D01*
Y25507D01*
Y25478D01*
Y25437D01*
X-92178Y25388D01*
X-92182Y25335D01*
X-92186Y25273D01*
X-92190Y25203D01*
X-92207Y25060D01*
X-92227Y24908D01*
X-92260Y24761D01*
X-92280Y24691D01*
X-92305Y24625D01*
Y24621D01*
X-92309Y24609D01*
X-92317Y24592D01*
X-92330Y24568D01*
X-92346Y24539D01*
X-92362Y24507D01*
X-92412Y24433D01*
X-92440Y24387D01*
X-92473Y24347D01*
X-92514Y24297D01*
X-92555Y24252D01*
X-92604Y24207D01*
X-92654Y24162D01*
X-92711Y24121D01*
X-92772Y24080D01*
X-92777Y24076D01*
X-92789Y24072D01*
X-92805Y24059D01*
X-92834Y24047D01*
X-92867Y24031D01*
X-92908Y24014D01*
X-92953Y23994D01*
X-93010Y23978D01*
X-93068Y23957D01*
X-93133Y23936D01*
X-93207Y23920D01*
X-93285Y23904D01*
X-93371Y23891D01*
X-93461Y23879D01*
X-93555Y23875D01*
X-93654Y23871D01*
X-93707D01*
X-93744Y23875D01*
X-93789D01*
X-93838Y23879D01*
X-93900Y23887D01*
X-93961Y23896D01*
X-94101Y23916D01*
X-94248Y23949D01*
X-94392Y23994D01*
X-94462Y24018D01*
X-94527Y24051D01*
X-94531Y24055D01*
X-94544Y24059D01*
X-94560Y24072D01*
X-94581Y24084D01*
X-94609Y24105D01*
X-94642Y24129D01*
X-94675Y24154D01*
X-94712Y24187D01*
X-94794Y24261D01*
X-94872Y24351D01*
X-94945Y24457D01*
X-94978Y24519D01*
X-95007Y24580D01*
Y24584D01*
X-95011Y24597D01*
X-95019Y24617D01*
X-95027Y24646D01*
X-95040Y24679D01*
X-95052Y24724D01*
X-95064Y24773D01*
X-95077Y24830D01*
X-95093Y24896D01*
X-95105Y24966D01*
X-95118Y25043D01*
X-95126Y25130D01*
X-95138Y25220D01*
X-95142Y25318D01*
X-95150Y25421D01*
Y25532D01*
Y27717D01*
X-94650D01*
Y25532D01*
Y25527D01*
Y25511D01*
Y25486D01*
Y25449D01*
X-94646Y25408D01*
Y25363D01*
X-94642Y25310D01*
X-94638Y25257D01*
X-94630Y25138D01*
X-94613Y25019D01*
X-94589Y24904D01*
X-94576Y24851D01*
X-94560Y24806D01*
Y24802D01*
X-94556Y24798D01*
X-94552Y24785D01*
X-94544Y24769D01*
X-94519Y24724D01*
X-94486Y24675D01*
X-94445Y24613D01*
X-94392Y24556D01*
X-94326Y24498D01*
X-94248Y24445D01*
X-94244D01*
X-94236Y24441D01*
X-94224Y24433D01*
X-94207Y24424D01*
X-94187Y24416D01*
X-94158Y24408D01*
X-94130Y24396D01*
X-94097Y24383D01*
X-94015Y24363D01*
X-93920Y24342D01*
X-93814Y24326D01*
X-93699Y24322D01*
X-93646D01*
X-93609Y24326D01*
X-93564Y24330D01*
X-93510Y24334D01*
X-93453Y24342D01*
X-93392Y24355D01*
X-93264Y24383D01*
X-93199Y24404D01*
X-93133Y24429D01*
X-93072Y24457D01*
X-93014Y24490D01*
X-92961Y24527D01*
X-92912Y24572D01*
X-92908Y24576D01*
X-92900Y24584D01*
X-92891Y24601D01*
X-92875Y24621D01*
X-92858Y24650D01*
X-92838Y24687D01*
X-92813Y24732D01*
X-92793Y24785D01*
X-92772Y24847D01*
X-92748Y24916D01*
X-92727Y24994D01*
X-92711Y25080D01*
X-92694Y25179D01*
X-92682Y25286D01*
X-92678Y25404D01*
X-92674Y25532D01*
Y27717D01*
X-92174D01*
Y25532D01*
D02*
G37*
G36*
X-14118Y42654D02*
X-14069Y42649D01*
X-14012Y42641D01*
X-13950Y42633D01*
X-13881Y42621D01*
X-13807Y42605D01*
X-13729Y42588D01*
X-13651Y42564D01*
X-13569Y42535D01*
X-13487Y42502D01*
X-13409Y42461D01*
X-13331Y42420D01*
X-13257Y42367D01*
X-13253Y42362D01*
X-13241Y42354D01*
X-13220Y42338D01*
X-13196Y42313D01*
X-13163Y42285D01*
X-13126Y42248D01*
X-13089Y42207D01*
X-13044Y42158D01*
X-12999Y42104D01*
X-12954Y42043D01*
X-12909Y41977D01*
X-12868Y41903D01*
X-12823Y41826D01*
X-12786Y41739D01*
X-12749Y41649D01*
X-12716Y41555D01*
X-13208Y41440D01*
Y41444D01*
X-13216Y41456D01*
X-13220Y41481D01*
X-13233Y41510D01*
X-13245Y41543D01*
X-13265Y41579D01*
X-13307Y41670D01*
X-13360Y41768D01*
X-13430Y41870D01*
X-13503Y41965D01*
X-13548Y42006D01*
X-13593Y42043D01*
X-13598Y42047D01*
X-13606Y42051D01*
X-13618Y42059D01*
X-13639Y42071D01*
X-13663Y42088D01*
X-13692Y42104D01*
X-13725Y42121D01*
X-13766Y42137D01*
X-13811Y42153D01*
X-13856Y42170D01*
X-13962Y42203D01*
X-14085Y42223D01*
X-14151Y42231D01*
X-14262D01*
X-14295Y42227D01*
X-14332Y42223D01*
X-14377Y42219D01*
X-14426Y42215D01*
X-14475Y42207D01*
X-14594Y42178D01*
X-14717Y42141D01*
X-14778Y42117D01*
X-14840Y42088D01*
X-14897Y42055D01*
X-14955Y42018D01*
X-14959Y42014D01*
X-14967Y42010D01*
X-14983Y41998D01*
X-15004Y41981D01*
X-15024Y41961D01*
X-15053Y41932D01*
X-15082Y41903D01*
X-15115Y41870D01*
X-15147Y41830D01*
X-15184Y41789D01*
X-15250Y41694D01*
X-15311Y41584D01*
X-15365Y41456D01*
Y41452D01*
X-15369Y41440D01*
X-15377Y41420D01*
X-15381Y41395D01*
X-15389Y41362D01*
X-15402Y41325D01*
X-15410Y41280D01*
X-15422Y41235D01*
X-15434Y41182D01*
X-15443Y41124D01*
X-15463Y41001D01*
X-15475Y40870D01*
X-15480Y40731D01*
Y40727D01*
Y40710D01*
Y40686D01*
X-15475Y40649D01*
Y40608D01*
X-15471Y40559D01*
X-15467Y40505D01*
X-15463Y40444D01*
X-15455Y40378D01*
X-15447Y40312D01*
X-15422Y40169D01*
X-15385Y40025D01*
X-15340Y39886D01*
Y39882D01*
X-15332Y39870D01*
X-15324Y39853D01*
X-15315Y39829D01*
X-15299Y39796D01*
X-15279Y39763D01*
X-15234Y39685D01*
X-15172Y39595D01*
X-15098Y39509D01*
X-15008Y39423D01*
X-14959Y39386D01*
X-14906Y39349D01*
X-14901D01*
X-14893Y39341D01*
X-14877Y39333D01*
X-14852Y39320D01*
X-14823Y39308D01*
X-14791Y39292D01*
X-14754Y39279D01*
X-14713Y39263D01*
X-14618Y39230D01*
X-14508Y39201D01*
X-14389Y39181D01*
X-14327Y39177D01*
X-14262Y39173D01*
X-14221D01*
X-14192Y39177D01*
X-14155Y39181D01*
X-14114Y39185D01*
X-14065Y39193D01*
X-14016Y39201D01*
X-13901Y39230D01*
X-13844Y39251D01*
X-13782Y39275D01*
X-13721Y39304D01*
X-13663Y39337D01*
X-13606Y39374D01*
X-13548Y39415D01*
X-13544Y39419D01*
X-13536Y39427D01*
X-13520Y39439D01*
X-13499Y39460D01*
X-13479Y39484D01*
X-13450Y39517D01*
X-13421Y39554D01*
X-13388Y39595D01*
X-13356Y39644D01*
X-13323Y39698D01*
X-13290Y39755D01*
X-13257Y39821D01*
X-13229Y39890D01*
X-13200Y39968D01*
X-13171Y40050D01*
X-13151Y40136D01*
X-12651Y40009D01*
Y40001D01*
X-12659Y39981D01*
X-12667Y39952D01*
X-12683Y39907D01*
X-12700Y39858D01*
X-12724Y39796D01*
X-12749Y39730D01*
X-12782Y39661D01*
X-12819Y39583D01*
X-12860Y39509D01*
X-12905Y39427D01*
X-12958Y39349D01*
X-13015Y39275D01*
X-13077Y39201D01*
X-13147Y39132D01*
X-13220Y39066D01*
X-13225Y39062D01*
X-13241Y39054D01*
X-13261Y39037D01*
X-13294Y39017D01*
X-13331Y38992D01*
X-13380Y38964D01*
X-13434Y38935D01*
X-13499Y38906D01*
X-13569Y38878D01*
X-13643Y38849D01*
X-13725Y38820D01*
X-13815Y38796D01*
X-13909Y38775D01*
X-14008Y38759D01*
X-14110Y38750D01*
X-14221Y38746D01*
X-14278D01*
X-14323Y38750D01*
X-14372Y38755D01*
X-14434Y38759D01*
X-14500Y38767D01*
X-14573Y38779D01*
X-14651Y38791D01*
X-14733Y38808D01*
X-14815Y38828D01*
X-14897Y38849D01*
X-14983Y38878D01*
X-15065Y38910D01*
X-15143Y38947D01*
X-15217Y38992D01*
X-15221Y38996D01*
X-15234Y39005D01*
X-15254Y39017D01*
X-15279Y39037D01*
X-15311Y39066D01*
X-15348Y39095D01*
X-15389Y39132D01*
X-15434Y39177D01*
X-15480Y39226D01*
X-15529Y39279D01*
X-15574Y39337D01*
X-15623Y39402D01*
X-15672Y39472D01*
X-15717Y39546D01*
X-15758Y39628D01*
X-15799Y39714D01*
X-15803Y39718D01*
X-15808Y39734D01*
X-15816Y39763D01*
X-15828Y39796D01*
X-15844Y39841D01*
X-15861Y39890D01*
X-15877Y39952D01*
X-15898Y40017D01*
X-15914Y40091D01*
X-15935Y40169D01*
X-15951Y40251D01*
X-15963Y40341D01*
X-15988Y40530D01*
X-15992Y40628D01*
X-15996Y40727D01*
Y40735D01*
Y40751D01*
Y40784D01*
X-15992Y40825D01*
X-15988Y40878D01*
X-15984Y40940D01*
X-15976Y41006D01*
X-15967Y41079D01*
X-15955Y41157D01*
X-15943Y41239D01*
X-15902Y41415D01*
X-15873Y41502D01*
X-15844Y41588D01*
X-15812Y41678D01*
X-15771Y41760D01*
X-15766Y41764D01*
X-15758Y41780D01*
X-15746Y41801D01*
X-15730Y41834D01*
X-15705Y41870D01*
X-15676Y41912D01*
X-15643Y41957D01*
X-15607Y42010D01*
X-15562Y42059D01*
X-15516Y42117D01*
X-15463Y42170D01*
X-15406Y42227D01*
X-15344Y42281D01*
X-15279Y42334D01*
X-15205Y42383D01*
X-15131Y42428D01*
X-15127Y42432D01*
X-15111Y42436D01*
X-15090Y42449D01*
X-15057Y42465D01*
X-15020Y42481D01*
X-14971Y42502D01*
X-14918Y42522D01*
X-14860Y42543D01*
X-14795Y42564D01*
X-14721Y42584D01*
X-14647Y42605D01*
X-14565Y42621D01*
X-14397Y42649D01*
X-14307Y42654D01*
X-14213Y42658D01*
X-14159D01*
X-14118Y42654D01*
D02*
G37*
G36*
X-8017Y42600D02*
X-7989Y42596D01*
X-7911Y42588D01*
X-7825Y42572D01*
X-7726Y42547D01*
X-7628Y42514D01*
X-7530Y42469D01*
X-7525D01*
X-7517Y42465D01*
X-7505Y42457D01*
X-7485Y42445D01*
X-7439Y42416D01*
X-7382Y42375D01*
X-7316Y42322D01*
X-7251Y42260D01*
X-7185Y42190D01*
X-7128Y42108D01*
Y42104D01*
X-7124Y42100D01*
X-7115Y42084D01*
X-7107Y42067D01*
X-7095Y42047D01*
X-7083Y42022D01*
X-7058Y41961D01*
X-7034Y41887D01*
X-7009Y41805D01*
X-6993Y41715D01*
X-6988Y41620D01*
Y41616D01*
Y41608D01*
Y41596D01*
Y41579D01*
X-6997Y41530D01*
X-7005Y41473D01*
X-7021Y41403D01*
X-7046Y41329D01*
X-7079Y41251D01*
X-7124Y41174D01*
Y41170D01*
X-7128Y41165D01*
X-7148Y41141D01*
X-7177Y41104D01*
X-7222Y41059D01*
X-7275Y41006D01*
X-7345Y40952D01*
X-7423Y40903D01*
X-7513Y40854D01*
X-7509D01*
X-7497Y40850D01*
X-7480Y40846D01*
X-7456Y40837D01*
X-7431Y40829D01*
X-7398Y40817D01*
X-7321Y40784D01*
X-7238Y40739D01*
X-7152Y40686D01*
X-7066Y40616D01*
X-6993Y40530D01*
X-6988Y40526D01*
X-6984Y40518D01*
X-6976Y40505D01*
X-6964Y40485D01*
X-6947Y40464D01*
X-6931Y40436D01*
X-6915Y40403D01*
X-6898Y40362D01*
X-6882Y40321D01*
X-6865Y40276D01*
X-6833Y40173D01*
X-6812Y40054D01*
X-6804Y39989D01*
Y39923D01*
Y39919D01*
Y39903D01*
X-6808Y39874D01*
Y39841D01*
X-6816Y39796D01*
X-6824Y39747D01*
X-6833Y39693D01*
X-6849Y39632D01*
X-6870Y39566D01*
X-6894Y39501D01*
X-6923Y39431D01*
X-6960Y39361D01*
X-7001Y39287D01*
X-7050Y39218D01*
X-7103Y39148D01*
X-7169Y39083D01*
X-7173Y39078D01*
X-7185Y39066D01*
X-7206Y39050D01*
X-7234Y39029D01*
X-7267Y39005D01*
X-7312Y38976D01*
X-7361Y38943D01*
X-7419Y38914D01*
X-7480Y38882D01*
X-7550Y38849D01*
X-7624Y38820D01*
X-7706Y38796D01*
X-7792Y38775D01*
X-7882Y38759D01*
X-7976Y38746D01*
X-8079Y38742D01*
X-8100D01*
X-8128Y38746D01*
X-8161D01*
X-8206Y38750D01*
X-8255Y38759D01*
X-8309Y38767D01*
X-8370Y38779D01*
X-8436Y38796D01*
X-8501Y38816D01*
X-8571Y38837D01*
X-8641Y38865D01*
X-8710Y38902D01*
X-8776Y38939D01*
X-8846Y38984D01*
X-8907Y39037D01*
X-8911Y39042D01*
X-8919Y39050D01*
X-8936Y39066D01*
X-8961Y39091D01*
X-8985Y39119D01*
X-9014Y39156D01*
X-9042Y39197D01*
X-9075Y39247D01*
X-9108Y39296D01*
X-9141Y39357D01*
X-9174Y39419D01*
X-9202Y39489D01*
X-9227Y39562D01*
X-9252Y39640D01*
X-9268Y39722D01*
X-9280Y39808D01*
X-8817Y39870D01*
Y39866D01*
X-8813Y39853D01*
X-8809Y39833D01*
X-8801Y39804D01*
X-8792Y39771D01*
X-8784Y39734D01*
X-8755Y39648D01*
X-8719Y39554D01*
X-8674Y39460D01*
X-8616Y39374D01*
X-8583Y39337D01*
X-8551Y39300D01*
X-8546D01*
X-8542Y39292D01*
X-8530Y39283D01*
X-8518Y39271D01*
X-8477Y39247D01*
X-8419Y39214D01*
X-8350Y39181D01*
X-8272Y39156D01*
X-8177Y39136D01*
X-8079Y39128D01*
X-8046D01*
X-8022Y39132D01*
X-7997Y39136D01*
X-7960Y39140D01*
X-7886Y39156D01*
X-7796Y39181D01*
X-7702Y39222D01*
X-7657Y39251D01*
X-7612Y39279D01*
X-7566Y39312D01*
X-7521Y39353D01*
X-7517Y39357D01*
X-7513Y39365D01*
X-7501Y39378D01*
X-7485Y39394D01*
X-7468Y39415D01*
X-7452Y39443D01*
X-7431Y39472D01*
X-7407Y39509D01*
X-7366Y39591D01*
X-7333Y39685D01*
X-7304Y39796D01*
X-7300Y39853D01*
X-7296Y39915D01*
Y39919D01*
Y39927D01*
Y39948D01*
X-7300Y39968D01*
X-7304Y39997D01*
X-7308Y40025D01*
X-7321Y40099D01*
X-7349Y40185D01*
X-7386Y40272D01*
X-7411Y40317D01*
X-7439Y40358D01*
X-7472Y40399D01*
X-7509Y40440D01*
X-7513Y40444D01*
X-7517Y40448D01*
X-7530Y40460D01*
X-7546Y40472D01*
X-7566Y40489D01*
X-7591Y40505D01*
X-7653Y40546D01*
X-7730Y40583D01*
X-7821Y40616D01*
X-7923Y40641D01*
X-7981Y40645D01*
X-8038Y40649D01*
X-8063D01*
X-8091Y40645D01*
X-8128D01*
X-8177Y40637D01*
X-8231Y40628D01*
X-8296Y40616D01*
X-8366Y40600D01*
X-8317Y41006D01*
X-8309D01*
X-8288Y41001D01*
X-8264Y40997D01*
X-8210D01*
X-8190Y41001D01*
X-8161D01*
X-8132Y41006D01*
X-8063Y41018D01*
X-7981Y41034D01*
X-7890Y41063D01*
X-7796Y41100D01*
X-7706Y41153D01*
X-7702D01*
X-7694Y41161D01*
X-7685Y41170D01*
X-7669Y41182D01*
X-7628Y41219D01*
X-7583Y41272D01*
X-7542Y41337D01*
X-7501Y41420D01*
X-7485Y41465D01*
X-7476Y41518D01*
X-7468Y41571D01*
X-7464Y41629D01*
Y41633D01*
Y41641D01*
Y41653D01*
X-7468Y41674D01*
X-7472Y41719D01*
X-7485Y41780D01*
X-7505Y41846D01*
X-7538Y41916D01*
X-7583Y41989D01*
X-7608Y42022D01*
X-7640Y42055D01*
X-7649Y42063D01*
X-7673Y42080D01*
X-7710Y42108D01*
X-7759Y42141D01*
X-7825Y42170D01*
X-7903Y42199D01*
X-7989Y42215D01*
X-8087Y42223D01*
X-8112D01*
X-8132Y42219D01*
X-8157D01*
X-8181Y42215D01*
X-8247Y42203D01*
X-8317Y42182D01*
X-8395Y42149D01*
X-8468Y42108D01*
X-8542Y42051D01*
X-8551Y42043D01*
X-8571Y42018D01*
X-8604Y41981D01*
X-8637Y41924D01*
X-8678Y41854D01*
X-8715Y41764D01*
X-8747Y41662D01*
X-8772Y41543D01*
X-9235Y41625D01*
Y41629D01*
X-9231Y41645D01*
X-9227Y41670D01*
X-9219Y41702D01*
X-9206Y41739D01*
X-9194Y41784D01*
X-9178Y41834D01*
X-9157Y41887D01*
X-9104Y42006D01*
X-9075Y42063D01*
X-9038Y42125D01*
X-8997Y42182D01*
X-8952Y42240D01*
X-8903Y42297D01*
X-8850Y42346D01*
X-8846Y42350D01*
X-8838Y42358D01*
X-8817Y42371D01*
X-8796Y42387D01*
X-8764Y42408D01*
X-8731Y42428D01*
X-8690Y42453D01*
X-8641Y42477D01*
X-8591Y42498D01*
X-8534Y42522D01*
X-8473Y42543D01*
X-8407Y42564D01*
X-8333Y42580D01*
X-8259Y42592D01*
X-8181Y42600D01*
X-8100Y42605D01*
X-8046D01*
X-8017Y42600D01*
D02*
G37*
G36*
X-10473Y38808D02*
X-10937D01*
Y41764D01*
X-10945Y41756D01*
X-10965Y41735D01*
X-11002Y41706D01*
X-11056Y41666D01*
X-11117Y41616D01*
X-11195Y41563D01*
X-11281Y41506D01*
X-11379Y41444D01*
X-11384D01*
X-11392Y41436D01*
X-11404Y41428D01*
X-11425Y41420D01*
X-11449Y41403D01*
X-11478Y41391D01*
X-11543Y41354D01*
X-11617Y41317D01*
X-11699Y41276D01*
X-11785Y41239D01*
X-11867Y41206D01*
Y41653D01*
X-11863Y41657D01*
X-11851Y41662D01*
X-11830Y41674D01*
X-11802Y41686D01*
X-11769Y41702D01*
X-11728Y41727D01*
X-11683Y41752D01*
X-11638Y41776D01*
X-11531Y41842D01*
X-11416Y41920D01*
X-11298Y42002D01*
X-11187Y42096D01*
X-11183Y42100D01*
X-11174Y42108D01*
X-11158Y42121D01*
X-11138Y42141D01*
X-11117Y42166D01*
X-11088Y42190D01*
X-11027Y42260D01*
X-10957Y42334D01*
X-10887Y42420D01*
X-10826Y42510D01*
X-10773Y42605D01*
X-10473D01*
Y38808D01*
D02*
G37*
G36*
X9700Y39852D02*
X9749Y39847D01*
X9807Y39839D01*
X9868Y39831D01*
X9938Y39819D01*
X10012Y39802D01*
X10090Y39786D01*
X10167Y39761D01*
X10250Y39733D01*
X10332Y39700D01*
X10409Y39659D01*
X10487Y39618D01*
X10561Y39565D01*
X10565Y39560D01*
X10577Y39552D01*
X10598Y39536D01*
X10623Y39511D01*
X10655Y39483D01*
X10692Y39446D01*
X10729Y39405D01*
X10774Y39355D01*
X10819Y39302D01*
X10864Y39241D01*
X10910Y39175D01*
X10951Y39101D01*
X10996Y39023D01*
X11033Y38937D01*
X11069Y38847D01*
X11102Y38753D01*
X10610Y38638D01*
Y38642D01*
X10602Y38654D01*
X10598Y38679D01*
X10586Y38708D01*
X10573Y38741D01*
X10553Y38777D01*
X10512Y38868D01*
X10459Y38966D01*
X10389Y39068D01*
X10315Y39163D01*
X10270Y39204D01*
X10225Y39241D01*
X10221Y39245D01*
X10213Y39249D01*
X10200Y39257D01*
X10180Y39269D01*
X10155Y39286D01*
X10127Y39302D01*
X10094Y39319D01*
X10053Y39335D01*
X10008Y39351D01*
X9963Y39368D01*
X9856Y39401D01*
X9733Y39421D01*
X9667Y39429D01*
X9557D01*
X9524Y39425D01*
X9487Y39421D01*
X9442Y39417D01*
X9393Y39413D01*
X9343Y39405D01*
X9225Y39376D01*
X9102Y39339D01*
X9040Y39314D01*
X8979Y39286D01*
X8921Y39253D01*
X8864Y39216D01*
X8860Y39212D01*
X8851Y39208D01*
X8835Y39196D01*
X8815Y39179D01*
X8794Y39159D01*
X8765Y39130D01*
X8737Y39101D01*
X8704Y39068D01*
X8671Y39028D01*
X8634Y38987D01*
X8569Y38892D01*
X8507Y38781D01*
X8454Y38654D01*
Y38650D01*
X8450Y38638D01*
X8442Y38618D01*
X8437Y38593D01*
X8429Y38560D01*
X8417Y38523D01*
X8409Y38478D01*
X8396Y38433D01*
X8384Y38380D01*
X8376Y38322D01*
X8355Y38199D01*
X8343Y38068D01*
X8339Y37929D01*
Y37925D01*
Y37908D01*
Y37884D01*
X8343Y37847D01*
Y37806D01*
X8347Y37756D01*
X8351Y37703D01*
X8355Y37642D01*
X8364Y37576D01*
X8372Y37510D01*
X8396Y37367D01*
X8433Y37224D01*
X8478Y37084D01*
Y37080D01*
X8486Y37068D01*
X8495Y37051D01*
X8503Y37027D01*
X8519Y36994D01*
X8540Y36961D01*
X8585Y36883D01*
X8647Y36793D01*
X8720Y36707D01*
X8811Y36621D01*
X8860Y36584D01*
X8913Y36547D01*
X8917D01*
X8925Y36539D01*
X8942Y36531D01*
X8966Y36518D01*
X8995Y36506D01*
X9028Y36490D01*
X9065Y36477D01*
X9106Y36461D01*
X9200Y36428D01*
X9311Y36399D01*
X9430Y36379D01*
X9491Y36375D01*
X9557Y36371D01*
X9598D01*
X9626Y36375D01*
X9663Y36379D01*
X9704Y36383D01*
X9753Y36391D01*
X9803Y36399D01*
X9917Y36428D01*
X9975Y36449D01*
X10036Y36473D01*
X10098Y36502D01*
X10155Y36535D01*
X10213Y36572D01*
X10270Y36613D01*
X10274Y36617D01*
X10282Y36625D01*
X10299Y36637D01*
X10319Y36658D01*
X10340Y36682D01*
X10368Y36715D01*
X10397Y36752D01*
X10430Y36793D01*
X10463Y36842D01*
X10496Y36895D01*
X10528Y36953D01*
X10561Y37018D01*
X10590Y37088D01*
X10619Y37166D01*
X10647Y37248D01*
X10668Y37334D01*
X11168Y37207D01*
Y37199D01*
X11160Y37178D01*
X11152Y37150D01*
X11135Y37105D01*
X11119Y37055D01*
X11094Y36994D01*
X11069Y36928D01*
X11037Y36859D01*
X11000Y36781D01*
X10959Y36707D01*
X10914Y36625D01*
X10860Y36547D01*
X10803Y36473D01*
X10741Y36399D01*
X10672Y36330D01*
X10598Y36264D01*
X10594Y36260D01*
X10577Y36252D01*
X10557Y36235D01*
X10524Y36215D01*
X10487Y36190D01*
X10438Y36162D01*
X10385Y36133D01*
X10319Y36104D01*
X10250Y36075D01*
X10176Y36047D01*
X10094Y36018D01*
X10003Y35993D01*
X9909Y35973D01*
X9811Y35957D01*
X9708Y35948D01*
X9598Y35944D01*
X9540D01*
X9495Y35948D01*
X9446Y35952D01*
X9384Y35957D01*
X9319Y35965D01*
X9245Y35977D01*
X9167Y35989D01*
X9085Y36006D01*
X9003Y36026D01*
X8921Y36047D01*
X8835Y36075D01*
X8753Y36108D01*
X8675Y36145D01*
X8601Y36190D01*
X8597Y36194D01*
X8585Y36203D01*
X8564Y36215D01*
X8540Y36235D01*
X8507Y36264D01*
X8470Y36293D01*
X8429Y36330D01*
X8384Y36375D01*
X8339Y36424D01*
X8290Y36477D01*
X8245Y36535D01*
X8195Y36600D01*
X8146Y36670D01*
X8101Y36744D01*
X8060Y36826D01*
X8019Y36912D01*
X8015Y36916D01*
X8011Y36932D01*
X8003Y36961D01*
X7990Y36994D01*
X7974Y37039D01*
X7958Y37088D01*
X7941Y37150D01*
X7921Y37215D01*
X7904Y37289D01*
X7884Y37367D01*
X7867Y37449D01*
X7855Y37539D01*
X7830Y37728D01*
X7826Y37826D01*
X7822Y37925D01*
Y37933D01*
Y37949D01*
Y37982D01*
X7826Y38023D01*
X7830Y38076D01*
X7835Y38138D01*
X7843Y38203D01*
X7851Y38277D01*
X7863Y38355D01*
X7876Y38437D01*
X7917Y38613D01*
X7945Y38699D01*
X7974Y38786D01*
X8007Y38876D01*
X8048Y38958D01*
X8052Y38962D01*
X8060Y38978D01*
X8072Y38999D01*
X8089Y39032D01*
X8113Y39068D01*
X8142Y39110D01*
X8175Y39155D01*
X8212Y39208D01*
X8257Y39257D01*
X8302Y39314D01*
X8355Y39368D01*
X8413Y39425D01*
X8474Y39478D01*
X8540Y39532D01*
X8614Y39581D01*
X8687Y39626D01*
X8692Y39630D01*
X8708Y39634D01*
X8728Y39647D01*
X8761Y39663D01*
X8798Y39679D01*
X8847Y39700D01*
X8901Y39720D01*
X8958Y39741D01*
X9024Y39761D01*
X9098Y39782D01*
X9171Y39802D01*
X9253Y39819D01*
X9421Y39847D01*
X9511Y39852D01*
X9606Y39856D01*
X9659D01*
X9700Y39852D01*
D02*
G37*
G36*
X15879Y39798D02*
X15924Y39794D01*
X15977Y39786D01*
X16039Y39778D01*
X16100Y39766D01*
X16170Y39749D01*
X16240Y39729D01*
X16314Y39704D01*
X16383Y39675D01*
X16457Y39638D01*
X16527Y39597D01*
X16592Y39552D01*
X16654Y39499D01*
X16658Y39495D01*
X16666Y39487D01*
X16682Y39466D01*
X16703Y39446D01*
X16727Y39417D01*
X16756Y39380D01*
X16785Y39339D01*
X16814Y39290D01*
X16842Y39241D01*
X16871Y39183D01*
X16900Y39122D01*
X16924Y39056D01*
X16945Y38982D01*
X16961Y38909D01*
X16970Y38831D01*
X16974Y38749D01*
Y38745D01*
Y38741D01*
Y38728D01*
Y38712D01*
X16970Y38667D01*
X16961Y38609D01*
X16949Y38540D01*
X16933Y38466D01*
X16912Y38384D01*
X16879Y38302D01*
Y38298D01*
X16875Y38294D01*
X16871Y38281D01*
X16863Y38265D01*
X16838Y38220D01*
X16805Y38162D01*
X16760Y38093D01*
X16707Y38015D01*
X16646Y37933D01*
X16568Y37843D01*
X16564Y37839D01*
X16559Y37830D01*
X16543Y37818D01*
X16527Y37797D01*
X16502Y37773D01*
X16473Y37744D01*
X16441Y37707D01*
X16399Y37670D01*
X16350Y37625D01*
X16297Y37576D01*
X16240Y37519D01*
X16174Y37461D01*
X16104Y37396D01*
X16026Y37330D01*
X15940Y37256D01*
X15850Y37178D01*
X15846Y37174D01*
X15834Y37162D01*
X15809Y37146D01*
X15785Y37121D01*
X15748Y37092D01*
X15711Y37060D01*
X15625Y36986D01*
X15534Y36908D01*
X15448Y36826D01*
X15407Y36789D01*
X15370Y36756D01*
X15338Y36723D01*
X15313Y36699D01*
X15309Y36695D01*
X15292Y36678D01*
X15272Y36654D01*
X15243Y36621D01*
X15211Y36584D01*
X15178Y36543D01*
X15112Y36453D01*
X16978D01*
Y36006D01*
X14473D01*
Y36014D01*
Y36035D01*
Y36067D01*
X14477Y36108D01*
X14481Y36158D01*
X14493Y36211D01*
X14505Y36268D01*
X14526Y36326D01*
Y36330D01*
X14530Y36338D01*
X14534Y36350D01*
X14542Y36371D01*
X14555Y36391D01*
X14567Y36420D01*
X14600Y36485D01*
X14641Y36563D01*
X14694Y36650D01*
X14755Y36740D01*
X14829Y36830D01*
X14833Y36834D01*
X14838Y36842D01*
X14850Y36854D01*
X14870Y36875D01*
X14891Y36895D01*
X14920Y36924D01*
X14948Y36957D01*
X14985Y36994D01*
X15026Y37035D01*
X15071Y37076D01*
X15120Y37125D01*
X15178Y37174D01*
X15235Y37228D01*
X15301Y37281D01*
X15366Y37338D01*
X15440Y37400D01*
X15448Y37404D01*
X15469Y37424D01*
X15498Y37449D01*
X15539Y37486D01*
X15588Y37527D01*
X15645Y37576D01*
X15711Y37629D01*
X15776Y37691D01*
X15916Y37818D01*
X16051Y37953D01*
X16117Y38019D01*
X16178Y38085D01*
X16231Y38146D01*
X16277Y38203D01*
X16281Y38208D01*
X16285Y38216D01*
X16297Y38232D01*
X16309Y38253D01*
X16330Y38281D01*
X16346Y38310D01*
X16387Y38384D01*
X16428Y38470D01*
X16465Y38564D01*
X16490Y38663D01*
X16494Y38712D01*
X16498Y38761D01*
Y38765D01*
Y38773D01*
Y38790D01*
X16494Y38806D01*
Y38831D01*
X16486Y38859D01*
X16473Y38921D01*
X16449Y38995D01*
X16412Y39073D01*
X16391Y39114D01*
X16363Y39151D01*
X16334Y39187D01*
X16297Y39224D01*
X16293Y39228D01*
X16289Y39233D01*
X16277Y39241D01*
X16260Y39253D01*
X16240Y39269D01*
X16215Y39286D01*
X16158Y39323D01*
X16080Y39355D01*
X15994Y39388D01*
X15891Y39409D01*
X15834Y39417D01*
X15743D01*
X15719Y39413D01*
X15690D01*
X15657Y39405D01*
X15584Y39392D01*
X15498Y39368D01*
X15407Y39331D01*
X15362Y39306D01*
X15317Y39282D01*
X15276Y39249D01*
X15235Y39212D01*
X15231Y39208D01*
X15227Y39204D01*
X15219Y39191D01*
X15202Y39175D01*
X15190Y39155D01*
X15174Y39130D01*
X15153Y39101D01*
X15137Y39068D01*
X15116Y39032D01*
X15100Y38991D01*
X15067Y38892D01*
X15042Y38786D01*
X15038Y38724D01*
X15034Y38658D01*
X14559Y38708D01*
Y38716D01*
X14563Y38732D01*
X14567Y38757D01*
X14571Y38794D01*
X14579Y38839D01*
X14592Y38892D01*
X14604Y38950D01*
X14624Y39011D01*
X14645Y39073D01*
X14669Y39142D01*
X14702Y39208D01*
X14735Y39274D01*
X14776Y39343D01*
X14821Y39405D01*
X14870Y39466D01*
X14928Y39520D01*
X14932Y39524D01*
X14944Y39532D01*
X14961Y39544D01*
X14985Y39565D01*
X15018Y39585D01*
X15059Y39610D01*
X15104Y39634D01*
X15157Y39663D01*
X15215Y39688D01*
X15280Y39712D01*
X15350Y39737D01*
X15428Y39757D01*
X15510Y39778D01*
X15596Y39790D01*
X15690Y39798D01*
X15789Y39802D01*
X15842D01*
X15879Y39798D01*
D02*
G37*
G36*
X13345Y36006D02*
X12882D01*
Y38962D01*
X12874Y38954D01*
X12853Y38933D01*
X12816Y38905D01*
X12763Y38864D01*
X12701Y38814D01*
X12623Y38761D01*
X12537Y38704D01*
X12439Y38642D01*
X12435D01*
X12427Y38634D01*
X12414Y38626D01*
X12394Y38618D01*
X12369Y38601D01*
X12341Y38589D01*
X12275Y38552D01*
X12201Y38515D01*
X12119Y38474D01*
X12033Y38437D01*
X11951Y38404D01*
Y38851D01*
X11955Y38855D01*
X11967Y38859D01*
X11988Y38872D01*
X12017Y38884D01*
X12049Y38900D01*
X12090Y38925D01*
X12136Y38950D01*
X12181Y38974D01*
X12287Y39040D01*
X12402Y39118D01*
X12521Y39200D01*
X12632Y39294D01*
X12636Y39298D01*
X12644Y39306D01*
X12660Y39319D01*
X12681Y39339D01*
X12701Y39364D01*
X12730Y39388D01*
X12791Y39458D01*
X12861Y39532D01*
X12931Y39618D01*
X12992Y39708D01*
X13046Y39802D01*
X13345D01*
Y36006D01*
D02*
G37*
G36*
X-48748Y7252D02*
X-48699Y7248D01*
X-48642Y7239D01*
X-48580Y7231D01*
X-48511Y7219D01*
X-48437Y7202D01*
X-48359Y7186D01*
X-48281Y7161D01*
X-48199Y7133D01*
X-48117Y7100D01*
X-48039Y7059D01*
X-47961Y7018D01*
X-47888Y6965D01*
X-47883Y6961D01*
X-47871Y6952D01*
X-47850Y6936D01*
X-47826Y6911D01*
X-47793Y6883D01*
X-47756Y6846D01*
X-47719Y6805D01*
X-47674Y6756D01*
X-47629Y6702D01*
X-47584Y6641D01*
X-47539Y6575D01*
X-47498Y6501D01*
X-47453Y6423D01*
X-47416Y6337D01*
X-47379Y6247D01*
X-47346Y6153D01*
X-47838Y6038D01*
Y6042D01*
X-47846Y6054D01*
X-47850Y6079D01*
X-47863Y6108D01*
X-47875Y6140D01*
X-47896Y6177D01*
X-47937Y6268D01*
X-47990Y6366D01*
X-48060Y6469D01*
X-48133Y6563D01*
X-48179Y6604D01*
X-48224Y6641D01*
X-48228Y6645D01*
X-48236Y6649D01*
X-48248Y6657D01*
X-48269Y6669D01*
X-48293Y6686D01*
X-48322Y6702D01*
X-48355Y6719D01*
X-48396Y6735D01*
X-48441Y6751D01*
X-48486Y6768D01*
X-48593Y6801D01*
X-48716Y6821D01*
X-48781Y6829D01*
X-48892D01*
X-48925Y6825D01*
X-48962Y6821D01*
X-49007Y6817D01*
X-49056Y6813D01*
X-49105Y6805D01*
X-49224Y6776D01*
X-49347Y6739D01*
X-49409Y6714D01*
X-49470Y6686D01*
X-49527Y6653D01*
X-49585Y6616D01*
X-49589Y6612D01*
X-49597Y6608D01*
X-49613Y6596D01*
X-49634Y6579D01*
X-49655Y6559D01*
X-49683Y6530D01*
X-49712Y6501D01*
X-49745Y6469D01*
X-49778Y6427D01*
X-49814Y6386D01*
X-49880Y6292D01*
X-49942Y6182D01*
X-49995Y6054D01*
Y6050D01*
X-49999Y6038D01*
X-50007Y6018D01*
X-50011Y5993D01*
X-50020Y5960D01*
X-50032Y5923D01*
X-50040Y5878D01*
X-50052Y5833D01*
X-50065Y5780D01*
X-50073Y5722D01*
X-50093Y5599D01*
X-50106Y5468D01*
X-50110Y5329D01*
Y5325D01*
Y5308D01*
Y5284D01*
X-50106Y5247D01*
Y5206D01*
X-50101Y5156D01*
X-50097Y5103D01*
X-50093Y5042D01*
X-50085Y4976D01*
X-50077Y4910D01*
X-50052Y4767D01*
X-50015Y4623D01*
X-49970Y4484D01*
Y4480D01*
X-49962Y4468D01*
X-49954Y4451D01*
X-49946Y4427D01*
X-49929Y4394D01*
X-49909Y4361D01*
X-49864Y4283D01*
X-49802Y4193D01*
X-49728Y4107D01*
X-49638Y4021D01*
X-49589Y3984D01*
X-49536Y3947D01*
X-49531D01*
X-49523Y3939D01*
X-49507Y3931D01*
X-49482Y3918D01*
X-49454Y3906D01*
X-49421Y3890D01*
X-49384Y3877D01*
X-49343Y3861D01*
X-49249Y3828D01*
X-49138Y3799D01*
X-49019Y3779D01*
X-48957Y3775D01*
X-48892Y3771D01*
X-48851D01*
X-48822Y3775D01*
X-48785Y3779D01*
X-48744Y3783D01*
X-48695Y3791D01*
X-48646Y3799D01*
X-48531Y3828D01*
X-48474Y3849D01*
X-48412Y3873D01*
X-48351Y3902D01*
X-48293Y3935D01*
X-48236Y3972D01*
X-48179Y4013D01*
X-48175Y4017D01*
X-48166Y4025D01*
X-48150Y4037D01*
X-48129Y4058D01*
X-48109Y4082D01*
X-48080Y4115D01*
X-48051Y4152D01*
X-48019Y4193D01*
X-47986Y4242D01*
X-47953Y4295D01*
X-47920Y4353D01*
X-47888Y4419D01*
X-47859Y4488D01*
X-47830Y4566D01*
X-47801Y4648D01*
X-47781Y4734D01*
X-47281Y4607D01*
Y4599D01*
X-47289Y4578D01*
X-47297Y4550D01*
X-47313Y4505D01*
X-47330Y4455D01*
X-47355Y4394D01*
X-47379Y4328D01*
X-47412Y4259D01*
X-47449Y4181D01*
X-47490Y4107D01*
X-47535Y4025D01*
X-47588Y3947D01*
X-47646Y3873D01*
X-47707Y3799D01*
X-47777Y3730D01*
X-47850Y3664D01*
X-47855Y3660D01*
X-47871Y3652D01*
X-47892Y3635D01*
X-47924Y3615D01*
X-47961Y3590D01*
X-48010Y3562D01*
X-48064Y3533D01*
X-48129Y3504D01*
X-48199Y3475D01*
X-48273Y3447D01*
X-48355Y3418D01*
X-48445Y3393D01*
X-48539Y3373D01*
X-48638Y3357D01*
X-48740Y3348D01*
X-48851Y3344D01*
X-48908D01*
X-48953Y3348D01*
X-49003Y3353D01*
X-49064Y3357D01*
X-49130Y3365D01*
X-49204Y3377D01*
X-49281Y3389D01*
X-49363Y3406D01*
X-49445Y3426D01*
X-49527Y3447D01*
X-49613Y3475D01*
X-49696Y3508D01*
X-49773Y3545D01*
X-49847Y3590D01*
X-49851Y3594D01*
X-49864Y3603D01*
X-49884Y3615D01*
X-49909Y3635D01*
X-49942Y3664D01*
X-49978Y3693D01*
X-50020Y3730D01*
X-50065Y3775D01*
X-50110Y3824D01*
X-50159Y3877D01*
X-50204Y3935D01*
X-50253Y4000D01*
X-50302Y4070D01*
X-50347Y4144D01*
X-50388Y4226D01*
X-50429Y4312D01*
X-50434Y4316D01*
X-50438Y4332D01*
X-50446Y4361D01*
X-50458Y4394D01*
X-50475Y4439D01*
X-50491Y4488D01*
X-50507Y4550D01*
X-50528Y4615D01*
X-50544Y4689D01*
X-50565Y4767D01*
X-50581Y4849D01*
X-50594Y4939D01*
X-50618Y5128D01*
X-50622Y5226D01*
X-50626Y5325D01*
Y5333D01*
Y5349D01*
Y5382D01*
X-50622Y5423D01*
X-50618Y5476D01*
X-50614Y5538D01*
X-50606Y5603D01*
X-50598Y5677D01*
X-50585Y5755D01*
X-50573Y5837D01*
X-50532Y6013D01*
X-50503Y6100D01*
X-50475Y6186D01*
X-50442Y6276D01*
X-50401Y6358D01*
X-50397Y6362D01*
X-50388Y6378D01*
X-50376Y6399D01*
X-50360Y6432D01*
X-50335Y6469D01*
X-50306Y6509D01*
X-50274Y6555D01*
X-50237Y6608D01*
X-50192Y6657D01*
X-50147Y6714D01*
X-50093Y6768D01*
X-50036Y6825D01*
X-49974Y6878D01*
X-49909Y6932D01*
X-49835Y6981D01*
X-49761Y7026D01*
X-49757Y7030D01*
X-49741Y7034D01*
X-49720Y7047D01*
X-49687Y7063D01*
X-49650Y7079D01*
X-49601Y7100D01*
X-49548Y7120D01*
X-49491Y7141D01*
X-49425Y7161D01*
X-49351Y7182D01*
X-49277Y7202D01*
X-49195Y7219D01*
X-49027Y7248D01*
X-48937Y7252D01*
X-48843Y7256D01*
X-48789D01*
X-48748Y7252D01*
D02*
G37*
G36*
X-44374Y6776D02*
X-44378Y6772D01*
X-44390Y6760D01*
X-44411Y6735D01*
X-44435Y6706D01*
X-44468Y6665D01*
X-44509Y6620D01*
X-44550Y6567D01*
X-44599Y6505D01*
X-44653Y6436D01*
X-44710Y6358D01*
X-44771Y6272D01*
X-44833Y6182D01*
X-44894Y6087D01*
X-44960Y5981D01*
X-45030Y5870D01*
X-45095Y5755D01*
X-45099Y5747D01*
X-45112Y5726D01*
X-45128Y5694D01*
X-45153Y5644D01*
X-45182Y5587D01*
X-45218Y5517D01*
X-45255Y5439D01*
X-45296Y5353D01*
X-45337Y5259D01*
X-45382Y5156D01*
X-45427Y5046D01*
X-45473Y4935D01*
X-45518Y4816D01*
X-45563Y4693D01*
X-45641Y4443D01*
Y4439D01*
X-45645Y4423D01*
X-45653Y4394D01*
X-45661Y4361D01*
X-45673Y4316D01*
X-45686Y4263D01*
X-45702Y4201D01*
X-45714Y4136D01*
X-45731Y4062D01*
X-45743Y3980D01*
X-45760Y3894D01*
X-45772Y3804D01*
X-45788Y3709D01*
X-45801Y3611D01*
X-45817Y3406D01*
X-46292D01*
Y3410D01*
Y3426D01*
Y3451D01*
X-46288Y3484D01*
X-46284Y3529D01*
X-46280Y3578D01*
X-46276Y3639D01*
X-46268Y3705D01*
X-46260Y3783D01*
X-46247Y3861D01*
X-46235Y3951D01*
X-46219Y4045D01*
X-46198Y4148D01*
X-46178Y4254D01*
X-46149Y4365D01*
X-46120Y4480D01*
X-46116Y4488D01*
X-46112Y4509D01*
X-46104Y4541D01*
X-46088Y4587D01*
X-46071Y4644D01*
X-46051Y4714D01*
X-46026Y4787D01*
X-45997Y4870D01*
X-45965Y4960D01*
X-45928Y5058D01*
X-45891Y5161D01*
X-45846Y5263D01*
X-45751Y5480D01*
X-45641Y5702D01*
X-45636Y5710D01*
X-45624Y5726D01*
X-45608Y5759D01*
X-45587Y5800D01*
X-45555Y5849D01*
X-45522Y5907D01*
X-45481Y5972D01*
X-45440Y6046D01*
X-45391Y6120D01*
X-45337Y6202D01*
X-45222Y6366D01*
X-45099Y6534D01*
X-45034Y6616D01*
X-44968Y6694D01*
X-46821D01*
Y7141D01*
X-44374D01*
Y6776D01*
D02*
G37*
G36*
X79904Y-21181D02*
X79949Y-21185D01*
X79999Y-21193D01*
X80056Y-21202D01*
X80122Y-21214D01*
X80187Y-21230D01*
X80261Y-21251D01*
X80335Y-21275D01*
X80409Y-21304D01*
X80482Y-21337D01*
X80560Y-21378D01*
X80634Y-21423D01*
X80704Y-21476D01*
X80708Y-21480D01*
X80724Y-21493D01*
X80745Y-21513D01*
X80774Y-21542D01*
X80810Y-21579D01*
X80847Y-21624D01*
X80892Y-21677D01*
X80933Y-21739D01*
X80974Y-21804D01*
X81020Y-21878D01*
X81056Y-21960D01*
X81089Y-22050D01*
X81122Y-22145D01*
X81142Y-22247D01*
X81159Y-22354D01*
X81163Y-22468D01*
Y-22518D01*
X81159Y-22555D01*
X81155Y-22600D01*
X81147Y-22649D01*
X81138Y-22706D01*
X81126Y-22768D01*
X81114Y-22833D01*
X81093Y-22903D01*
X81069Y-22973D01*
X81040Y-23043D01*
X81007Y-23112D01*
X80970Y-23182D01*
X80925Y-23247D01*
X80876Y-23313D01*
X80872Y-23317D01*
X80864Y-23325D01*
X80847Y-23342D01*
X80823Y-23362D01*
X80794Y-23391D01*
X80761Y-23420D01*
X80720Y-23448D01*
X80671Y-23481D01*
X80622Y-23514D01*
X80564Y-23547D01*
X80499Y-23575D01*
X80433Y-23604D01*
X80359Y-23633D01*
X80282Y-23653D01*
X80195Y-23670D01*
X80109Y-23682D01*
X80072Y-23194D01*
X80076D01*
X80089Y-23190D01*
X80105Y-23186D01*
X80130Y-23182D01*
X80159Y-23178D01*
X80195Y-23166D01*
X80273Y-23145D01*
X80359Y-23112D01*
X80450Y-23067D01*
X80532Y-23014D01*
X80568Y-22981D01*
X80605Y-22948D01*
Y-22944D01*
X80614Y-22940D01*
X80622Y-22928D01*
X80634Y-22911D01*
X80663Y-22870D01*
X80691Y-22813D01*
X80724Y-22743D01*
X80753Y-22661D01*
X80774Y-22571D01*
X80778Y-22522D01*
X80782Y-22468D01*
Y-22436D01*
X80778Y-22411D01*
X80774Y-22382D01*
X80769Y-22350D01*
X80749Y-22272D01*
X80720Y-22182D01*
X80700Y-22136D01*
X80675Y-22087D01*
X80646Y-22038D01*
X80614Y-21993D01*
X80577Y-21948D01*
X80532Y-21903D01*
X80528Y-21899D01*
X80519Y-21894D01*
X80507Y-21882D01*
X80487Y-21866D01*
X80458Y-21849D01*
X80429Y-21829D01*
X80392Y-21808D01*
X80351Y-21784D01*
X80306Y-21763D01*
X80257Y-21743D01*
X80199Y-21722D01*
X80142Y-21706D01*
X80076Y-21689D01*
X80007Y-21677D01*
X79937Y-21673D01*
X79859Y-21669D01*
X79855D01*
X79843D01*
X79822D01*
X79794Y-21673D01*
X79761Y-21677D01*
X79720Y-21681D01*
X79679Y-21689D01*
X79630Y-21698D01*
X79531Y-21722D01*
X79425Y-21763D01*
X79375Y-21788D01*
X79326Y-21821D01*
X79277Y-21854D01*
X79232Y-21894D01*
X79228Y-21899D01*
X79224Y-21903D01*
X79211Y-21919D01*
X79195Y-21936D01*
X79179Y-21956D01*
X79158Y-21985D01*
X79138Y-22013D01*
X79113Y-22050D01*
X79093Y-22091D01*
X79072Y-22132D01*
X79035Y-22235D01*
X79019Y-22288D01*
X79006Y-22350D01*
X79002Y-22411D01*
X78998Y-22477D01*
Y-22514D01*
X79002Y-22559D01*
X79010Y-22612D01*
X79023Y-22678D01*
X79043Y-22747D01*
X79068Y-22817D01*
X79105Y-22887D01*
X79109Y-22895D01*
X79121Y-22915D01*
X79146Y-22948D01*
X79175Y-22989D01*
X79216Y-23030D01*
X79261Y-23079D01*
X79314Y-23124D01*
X79371Y-23166D01*
X79310Y-23600D01*
X77366Y-23235D01*
Y-21353D01*
X77809D01*
Y-22866D01*
X78826Y-23067D01*
X78822Y-23063D01*
X78814Y-23051D01*
X78806Y-23034D01*
X78789Y-23010D01*
X78773Y-22977D01*
X78752Y-22940D01*
X78728Y-22899D01*
X78707Y-22850D01*
X78687Y-22801D01*
X78662Y-22743D01*
X78625Y-22624D01*
X78609Y-22559D01*
X78596Y-22493D01*
X78592Y-22423D01*
X78588Y-22354D01*
Y-22333D01*
X78592Y-22305D01*
Y-22272D01*
X78601Y-22231D01*
X78605Y-22182D01*
X78617Y-22124D01*
X78629Y-22067D01*
X78650Y-22001D01*
X78670Y-21936D01*
X78699Y-21866D01*
X78732Y-21796D01*
X78773Y-21726D01*
X78818Y-21657D01*
X78871Y-21587D01*
X78933Y-21521D01*
X78937Y-21517D01*
X78949Y-21505D01*
X78970Y-21489D01*
X78994Y-21468D01*
X79027Y-21439D01*
X79072Y-21411D01*
X79117Y-21382D01*
X79170Y-21349D01*
X79232Y-21316D01*
X79302Y-21288D01*
X79371Y-21255D01*
X79453Y-21230D01*
X79535Y-21210D01*
X79625Y-21193D01*
X79720Y-21181D01*
X79818Y-21177D01*
X79822D01*
X79843D01*
X79867D01*
X79904Y-21181D01*
D02*
G37*
G36*
X79646Y-24334D02*
X79699Y-24338D01*
X79761Y-24342D01*
X79830Y-24346D01*
X79974Y-24363D01*
X80126Y-24383D01*
X80273Y-24416D01*
X80343Y-24437D01*
X80409Y-24461D01*
X80413D01*
X80425Y-24465D01*
X80441Y-24473D01*
X80466Y-24486D01*
X80495Y-24502D01*
X80528Y-24519D01*
X80601Y-24568D01*
X80646Y-24596D01*
X80687Y-24629D01*
X80737Y-24670D01*
X80782Y-24711D01*
X80827Y-24760D01*
X80872Y-24810D01*
X80913Y-24867D01*
X80954Y-24928D01*
X80958Y-24933D01*
X80962Y-24945D01*
X80974Y-24961D01*
X80987Y-24990D01*
X81003Y-25023D01*
X81020Y-25064D01*
X81040Y-25109D01*
X81056Y-25166D01*
X81077Y-25224D01*
X81097Y-25289D01*
X81114Y-25363D01*
X81130Y-25441D01*
X81142Y-25527D01*
X81155Y-25617D01*
X81159Y-25712D01*
X81163Y-25810D01*
Y-25863D01*
X81159Y-25900D01*
Y-25945D01*
X81155Y-25995D01*
X81147Y-26056D01*
X81138Y-26118D01*
X81118Y-26257D01*
X81085Y-26405D01*
X81040Y-26548D01*
X81015Y-26618D01*
X80983Y-26683D01*
X80979Y-26687D01*
X80974Y-26700D01*
X80962Y-26716D01*
X80950Y-26737D01*
X80929Y-26765D01*
X80905Y-26798D01*
X80880Y-26831D01*
X80847Y-26868D01*
X80774Y-26950D01*
X80683Y-27028D01*
X80577Y-27101D01*
X80515Y-27134D01*
X80454Y-27163D01*
X80450D01*
X80437Y-27167D01*
X80417Y-27175D01*
X80388Y-27183D01*
X80355Y-27196D01*
X80310Y-27208D01*
X80261Y-27220D01*
X80204Y-27233D01*
X80138Y-27249D01*
X80068Y-27261D01*
X79990Y-27274D01*
X79904Y-27282D01*
X79814Y-27294D01*
X79716Y-27298D01*
X79613Y-27307D01*
X79502D01*
X77317D01*
Y-26806D01*
X79502D01*
X79507D01*
X79523D01*
X79548D01*
X79584D01*
X79625Y-26802D01*
X79671D01*
X79724Y-26798D01*
X79777Y-26794D01*
X79896Y-26786D01*
X80015Y-26769D01*
X80130Y-26745D01*
X80183Y-26733D01*
X80228Y-26716D01*
X80232D01*
X80236Y-26712D01*
X80249Y-26708D01*
X80265Y-26700D01*
X80310Y-26675D01*
X80359Y-26642D01*
X80421Y-26601D01*
X80478Y-26548D01*
X80536Y-26482D01*
X80589Y-26405D01*
Y-26400D01*
X80593Y-26392D01*
X80601Y-26380D01*
X80610Y-26364D01*
X80618Y-26343D01*
X80626Y-26314D01*
X80638Y-26286D01*
X80651Y-26253D01*
X80671Y-26171D01*
X80691Y-26076D01*
X80708Y-25970D01*
X80712Y-25855D01*
Y-25802D01*
X80708Y-25765D01*
X80704Y-25720D01*
X80700Y-25666D01*
X80691Y-25609D01*
X80679Y-25548D01*
X80651Y-25420D01*
X80630Y-25355D01*
X80605Y-25289D01*
X80577Y-25228D01*
X80544Y-25170D01*
X80507Y-25117D01*
X80462Y-25068D01*
X80458Y-25064D01*
X80450Y-25056D01*
X80433Y-25047D01*
X80413Y-25031D01*
X80384Y-25015D01*
X80347Y-24994D01*
X80302Y-24970D01*
X80249Y-24949D01*
X80187Y-24928D01*
X80117Y-24904D01*
X80040Y-24883D01*
X79953Y-24867D01*
X79855Y-24851D01*
X79748Y-24838D01*
X79630Y-24834D01*
X79502Y-24830D01*
X77317D01*
Y-24330D01*
X79502D01*
X79511D01*
X79527D01*
X79556D01*
X79597D01*
X79646Y-24334D01*
D02*
G37*
G36*
X-93033Y-32114D02*
X-91615Y-34098D01*
X-92225D01*
X-93185Y-32749D01*
X-93189Y-32745D01*
X-93197Y-32729D01*
X-93214Y-32708D01*
X-93234Y-32676D01*
X-93259Y-32643D01*
X-93283Y-32606D01*
X-93341Y-32520D01*
Y-32524D01*
X-93345Y-32528D01*
X-93361Y-32553D01*
X-93382Y-32585D01*
X-93410Y-32626D01*
X-93472Y-32713D01*
X-93497Y-32754D01*
X-93521Y-32786D01*
X-94481Y-34098D01*
X-95083D01*
X-93620Y-32138D01*
X-94911Y-30314D01*
X-94317D01*
X-93624Y-31286D01*
X-93620Y-31290D01*
X-93615Y-31298D01*
X-93603Y-31314D01*
X-93587Y-31335D01*
X-93570Y-31359D01*
X-93550Y-31388D01*
X-93505Y-31454D01*
X-93455Y-31532D01*
X-93406Y-31605D01*
X-93357Y-31683D01*
X-93320Y-31749D01*
Y-31745D01*
X-93316Y-31741D01*
X-93308Y-31729D01*
X-93296Y-31712D01*
X-93271Y-31675D01*
X-93234Y-31622D01*
X-93189Y-31556D01*
X-93140Y-31482D01*
X-93078Y-31405D01*
X-93017Y-31323D01*
X-92262Y-30314D01*
X-91717D01*
X-93033Y-32114D01*
D02*
G37*
G36*
X-90016Y-30306D02*
X-89970Y-30310D01*
X-89917Y-30318D01*
X-89856Y-30326D01*
X-89794Y-30339D01*
X-89724Y-30355D01*
X-89655Y-30375D01*
X-89581Y-30400D01*
X-89511Y-30429D01*
X-89438Y-30466D01*
X-89368Y-30507D01*
X-89302Y-30552D01*
X-89241Y-30605D01*
X-89237Y-30609D01*
X-89228Y-30617D01*
X-89212Y-30638D01*
X-89192Y-30658D01*
X-89167Y-30687D01*
X-89138Y-30724D01*
X-89109Y-30765D01*
X-89081Y-30814D01*
X-89052Y-30863D01*
X-89023Y-30921D01*
X-88995Y-30982D01*
X-88970Y-31048D01*
X-88950Y-31122D01*
X-88933Y-31196D01*
X-88925Y-31273D01*
X-88921Y-31355D01*
Y-31359D01*
Y-31364D01*
Y-31376D01*
Y-31392D01*
X-88925Y-31437D01*
X-88933Y-31495D01*
X-88946Y-31565D01*
X-88962Y-31638D01*
X-88982Y-31720D01*
X-89015Y-31802D01*
Y-31806D01*
X-89019Y-31811D01*
X-89023Y-31823D01*
X-89032Y-31839D01*
X-89056Y-31884D01*
X-89089Y-31942D01*
X-89134Y-32011D01*
X-89187Y-32089D01*
X-89249Y-32171D01*
X-89327Y-32261D01*
X-89331Y-32266D01*
X-89335Y-32274D01*
X-89351Y-32286D01*
X-89368Y-32307D01*
X-89392Y-32331D01*
X-89421Y-32360D01*
X-89454Y-32397D01*
X-89495Y-32434D01*
X-89544Y-32479D01*
X-89597Y-32528D01*
X-89655Y-32585D01*
X-89720Y-32643D01*
X-89790Y-32708D01*
X-89868Y-32774D01*
X-89954Y-32848D01*
X-90044Y-32926D01*
X-90048Y-32930D01*
X-90061Y-32942D01*
X-90085Y-32958D01*
X-90110Y-32983D01*
X-90147Y-33012D01*
X-90184Y-33045D01*
X-90270Y-33118D01*
X-90360Y-33196D01*
X-90446Y-33278D01*
X-90487Y-33315D01*
X-90524Y-33348D01*
X-90557Y-33381D01*
X-90581Y-33405D01*
X-90586Y-33410D01*
X-90602Y-33426D01*
X-90622Y-33450D01*
X-90651Y-33483D01*
X-90684Y-33520D01*
X-90717Y-33561D01*
X-90782Y-33651D01*
X-88917D01*
Y-34098D01*
X-91422D01*
Y-34090D01*
Y-34070D01*
Y-34037D01*
X-91418Y-33996D01*
X-91414Y-33947D01*
X-91401Y-33893D01*
X-91389Y-33836D01*
X-91369Y-33779D01*
Y-33774D01*
X-91365Y-33766D01*
X-91360Y-33754D01*
X-91352Y-33733D01*
X-91340Y-33713D01*
X-91328Y-33684D01*
X-91295Y-33619D01*
X-91254Y-33541D01*
X-91201Y-33455D01*
X-91139Y-33364D01*
X-91065Y-33274D01*
X-91061Y-33270D01*
X-91057Y-33262D01*
X-91045Y-33250D01*
X-91024Y-33229D01*
X-91004Y-33209D01*
X-90975Y-33180D01*
X-90946Y-33147D01*
X-90909Y-33110D01*
X-90868Y-33069D01*
X-90823Y-33028D01*
X-90774Y-32979D01*
X-90717Y-32930D01*
X-90659Y-32877D01*
X-90594Y-32823D01*
X-90528Y-32766D01*
X-90454Y-32704D01*
X-90446Y-32700D01*
X-90426Y-32680D01*
X-90397Y-32655D01*
X-90356Y-32618D01*
X-90307Y-32577D01*
X-90249Y-32528D01*
X-90184Y-32475D01*
X-90118Y-32413D01*
X-89979Y-32286D01*
X-89843Y-32151D01*
X-89778Y-32085D01*
X-89716Y-32020D01*
X-89663Y-31958D01*
X-89618Y-31901D01*
X-89614Y-31897D01*
X-89610Y-31888D01*
X-89597Y-31872D01*
X-89585Y-31852D01*
X-89565Y-31823D01*
X-89548Y-31794D01*
X-89507Y-31720D01*
X-89466Y-31634D01*
X-89429Y-31540D01*
X-89405Y-31442D01*
X-89401Y-31392D01*
X-89397Y-31343D01*
Y-31339D01*
Y-31331D01*
Y-31314D01*
X-89401Y-31298D01*
Y-31273D01*
X-89409Y-31245D01*
X-89421Y-31183D01*
X-89446Y-31109D01*
X-89483Y-31032D01*
X-89503Y-30990D01*
X-89532Y-30954D01*
X-89561Y-30917D01*
X-89597Y-30880D01*
X-89601Y-30876D01*
X-89606Y-30872D01*
X-89618Y-30863D01*
X-89634Y-30851D01*
X-89655Y-30835D01*
X-89679Y-30818D01*
X-89737Y-30781D01*
X-89815Y-30749D01*
X-89901Y-30716D01*
X-90003Y-30695D01*
X-90061Y-30687D01*
X-90151D01*
X-90175Y-30691D01*
X-90204D01*
X-90237Y-30699D01*
X-90311Y-30712D01*
X-90397Y-30736D01*
X-90487Y-30773D01*
X-90532Y-30798D01*
X-90577Y-30822D01*
X-90618Y-30855D01*
X-90659Y-30892D01*
X-90663Y-30896D01*
X-90667Y-30900D01*
X-90676Y-30913D01*
X-90692Y-30929D01*
X-90704Y-30950D01*
X-90721Y-30974D01*
X-90741Y-31003D01*
X-90758Y-31036D01*
X-90778Y-31073D01*
X-90795Y-31113D01*
X-90827Y-31212D01*
X-90852Y-31319D01*
X-90856Y-31380D01*
X-90860Y-31446D01*
X-91336Y-31396D01*
Y-31388D01*
X-91332Y-31372D01*
X-91328Y-31347D01*
X-91324Y-31310D01*
X-91315Y-31265D01*
X-91303Y-31212D01*
X-91291Y-31155D01*
X-91270Y-31093D01*
X-91250Y-31032D01*
X-91225Y-30962D01*
X-91192Y-30896D01*
X-91159Y-30831D01*
X-91119Y-30761D01*
X-91073Y-30699D01*
X-91024Y-30638D01*
X-90967Y-30585D01*
X-90963Y-30580D01*
X-90950Y-30572D01*
X-90934Y-30560D01*
X-90909Y-30540D01*
X-90877Y-30519D01*
X-90836Y-30494D01*
X-90790Y-30470D01*
X-90737Y-30441D01*
X-90680Y-30417D01*
X-90614Y-30392D01*
X-90544Y-30367D01*
X-90467Y-30347D01*
X-90385Y-30326D01*
X-90298Y-30314D01*
X-90204Y-30306D01*
X-90106Y-30302D01*
X-90052D01*
X-90016Y-30306D01*
D02*
G37*
G36*
X19637Y15527D02*
X19666Y15523D01*
X19743Y15515D01*
X19829Y15498D01*
X19928Y15474D01*
X20026Y15441D01*
X20125Y15396D01*
X20129D01*
X20137Y15392D01*
X20149Y15383D01*
X20170Y15371D01*
X20215Y15342D01*
X20272Y15302D01*
X20338Y15248D01*
X20403Y15187D01*
X20469Y15117D01*
X20527Y15035D01*
Y15031D01*
X20531Y15027D01*
X20539Y15010D01*
X20547Y14994D01*
X20559Y14974D01*
X20572Y14949D01*
X20596Y14887D01*
X20621Y14814D01*
X20645Y14732D01*
X20662Y14641D01*
X20666Y14547D01*
Y14543D01*
Y14535D01*
Y14523D01*
Y14506D01*
X20658Y14457D01*
X20650Y14400D01*
X20633Y14330D01*
X20608Y14256D01*
X20576Y14178D01*
X20531Y14100D01*
Y14096D01*
X20527Y14092D01*
X20506Y14067D01*
X20477Y14030D01*
X20432Y13985D01*
X20379Y13932D01*
X20309Y13879D01*
X20231Y13830D01*
X20141Y13780D01*
X20145D01*
X20157Y13776D01*
X20174Y13772D01*
X20199Y13764D01*
X20223Y13756D01*
X20256Y13744D01*
X20334Y13711D01*
X20416Y13666D01*
X20502Y13612D01*
X20588Y13543D01*
X20662Y13456D01*
X20666Y13452D01*
X20670Y13444D01*
X20678Y13432D01*
X20691Y13411D01*
X20707Y13391D01*
X20723Y13362D01*
X20740Y13329D01*
X20756Y13288D01*
X20773Y13247D01*
X20789Y13202D01*
X20822Y13100D01*
X20842Y12981D01*
X20850Y12915D01*
Y12850D01*
Y12846D01*
Y12829D01*
X20846Y12800D01*
Y12768D01*
X20838Y12723D01*
X20830Y12673D01*
X20822Y12620D01*
X20805Y12559D01*
X20785Y12493D01*
X20760Y12427D01*
X20731Y12358D01*
X20695Y12288D01*
X20654Y12214D01*
X20604Y12145D01*
X20551Y12075D01*
X20485Y12009D01*
X20481Y12005D01*
X20469Y11993D01*
X20449Y11976D01*
X20420Y11956D01*
X20387Y11931D01*
X20342Y11903D01*
X20293Y11870D01*
X20235Y11841D01*
X20174Y11808D01*
X20104Y11776D01*
X20030Y11747D01*
X19948Y11722D01*
X19862Y11702D01*
X19772Y11685D01*
X19678Y11673D01*
X19575Y11669D01*
X19555D01*
X19526Y11673D01*
X19493D01*
X19448Y11677D01*
X19399Y11685D01*
X19346Y11693D01*
X19284Y11706D01*
X19219Y11722D01*
X19153Y11743D01*
X19083Y11763D01*
X19014Y11792D01*
X18944Y11829D01*
X18878Y11866D01*
X18809Y11911D01*
X18747Y11964D01*
X18743Y11968D01*
X18735Y11976D01*
X18718Y11993D01*
X18694Y12017D01*
X18669Y12046D01*
X18641Y12083D01*
X18612Y12124D01*
X18579Y12173D01*
X18546Y12222D01*
X18513Y12284D01*
X18481Y12345D01*
X18452Y12415D01*
X18427Y12489D01*
X18403Y12567D01*
X18386Y12649D01*
X18374Y12735D01*
X18837Y12796D01*
Y12792D01*
X18841Y12780D01*
X18846Y12760D01*
X18854Y12731D01*
X18862Y12698D01*
X18870Y12661D01*
X18899Y12575D01*
X18936Y12481D01*
X18981Y12386D01*
X19038Y12300D01*
X19071Y12263D01*
X19104Y12227D01*
X19108D01*
X19112Y12218D01*
X19124Y12210D01*
X19137Y12198D01*
X19178Y12173D01*
X19235Y12140D01*
X19305Y12108D01*
X19383Y12083D01*
X19477Y12062D01*
X19575Y12054D01*
X19608D01*
X19633Y12058D01*
X19657Y12062D01*
X19694Y12067D01*
X19768Y12083D01*
X19858Y12108D01*
X19952Y12149D01*
X19998Y12177D01*
X20043Y12206D01*
X20088Y12239D01*
X20133Y12280D01*
X20137Y12284D01*
X20141Y12292D01*
X20153Y12304D01*
X20170Y12321D01*
X20186Y12341D01*
X20203Y12370D01*
X20223Y12399D01*
X20248Y12436D01*
X20289Y12518D01*
X20322Y12612D01*
X20350Y12723D01*
X20354Y12780D01*
X20358Y12842D01*
Y12846D01*
Y12854D01*
Y12874D01*
X20354Y12895D01*
X20350Y12923D01*
X20346Y12952D01*
X20334Y13026D01*
X20305Y13112D01*
X20268Y13198D01*
X20244Y13243D01*
X20215Y13284D01*
X20182Y13325D01*
X20145Y13366D01*
X20141Y13370D01*
X20137Y13374D01*
X20125Y13387D01*
X20108Y13399D01*
X20088Y13416D01*
X20063Y13432D01*
X20002Y13473D01*
X19924Y13510D01*
X19834Y13543D01*
X19731Y13567D01*
X19674Y13571D01*
X19616Y13575D01*
X19592D01*
X19563Y13571D01*
X19526D01*
X19477Y13563D01*
X19424Y13555D01*
X19358Y13543D01*
X19288Y13526D01*
X19338Y13932D01*
X19346D01*
X19366Y13928D01*
X19391Y13924D01*
X19444D01*
X19465Y13928D01*
X19493D01*
X19522Y13932D01*
X19592Y13944D01*
X19674Y13961D01*
X19764Y13990D01*
X19858Y14026D01*
X19948Y14080D01*
X19952D01*
X19961Y14088D01*
X19969Y14096D01*
X19985Y14108D01*
X20026Y14145D01*
X20071Y14199D01*
X20112Y14264D01*
X20153Y14346D01*
X20170Y14391D01*
X20178Y14445D01*
X20186Y14498D01*
X20190Y14555D01*
Y14559D01*
Y14568D01*
Y14580D01*
X20186Y14600D01*
X20182Y14646D01*
X20170Y14707D01*
X20149Y14773D01*
X20117Y14842D01*
X20071Y14916D01*
X20047Y14949D01*
X20014Y14982D01*
X20006Y14990D01*
X19981Y15006D01*
X19944Y15035D01*
X19895Y15068D01*
X19829Y15097D01*
X19752Y15125D01*
X19666Y15142D01*
X19567Y15150D01*
X19543D01*
X19522Y15146D01*
X19497D01*
X19473Y15142D01*
X19407Y15129D01*
X19338Y15109D01*
X19260Y15076D01*
X19186Y15035D01*
X19112Y14978D01*
X19104Y14969D01*
X19083Y14945D01*
X19050Y14908D01*
X19018Y14851D01*
X18977Y14781D01*
X18940Y14691D01*
X18907Y14588D01*
X18882Y14469D01*
X18419Y14551D01*
Y14555D01*
X18423Y14572D01*
X18427Y14596D01*
X18436Y14629D01*
X18448Y14666D01*
X18460Y14711D01*
X18476Y14760D01*
X18497Y14814D01*
X18550Y14932D01*
X18579Y14990D01*
X18616Y15051D01*
X18657Y15109D01*
X18702Y15166D01*
X18751Y15224D01*
X18804Y15273D01*
X18809Y15277D01*
X18817Y15285D01*
X18837Y15297D01*
X18858Y15314D01*
X18891Y15334D01*
X18923Y15355D01*
X18964Y15379D01*
X19014Y15404D01*
X19063Y15425D01*
X19120Y15449D01*
X19182Y15470D01*
X19247Y15490D01*
X19321Y15507D01*
X19395Y15519D01*
X19473Y15527D01*
X19555Y15531D01*
X19608D01*
X19637Y15527D01*
D02*
G37*
G36*
X17726Y13333D02*
Y13325D01*
Y13309D01*
Y13280D01*
Y13239D01*
X17722Y13190D01*
X17718Y13137D01*
X17714Y13075D01*
X17710Y13005D01*
X17693Y12862D01*
X17673Y12710D01*
X17640Y12563D01*
X17620Y12493D01*
X17595Y12427D01*
Y12423D01*
X17591Y12411D01*
X17583Y12395D01*
X17570Y12370D01*
X17554Y12341D01*
X17538Y12308D01*
X17488Y12235D01*
X17460Y12190D01*
X17427Y12149D01*
X17386Y12099D01*
X17345Y12054D01*
X17296Y12009D01*
X17246Y11964D01*
X17189Y11923D01*
X17128Y11882D01*
X17123Y11878D01*
X17111Y11874D01*
X17095Y11862D01*
X17066Y11849D01*
X17033Y11833D01*
X16992Y11817D01*
X16947Y11796D01*
X16890Y11780D01*
X16832Y11759D01*
X16767Y11739D01*
X16693Y11722D01*
X16615Y11706D01*
X16529Y11693D01*
X16439Y11681D01*
X16344Y11677D01*
X16246Y11673D01*
X16193D01*
X16156Y11677D01*
X16111D01*
X16062Y11681D01*
X16000Y11689D01*
X15939Y11698D01*
X15799Y11718D01*
X15652Y11751D01*
X15508Y11796D01*
X15438Y11821D01*
X15373Y11853D01*
X15369Y11857D01*
X15356Y11862D01*
X15340Y11874D01*
X15319Y11886D01*
X15291Y11907D01*
X15258Y11931D01*
X15225Y11956D01*
X15188Y11989D01*
X15106Y12062D01*
X15028Y12153D01*
X14955Y12259D01*
X14922Y12321D01*
X14893Y12382D01*
Y12386D01*
X14889Y12399D01*
X14881Y12419D01*
X14873Y12448D01*
X14860Y12481D01*
X14848Y12526D01*
X14836Y12575D01*
X14823Y12632D01*
X14807Y12698D01*
X14795Y12768D01*
X14782Y12846D01*
X14774Y12932D01*
X14762Y13022D01*
X14758Y13120D01*
X14750Y13223D01*
Y13333D01*
Y15519D01*
X15250D01*
Y13333D01*
Y13329D01*
Y13313D01*
Y13288D01*
Y13251D01*
X15254Y13210D01*
Y13165D01*
X15258Y13112D01*
X15262Y13059D01*
X15270Y12940D01*
X15287Y12821D01*
X15311Y12706D01*
X15324Y12653D01*
X15340Y12608D01*
Y12604D01*
X15344Y12600D01*
X15348Y12587D01*
X15356Y12571D01*
X15381Y12526D01*
X15414Y12477D01*
X15455Y12415D01*
X15508Y12358D01*
X15574Y12300D01*
X15652Y12247D01*
X15656D01*
X15664Y12243D01*
X15676Y12235D01*
X15693Y12227D01*
X15713Y12218D01*
X15742Y12210D01*
X15770Y12198D01*
X15803Y12185D01*
X15885Y12165D01*
X15980Y12145D01*
X16086Y12128D01*
X16201Y12124D01*
X16254D01*
X16291Y12128D01*
X16336Y12132D01*
X16390Y12136D01*
X16447Y12145D01*
X16509Y12157D01*
X16636Y12185D01*
X16701Y12206D01*
X16767Y12231D01*
X16828Y12259D01*
X16886Y12292D01*
X16939Y12329D01*
X16988Y12374D01*
X16992Y12378D01*
X17000Y12386D01*
X17009Y12403D01*
X17025Y12423D01*
X17041Y12452D01*
X17062Y12489D01*
X17087Y12534D01*
X17107Y12587D01*
X17128Y12649D01*
X17152Y12719D01*
X17173Y12796D01*
X17189Y12882D01*
X17206Y12981D01*
X17218Y13088D01*
X17222Y13206D01*
X17226Y13333D01*
Y15519D01*
X17726D01*
Y13333D01*
D02*
G37*
G36*
X73613Y23586D02*
X75032Y21602D01*
X74421D01*
X73462Y22951D01*
X73457Y22955D01*
X73449Y22971D01*
X73433Y22992D01*
X73412Y23024D01*
X73388Y23057D01*
X73363Y23094D01*
X73306Y23180D01*
Y23176D01*
X73302Y23172D01*
X73285Y23147D01*
X73265Y23115D01*
X73236Y23074D01*
X73175Y22987D01*
X73150Y22946D01*
X73125Y22914D01*
X72166Y21602D01*
X71563D01*
X73027Y23562D01*
X71736Y25386D01*
X72330D01*
X73023Y24414D01*
X73027Y24410D01*
X73031Y24402D01*
X73043Y24386D01*
X73060Y24365D01*
X73076Y24340D01*
X73097Y24312D01*
X73142Y24246D01*
X73191Y24168D01*
X73240Y24094D01*
X73289Y24017D01*
X73326Y23951D01*
Y23955D01*
X73330Y23959D01*
X73339Y23971D01*
X73351Y23988D01*
X73375Y24025D01*
X73412Y24078D01*
X73457Y24144D01*
X73507Y24217D01*
X73568Y24295D01*
X73630Y24377D01*
X74384Y25386D01*
X74929D01*
X73613Y23586D01*
D02*
G37*
G36*
X77037Y21602D02*
X76573D01*
Y24558D01*
X76565Y24550D01*
X76545Y24529D01*
X76508Y24500D01*
X76455Y24459D01*
X76393Y24410D01*
X76315Y24357D01*
X76229Y24299D01*
X76131Y24238D01*
X76126D01*
X76118Y24230D01*
X76106Y24222D01*
X76086Y24213D01*
X76061Y24197D01*
X76032Y24185D01*
X75967Y24148D01*
X75893Y24111D01*
X75811Y24070D01*
X75725Y24033D01*
X75643Y24000D01*
Y24447D01*
X75647Y24451D01*
X75659Y24455D01*
X75680Y24468D01*
X75708Y24480D01*
X75741Y24496D01*
X75782Y24521D01*
X75827Y24545D01*
X75872Y24570D01*
X75979Y24636D01*
X76094Y24714D01*
X76213Y24796D01*
X76323Y24890D01*
X76327Y24894D01*
X76336Y24902D01*
X76352Y24915D01*
X76373Y24935D01*
X76393Y24960D01*
X76422Y24984D01*
X76483Y25054D01*
X76553Y25128D01*
X76623Y25214D01*
X76684Y25304D01*
X76737Y25398D01*
X77037D01*
Y21602D01*
D02*
G37*
G36*
X47752Y-10846D02*
X47801Y-10850D01*
X47858Y-10859D01*
X47920Y-10867D01*
X47989Y-10879D01*
X48063Y-10896D01*
X48141Y-10912D01*
X48219Y-10937D01*
X48301Y-10965D01*
X48383Y-10998D01*
X48461Y-11039D01*
X48539Y-11080D01*
X48612Y-11133D01*
X48617Y-11137D01*
X48629Y-11146D01*
X48649Y-11162D01*
X48674Y-11187D01*
X48707Y-11215D01*
X48744Y-11252D01*
X48781Y-11293D01*
X48826Y-11342D01*
X48871Y-11396D01*
X48916Y-11457D01*
X48961Y-11523D01*
X49002Y-11597D01*
X49047Y-11675D01*
X49084Y-11761D01*
X49121Y-11851D01*
X49154Y-11945D01*
X48662Y-12060D01*
Y-12056D01*
X48654Y-12044D01*
X48649Y-12019D01*
X48637Y-11990D01*
X48625Y-11958D01*
X48604Y-11921D01*
X48563Y-11830D01*
X48510Y-11732D01*
X48440Y-11629D01*
X48367Y-11535D01*
X48321Y-11494D01*
X48276Y-11457D01*
X48272Y-11453D01*
X48264Y-11449D01*
X48252Y-11441D01*
X48231Y-11428D01*
X48207Y-11412D01*
X48178Y-11396D01*
X48145Y-11379D01*
X48104Y-11363D01*
X48059Y-11347D01*
X48014Y-11330D01*
X47907Y-11297D01*
X47784Y-11277D01*
X47719Y-11269D01*
X47608D01*
X47575Y-11273D01*
X47538Y-11277D01*
X47493Y-11281D01*
X47444Y-11285D01*
X47395Y-11293D01*
X47276Y-11322D01*
X47153Y-11359D01*
X47091Y-11383D01*
X47030Y-11412D01*
X46973Y-11445D01*
X46915Y-11482D01*
X46911Y-11486D01*
X46903Y-11490D01*
X46887Y-11502D01*
X46866Y-11519D01*
X46845Y-11539D01*
X46817Y-11568D01*
X46788Y-11597D01*
X46755Y-11629D01*
X46722Y-11670D01*
X46686Y-11711D01*
X46620Y-11806D01*
X46558Y-11917D01*
X46505Y-12044D01*
Y-12048D01*
X46501Y-12060D01*
X46493Y-12081D01*
X46489Y-12105D01*
X46481Y-12138D01*
X46468Y-12175D01*
X46460Y-12220D01*
X46448Y-12265D01*
X46435Y-12318D01*
X46427Y-12376D01*
X46407Y-12499D01*
X46395Y-12630D01*
X46390Y-12769D01*
Y-12773D01*
Y-12790D01*
Y-12814D01*
X46395Y-12851D01*
Y-12892D01*
X46399Y-12942D01*
X46403Y-12995D01*
X46407Y-13056D01*
X46415Y-13122D01*
X46423Y-13187D01*
X46448Y-13331D01*
X46485Y-13474D01*
X46530Y-13614D01*
Y-13618D01*
X46538Y-13630D01*
X46546Y-13647D01*
X46554Y-13671D01*
X46571Y-13704D01*
X46591Y-13737D01*
X46636Y-13815D01*
X46698Y-13905D01*
X46772Y-13991D01*
X46862Y-14077D01*
X46911Y-14114D01*
X46964Y-14151D01*
X46968D01*
X46977Y-14159D01*
X46993Y-14167D01*
X47018Y-14180D01*
X47046Y-14192D01*
X47079Y-14208D01*
X47116Y-14221D01*
X47157Y-14237D01*
X47251Y-14270D01*
X47362Y-14299D01*
X47481Y-14319D01*
X47543Y-14323D01*
X47608Y-14327D01*
X47649D01*
X47678Y-14323D01*
X47715Y-14319D01*
X47756Y-14315D01*
X47805Y-14307D01*
X47854Y-14299D01*
X47969Y-14270D01*
X48026Y-14249D01*
X48088Y-14225D01*
X48149Y-14196D01*
X48207Y-14163D01*
X48264Y-14126D01*
X48321Y-14085D01*
X48325Y-14081D01*
X48334Y-14073D01*
X48350Y-14061D01*
X48371Y-14040D01*
X48391Y-14016D01*
X48420Y-13983D01*
X48449Y-13946D01*
X48481Y-13905D01*
X48514Y-13856D01*
X48547Y-13802D01*
X48580Y-13745D01*
X48612Y-13679D01*
X48641Y-13610D01*
X48670Y-13532D01*
X48699Y-13450D01*
X48719Y-13364D01*
X49219Y-13491D01*
Y-13499D01*
X49211Y-13520D01*
X49203Y-13548D01*
X49187Y-13593D01*
X49170Y-13643D01*
X49145Y-13704D01*
X49121Y-13770D01*
X49088Y-13839D01*
X49051Y-13917D01*
X49010Y-13991D01*
X48965Y-14073D01*
X48912Y-14151D01*
X48855Y-14225D01*
X48793Y-14299D01*
X48723Y-14368D01*
X48649Y-14434D01*
X48645Y-14438D01*
X48629Y-14446D01*
X48608Y-14462D01*
X48576Y-14483D01*
X48539Y-14508D01*
X48490Y-14536D01*
X48436Y-14565D01*
X48371Y-14594D01*
X48301Y-14623D01*
X48227Y-14651D01*
X48145Y-14680D01*
X48055Y-14704D01*
X47961Y-14725D01*
X47862Y-14741D01*
X47760Y-14750D01*
X47649Y-14754D01*
X47592D01*
X47547Y-14750D01*
X47497Y-14745D01*
X47436Y-14741D01*
X47370Y-14733D01*
X47296Y-14721D01*
X47218Y-14708D01*
X47137Y-14692D01*
X47055Y-14672D01*
X46973Y-14651D01*
X46887Y-14623D01*
X46804Y-14590D01*
X46727Y-14553D01*
X46653Y-14508D01*
X46649Y-14504D01*
X46636Y-14495D01*
X46616Y-14483D01*
X46591Y-14462D01*
X46558Y-14434D01*
X46522Y-14405D01*
X46481Y-14368D01*
X46435Y-14323D01*
X46390Y-14274D01*
X46341Y-14221D01*
X46296Y-14163D01*
X46247Y-14098D01*
X46198Y-14028D01*
X46153Y-13954D01*
X46112Y-13872D01*
X46071Y-13786D01*
X46066Y-13782D01*
X46062Y-13766D01*
X46054Y-13737D01*
X46042Y-13704D01*
X46025Y-13659D01*
X46009Y-13610D01*
X45993Y-13548D01*
X45972Y-13483D01*
X45956Y-13409D01*
X45935Y-13331D01*
X45919Y-13249D01*
X45906Y-13159D01*
X45882Y-12970D01*
X45878Y-12872D01*
X45874Y-12773D01*
Y-12765D01*
Y-12749D01*
Y-12716D01*
X45878Y-12675D01*
X45882Y-12622D01*
X45886Y-12560D01*
X45894Y-12494D01*
X45902Y-12421D01*
X45915Y-12343D01*
X45927Y-12261D01*
X45968Y-12085D01*
X45997Y-11998D01*
X46025Y-11912D01*
X46058Y-11822D01*
X46099Y-11740D01*
X46103Y-11736D01*
X46112Y-11720D01*
X46124Y-11699D01*
X46140Y-11666D01*
X46165Y-11629D01*
X46194Y-11588D01*
X46226Y-11543D01*
X46263Y-11490D01*
X46308Y-11441D01*
X46353Y-11383D01*
X46407Y-11330D01*
X46464Y-11273D01*
X46526Y-11220D01*
X46591Y-11166D01*
X46665Y-11117D01*
X46739Y-11072D01*
X46743Y-11068D01*
X46759Y-11064D01*
X46780Y-11051D01*
X46813Y-11035D01*
X46850Y-11019D01*
X46899Y-10998D01*
X46952Y-10977D01*
X47009Y-10957D01*
X47075Y-10937D01*
X47149Y-10916D01*
X47223Y-10896D01*
X47305Y-10879D01*
X47473Y-10850D01*
X47563Y-10846D01*
X47657Y-10842D01*
X47711D01*
X47752Y-10846D01*
D02*
G37*
G36*
X50913Y-10900D02*
X50941Y-10904D01*
X51019Y-10912D01*
X51105Y-10928D01*
X51204Y-10953D01*
X51302Y-10986D01*
X51401Y-11031D01*
X51405D01*
X51413Y-11035D01*
X51425Y-11043D01*
X51446Y-11056D01*
X51491Y-11084D01*
X51548Y-11125D01*
X51614Y-11178D01*
X51679Y-11240D01*
X51745Y-11310D01*
X51802Y-11392D01*
Y-11396D01*
X51806Y-11400D01*
X51815Y-11416D01*
X51823Y-11433D01*
X51835Y-11453D01*
X51847Y-11478D01*
X51872Y-11539D01*
X51897Y-11613D01*
X51921Y-11695D01*
X51938Y-11785D01*
X51942Y-11880D01*
Y-11884D01*
Y-11892D01*
Y-11904D01*
Y-11921D01*
X51934Y-11970D01*
X51925Y-12027D01*
X51909Y-12097D01*
X51884Y-12171D01*
X51851Y-12249D01*
X51806Y-12326D01*
Y-12331D01*
X51802Y-12335D01*
X51782Y-12359D01*
X51753Y-12396D01*
X51708Y-12441D01*
X51655Y-12494D01*
X51585Y-12548D01*
X51507Y-12597D01*
X51417Y-12646D01*
X51421D01*
X51433Y-12650D01*
X51450Y-12654D01*
X51474Y-12663D01*
X51499Y-12671D01*
X51532Y-12683D01*
X51610Y-12716D01*
X51692Y-12761D01*
X51778Y-12814D01*
X51864Y-12884D01*
X51938Y-12970D01*
X51942Y-12974D01*
X51946Y-12982D01*
X51954Y-12995D01*
X51966Y-13015D01*
X51983Y-13036D01*
X51999Y-13064D01*
X52016Y-13097D01*
X52032Y-13138D01*
X52048Y-13179D01*
X52065Y-13224D01*
X52098Y-13327D01*
X52118Y-13446D01*
X52126Y-13511D01*
Y-13577D01*
Y-13581D01*
Y-13598D01*
X52122Y-13626D01*
Y-13659D01*
X52114Y-13704D01*
X52106Y-13753D01*
X52098Y-13806D01*
X52081Y-13868D01*
X52061Y-13934D01*
X52036Y-13999D01*
X52007Y-14069D01*
X51970Y-14139D01*
X51929Y-14212D01*
X51880Y-14282D01*
X51827Y-14352D01*
X51761Y-14417D01*
X51757Y-14422D01*
X51745Y-14434D01*
X51724Y-14450D01*
X51696Y-14471D01*
X51663Y-14495D01*
X51618Y-14524D01*
X51569Y-14557D01*
X51511Y-14586D01*
X51450Y-14618D01*
X51380Y-14651D01*
X51306Y-14680D01*
X51224Y-14704D01*
X51138Y-14725D01*
X51048Y-14741D01*
X50954Y-14754D01*
X50851Y-14758D01*
X50831D01*
X50802Y-14754D01*
X50769D01*
X50724Y-14750D01*
X50675Y-14741D01*
X50622Y-14733D01*
X50560Y-14721D01*
X50494Y-14704D01*
X50429Y-14684D01*
X50359Y-14663D01*
X50289Y-14635D01*
X50220Y-14598D01*
X50154Y-14561D01*
X50084Y-14516D01*
X50023Y-14462D01*
X50019Y-14458D01*
X50011Y-14450D01*
X49994Y-14434D01*
X49970Y-14409D01*
X49945Y-14380D01*
X49916Y-14344D01*
X49888Y-14303D01*
X49855Y-14254D01*
X49822Y-14204D01*
X49789Y-14143D01*
X49757Y-14081D01*
X49728Y-14011D01*
X49703Y-13938D01*
X49679Y-13860D01*
X49662Y-13778D01*
X49650Y-13692D01*
X50113Y-13630D01*
Y-13634D01*
X50117Y-13647D01*
X50121Y-13667D01*
X50130Y-13696D01*
X50138Y-13729D01*
X50146Y-13766D01*
X50175Y-13852D01*
X50212Y-13946D01*
X50257Y-14040D01*
X50314Y-14126D01*
X50347Y-14163D01*
X50380Y-14200D01*
X50384D01*
X50388Y-14208D01*
X50400Y-14217D01*
X50412Y-14229D01*
X50453Y-14254D01*
X50511Y-14286D01*
X50581Y-14319D01*
X50658Y-14344D01*
X50753Y-14364D01*
X50851Y-14372D01*
X50884D01*
X50909Y-14368D01*
X50933Y-14364D01*
X50970Y-14360D01*
X51044Y-14344D01*
X51134Y-14319D01*
X51228Y-14278D01*
X51274Y-14249D01*
X51319Y-14221D01*
X51364Y-14188D01*
X51409Y-14147D01*
X51413Y-14143D01*
X51417Y-14134D01*
X51429Y-14122D01*
X51446Y-14106D01*
X51462Y-14085D01*
X51478Y-14057D01*
X51499Y-14028D01*
X51524Y-13991D01*
X51565Y-13909D01*
X51597Y-13815D01*
X51626Y-13704D01*
X51630Y-13647D01*
X51634Y-13585D01*
Y-13581D01*
Y-13573D01*
Y-13552D01*
X51630Y-13532D01*
X51626Y-13503D01*
X51622Y-13474D01*
X51610Y-13401D01*
X51581Y-13315D01*
X51544Y-13228D01*
X51519Y-13183D01*
X51491Y-13142D01*
X51458Y-13101D01*
X51421Y-13060D01*
X51417Y-13056D01*
X51413Y-13052D01*
X51401Y-13040D01*
X51384Y-13027D01*
X51364Y-13011D01*
X51339Y-12995D01*
X51278Y-12954D01*
X51200Y-12917D01*
X51109Y-12884D01*
X51007Y-12859D01*
X50950Y-12855D01*
X50892Y-12851D01*
X50867D01*
X50839Y-12855D01*
X50802D01*
X50753Y-12864D01*
X50700Y-12872D01*
X50634Y-12884D01*
X50564Y-12900D01*
X50613Y-12494D01*
X50622D01*
X50642Y-12499D01*
X50667Y-12503D01*
X50720D01*
X50740Y-12499D01*
X50769D01*
X50798Y-12494D01*
X50867Y-12482D01*
X50950Y-12466D01*
X51040Y-12437D01*
X51134Y-12400D01*
X51224Y-12347D01*
X51228D01*
X51236Y-12339D01*
X51245Y-12331D01*
X51261Y-12318D01*
X51302Y-12281D01*
X51347Y-12228D01*
X51388Y-12162D01*
X51429Y-12081D01*
X51446Y-12035D01*
X51454Y-11982D01*
X51462Y-11929D01*
X51466Y-11871D01*
Y-11867D01*
Y-11859D01*
Y-11847D01*
X51462Y-11826D01*
X51458Y-11781D01*
X51446Y-11720D01*
X51425Y-11654D01*
X51392Y-11584D01*
X51347Y-11511D01*
X51323Y-11478D01*
X51290Y-11445D01*
X51282Y-11437D01*
X51257Y-11420D01*
X51220Y-11392D01*
X51171Y-11359D01*
X51105Y-11330D01*
X51027Y-11301D01*
X50941Y-11285D01*
X50843Y-11277D01*
X50818D01*
X50798Y-11281D01*
X50773D01*
X50749Y-11285D01*
X50683Y-11297D01*
X50613Y-11318D01*
X50535Y-11351D01*
X50462Y-11392D01*
X50388Y-11449D01*
X50380Y-11457D01*
X50359Y-11482D01*
X50326Y-11519D01*
X50293Y-11576D01*
X50253Y-11646D01*
X50216Y-11736D01*
X50183Y-11839D01*
X50158Y-11958D01*
X49695Y-11875D01*
Y-11871D01*
X49699Y-11855D01*
X49703Y-11830D01*
X49711Y-11797D01*
X49724Y-11761D01*
X49736Y-11716D01*
X49752Y-11666D01*
X49773Y-11613D01*
X49826Y-11494D01*
X49855Y-11437D01*
X49892Y-11375D01*
X49933Y-11318D01*
X49978Y-11260D01*
X50027Y-11203D01*
X50080Y-11154D01*
X50084Y-11150D01*
X50093Y-11141D01*
X50113Y-11129D01*
X50134Y-11113D01*
X50166Y-11092D01*
X50199Y-11072D01*
X50240Y-11047D01*
X50289Y-11023D01*
X50339Y-11002D01*
X50396Y-10977D01*
X50458Y-10957D01*
X50523Y-10937D01*
X50597Y-10920D01*
X50671Y-10908D01*
X50749Y-10900D01*
X50831Y-10896D01*
X50884D01*
X50913Y-10900D01*
D02*
G37*
G36*
X-21912Y7652D02*
X-21863Y7648D01*
X-21805Y7639D01*
X-21744Y7631D01*
X-21674Y7619D01*
X-21601Y7602D01*
X-21523Y7586D01*
X-21445Y7561D01*
X-21363Y7533D01*
X-21281Y7500D01*
X-21203Y7459D01*
X-21125Y7418D01*
X-21051Y7365D01*
X-21047Y7361D01*
X-21035Y7352D01*
X-21014Y7336D01*
X-20990Y7311D01*
X-20957Y7283D01*
X-20920Y7246D01*
X-20883Y7205D01*
X-20838Y7156D01*
X-20793Y7102D01*
X-20748Y7041D01*
X-20703Y6975D01*
X-20662Y6901D01*
X-20617Y6823D01*
X-20580Y6737D01*
X-20543Y6647D01*
X-20510Y6553D01*
X-21002Y6438D01*
Y6442D01*
X-21010Y6454D01*
X-21014Y6479D01*
X-21027Y6508D01*
X-21039Y6540D01*
X-21059Y6577D01*
X-21100Y6668D01*
X-21154Y6766D01*
X-21223Y6869D01*
X-21297Y6963D01*
X-21342Y7004D01*
X-21387Y7041D01*
X-21392Y7045D01*
X-21400Y7049D01*
X-21412Y7057D01*
X-21432Y7069D01*
X-21457Y7086D01*
X-21486Y7102D01*
X-21519Y7119D01*
X-21560Y7135D01*
X-21605Y7151D01*
X-21650Y7168D01*
X-21756Y7201D01*
X-21879Y7221D01*
X-21945Y7229D01*
X-22056D01*
X-22088Y7225D01*
X-22125Y7221D01*
X-22170Y7217D01*
X-22220Y7213D01*
X-22269Y7205D01*
X-22388Y7176D01*
X-22511Y7139D01*
X-22572Y7114D01*
X-22634Y7086D01*
X-22691Y7053D01*
X-22749Y7016D01*
X-22753Y7012D01*
X-22761Y7008D01*
X-22777Y6996D01*
X-22798Y6979D01*
X-22818Y6959D01*
X-22847Y6930D01*
X-22876Y6901D01*
X-22908Y6869D01*
X-22941Y6827D01*
X-22978Y6786D01*
X-23044Y6692D01*
X-23105Y6582D01*
X-23158Y6454D01*
Y6450D01*
X-23163Y6438D01*
X-23171Y6418D01*
X-23175Y6393D01*
X-23183Y6360D01*
X-23195Y6323D01*
X-23204Y6278D01*
X-23216Y6233D01*
X-23228Y6180D01*
X-23236Y6122D01*
X-23257Y5999D01*
X-23269Y5868D01*
X-23273Y5729D01*
Y5725D01*
Y5708D01*
Y5684D01*
X-23269Y5647D01*
Y5606D01*
X-23265Y5556D01*
X-23261Y5503D01*
X-23257Y5442D01*
X-23249Y5376D01*
X-23241Y5311D01*
X-23216Y5167D01*
X-23179Y5023D01*
X-23134Y4884D01*
Y4880D01*
X-23126Y4868D01*
X-23118Y4851D01*
X-23109Y4827D01*
X-23093Y4794D01*
X-23073Y4761D01*
X-23027Y4683D01*
X-22966Y4593D01*
X-22892Y4507D01*
X-22802Y4421D01*
X-22753Y4384D01*
X-22699Y4347D01*
X-22695D01*
X-22687Y4339D01*
X-22671Y4331D01*
X-22646Y4318D01*
X-22617Y4306D01*
X-22584Y4290D01*
X-22548Y4277D01*
X-22507Y4261D01*
X-22412Y4228D01*
X-22302Y4199D01*
X-22183Y4179D01*
X-22121Y4175D01*
X-22056Y4171D01*
X-22015D01*
X-21986Y4175D01*
X-21949Y4179D01*
X-21908Y4183D01*
X-21859Y4191D01*
X-21810Y4199D01*
X-21695Y4228D01*
X-21637Y4249D01*
X-21576Y4273D01*
X-21514Y4302D01*
X-21457Y4335D01*
X-21400Y4372D01*
X-21342Y4413D01*
X-21338Y4417D01*
X-21330Y4425D01*
X-21314Y4437D01*
X-21293Y4458D01*
X-21273Y4482D01*
X-21244Y4515D01*
X-21215Y4552D01*
X-21182Y4593D01*
X-21149Y4642D01*
X-21117Y4696D01*
X-21084Y4753D01*
X-21051Y4818D01*
X-21023Y4888D01*
X-20994Y4966D01*
X-20965Y5048D01*
X-20945Y5134D01*
X-20444Y5007D01*
Y4999D01*
X-20452Y4978D01*
X-20461Y4950D01*
X-20477Y4905D01*
X-20493Y4855D01*
X-20518Y4794D01*
X-20543Y4728D01*
X-20576Y4659D01*
X-20613Y4581D01*
X-20653Y4507D01*
X-20699Y4425D01*
X-20752Y4347D01*
X-20809Y4273D01*
X-20871Y4199D01*
X-20941Y4130D01*
X-21014Y4064D01*
X-21018Y4060D01*
X-21035Y4052D01*
X-21055Y4035D01*
X-21088Y4015D01*
X-21125Y3990D01*
X-21174Y3962D01*
X-21227Y3933D01*
X-21293Y3904D01*
X-21363Y3875D01*
X-21437Y3847D01*
X-21519Y3818D01*
X-21609Y3793D01*
X-21703Y3773D01*
X-21801Y3757D01*
X-21904Y3748D01*
X-22015Y3744D01*
X-22072D01*
X-22117Y3748D01*
X-22166Y3752D01*
X-22228Y3757D01*
X-22294Y3765D01*
X-22367Y3777D01*
X-22445Y3789D01*
X-22527Y3806D01*
X-22609Y3826D01*
X-22691Y3847D01*
X-22777Y3875D01*
X-22859Y3908D01*
X-22937Y3945D01*
X-23011Y3990D01*
X-23015Y3994D01*
X-23027Y4003D01*
X-23048Y4015D01*
X-23073Y4035D01*
X-23105Y4064D01*
X-23142Y4093D01*
X-23183Y4130D01*
X-23228Y4175D01*
X-23273Y4224D01*
X-23323Y4277D01*
X-23368Y4335D01*
X-23417Y4400D01*
X-23466Y4470D01*
X-23511Y4544D01*
X-23552Y4626D01*
X-23593Y4712D01*
X-23597Y4716D01*
X-23601Y4732D01*
X-23609Y4761D01*
X-23622Y4794D01*
X-23638Y4839D01*
X-23655Y4888D01*
X-23671Y4950D01*
X-23692Y5015D01*
X-23708Y5089D01*
X-23729Y5167D01*
X-23745Y5249D01*
X-23757Y5339D01*
X-23782Y5528D01*
X-23786Y5626D01*
X-23790Y5725D01*
Y5733D01*
Y5749D01*
Y5782D01*
X-23786Y5823D01*
X-23782Y5876D01*
X-23778Y5938D01*
X-23769Y6003D01*
X-23761Y6077D01*
X-23749Y6155D01*
X-23737Y6237D01*
X-23696Y6413D01*
X-23667Y6499D01*
X-23638Y6586D01*
X-23605Y6676D01*
X-23564Y6758D01*
X-23560Y6762D01*
X-23552Y6778D01*
X-23540Y6799D01*
X-23523Y6832D01*
X-23499Y6869D01*
X-23470Y6910D01*
X-23437Y6955D01*
X-23401Y7008D01*
X-23355Y7057D01*
X-23310Y7114D01*
X-23257Y7168D01*
X-23200Y7225D01*
X-23138Y7278D01*
X-23073Y7332D01*
X-22999Y7381D01*
X-22925Y7426D01*
X-22921Y7430D01*
X-22904Y7434D01*
X-22884Y7447D01*
X-22851Y7463D01*
X-22814Y7479D01*
X-22765Y7500D01*
X-22712Y7520D01*
X-22654Y7541D01*
X-22589Y7561D01*
X-22515Y7582D01*
X-22441Y7602D01*
X-22359Y7619D01*
X-22191Y7648D01*
X-22101Y7652D01*
X-22006Y7656D01*
X-21953D01*
X-21912Y7652D01*
D02*
G37*
G36*
X-18267Y3806D02*
X-18731D01*
Y6762D01*
X-18739Y6754D01*
X-18759Y6733D01*
X-18796Y6705D01*
X-18849Y6663D01*
X-18911Y6614D01*
X-18989Y6561D01*
X-19075Y6504D01*
X-19173Y6442D01*
X-19177D01*
X-19186Y6434D01*
X-19198Y6426D01*
X-19218Y6418D01*
X-19243Y6401D01*
X-19272Y6389D01*
X-19337Y6352D01*
X-19411Y6315D01*
X-19493Y6274D01*
X-19579Y6237D01*
X-19661Y6204D01*
Y6651D01*
X-19657Y6655D01*
X-19645Y6659D01*
X-19624Y6672D01*
X-19596Y6684D01*
X-19563Y6700D01*
X-19522Y6725D01*
X-19477Y6750D01*
X-19432Y6774D01*
X-19325Y6840D01*
X-19210Y6918D01*
X-19091Y7000D01*
X-18981Y7094D01*
X-18977Y7098D01*
X-18968Y7106D01*
X-18952Y7119D01*
X-18932Y7139D01*
X-18911Y7164D01*
X-18882Y7188D01*
X-18821Y7258D01*
X-18751Y7332D01*
X-18681Y7418D01*
X-18620Y7508D01*
X-18567Y7602D01*
X-18267D01*
Y3806D01*
D02*
G37*
G36*
X-15766Y7598D02*
X-15737Y7594D01*
X-15664Y7586D01*
X-15582Y7574D01*
X-15492Y7549D01*
X-15401Y7520D01*
X-15311Y7479D01*
X-15307D01*
X-15299Y7475D01*
X-15286Y7467D01*
X-15270Y7455D01*
X-15229Y7430D01*
X-15176Y7389D01*
X-15114Y7340D01*
X-15053Y7278D01*
X-14987Y7205D01*
X-14930Y7123D01*
Y7119D01*
X-14922Y7110D01*
X-14918Y7098D01*
X-14905Y7082D01*
X-14893Y7061D01*
X-14877Y7033D01*
X-14864Y7000D01*
X-14844Y6967D01*
X-14807Y6885D01*
X-14770Y6791D01*
X-14729Y6680D01*
X-14696Y6561D01*
Y6557D01*
X-14692Y6545D01*
X-14688Y6528D01*
X-14684Y6499D01*
X-14676Y6467D01*
X-14667Y6426D01*
X-14659Y6381D01*
X-14651Y6327D01*
X-14647Y6266D01*
X-14639Y6200D01*
X-14630Y6126D01*
X-14622Y6049D01*
X-14618Y5962D01*
X-14614Y5872D01*
X-14610Y5774D01*
Y5671D01*
Y5663D01*
Y5643D01*
Y5606D01*
Y5561D01*
X-14614Y5503D01*
X-14618Y5442D01*
X-14622Y5368D01*
X-14626Y5290D01*
X-14635Y5204D01*
X-14643Y5118D01*
X-14667Y4937D01*
X-14704Y4761D01*
X-14725Y4675D01*
X-14749Y4597D01*
Y4593D01*
X-14758Y4581D01*
X-14762Y4556D01*
X-14774Y4532D01*
X-14791Y4495D01*
X-14807Y4458D01*
X-14827Y4413D01*
X-14852Y4363D01*
X-14909Y4261D01*
X-14979Y4158D01*
X-15061Y4056D01*
X-15110Y4011D01*
X-15159Y3966D01*
X-15164Y3962D01*
X-15172Y3957D01*
X-15188Y3945D01*
X-15209Y3933D01*
X-15233Y3917D01*
X-15266Y3896D01*
X-15303Y3875D01*
X-15348Y3855D01*
X-15393Y3835D01*
X-15446Y3814D01*
X-15500Y3798D01*
X-15561Y3777D01*
X-15627Y3765D01*
X-15697Y3752D01*
X-15766Y3748D01*
X-15844Y3744D01*
X-15869D01*
X-15898Y3748D01*
X-15934Y3752D01*
X-15979Y3757D01*
X-16033Y3765D01*
X-16090Y3777D01*
X-16156Y3793D01*
X-16221Y3814D01*
X-16291Y3839D01*
X-16365Y3871D01*
X-16434Y3908D01*
X-16504Y3953D01*
X-16574Y4007D01*
X-16639Y4064D01*
X-16701Y4134D01*
X-16705Y4138D01*
X-16717Y4154D01*
X-16734Y4183D01*
X-16758Y4224D01*
X-16787Y4277D01*
X-16820Y4339D01*
X-16853Y4417D01*
X-16886Y4503D01*
X-16923Y4605D01*
X-16955Y4716D01*
X-16988Y4843D01*
X-17017Y4983D01*
X-17041Y5134D01*
X-17058Y5298D01*
X-17070Y5479D01*
X-17074Y5671D01*
Y5680D01*
Y5700D01*
Y5737D01*
X-17070Y5782D01*
Y5839D01*
X-17066Y5905D01*
X-17062Y5979D01*
X-17058Y6057D01*
X-17050Y6143D01*
X-17041Y6229D01*
X-17017Y6409D01*
X-16984Y6586D01*
X-16963Y6672D01*
X-16939Y6750D01*
Y6754D01*
X-16931Y6766D01*
X-16923Y6791D01*
X-16914Y6819D01*
X-16898Y6852D01*
X-16882Y6893D01*
X-16861Y6934D01*
X-16836Y6983D01*
X-16779Y7086D01*
X-16705Y7188D01*
X-16623Y7291D01*
X-16578Y7336D01*
X-16529Y7381D01*
X-16525Y7385D01*
X-16517Y7389D01*
X-16500Y7401D01*
X-16480Y7414D01*
X-16455Y7434D01*
X-16422Y7451D01*
X-16385Y7471D01*
X-16340Y7492D01*
X-16295Y7512D01*
X-16242Y7533D01*
X-16184Y7553D01*
X-16127Y7570D01*
X-16061Y7582D01*
X-15992Y7594D01*
X-15918Y7598D01*
X-15844Y7602D01*
X-15795D01*
X-15766Y7598D01*
D02*
G37*
G36*
X-18753Y26552D02*
X-18703Y26548D01*
X-18646Y26539D01*
X-18585Y26531D01*
X-18515Y26519D01*
X-18441Y26502D01*
X-18363Y26486D01*
X-18285Y26461D01*
X-18203Y26433D01*
X-18121Y26400D01*
X-18043Y26359D01*
X-17965Y26318D01*
X-17892Y26265D01*
X-17887Y26261D01*
X-17875Y26252D01*
X-17855Y26236D01*
X-17830Y26211D01*
X-17797Y26183D01*
X-17760Y26146D01*
X-17723Y26105D01*
X-17678Y26055D01*
X-17633Y26002D01*
X-17588Y25941D01*
X-17543Y25875D01*
X-17502Y25801D01*
X-17457Y25723D01*
X-17420Y25637D01*
X-17383Y25547D01*
X-17350Y25453D01*
X-17842Y25338D01*
Y25342D01*
X-17851Y25354D01*
X-17855Y25379D01*
X-17867Y25408D01*
X-17879Y25440D01*
X-17900Y25477D01*
X-17941Y25568D01*
X-17994Y25666D01*
X-18064Y25769D01*
X-18137Y25863D01*
X-18183Y25904D01*
X-18228Y25941D01*
X-18232Y25945D01*
X-18240Y25949D01*
X-18252Y25957D01*
X-18273Y25969D01*
X-18297Y25986D01*
X-18326Y26002D01*
X-18359Y26019D01*
X-18400Y26035D01*
X-18445Y26051D01*
X-18490Y26068D01*
X-18597Y26101D01*
X-18720Y26121D01*
X-18785Y26129D01*
X-18896D01*
X-18929Y26125D01*
X-18966Y26121D01*
X-19011Y26117D01*
X-19060Y26113D01*
X-19109Y26105D01*
X-19228Y26076D01*
X-19351Y26039D01*
X-19413Y26015D01*
X-19474Y25986D01*
X-19532Y25953D01*
X-19589Y25916D01*
X-19593Y25912D01*
X-19601Y25908D01*
X-19618Y25896D01*
X-19638Y25879D01*
X-19659Y25859D01*
X-19687Y25830D01*
X-19716Y25801D01*
X-19749Y25769D01*
X-19782Y25727D01*
X-19818Y25686D01*
X-19884Y25592D01*
X-19946Y25482D01*
X-19999Y25354D01*
Y25350D01*
X-20003Y25338D01*
X-20011Y25317D01*
X-20015Y25293D01*
X-20024Y25260D01*
X-20036Y25223D01*
X-20044Y25178D01*
X-20056Y25133D01*
X-20069Y25080D01*
X-20077Y25022D01*
X-20097Y24899D01*
X-20110Y24768D01*
X-20114Y24629D01*
Y24625D01*
Y24608D01*
Y24584D01*
X-20110Y24547D01*
Y24506D01*
X-20106Y24456D01*
X-20101Y24403D01*
X-20097Y24342D01*
X-20089Y24276D01*
X-20081Y24211D01*
X-20056Y24067D01*
X-20019Y23923D01*
X-19974Y23784D01*
Y23780D01*
X-19966Y23768D01*
X-19958Y23751D01*
X-19950Y23727D01*
X-19933Y23694D01*
X-19913Y23661D01*
X-19868Y23583D01*
X-19806Y23493D01*
X-19733Y23407D01*
X-19642Y23321D01*
X-19593Y23284D01*
X-19540Y23247D01*
X-19536D01*
X-19527Y23239D01*
X-19511Y23231D01*
X-19486Y23218D01*
X-19458Y23206D01*
X-19425Y23190D01*
X-19388Y23177D01*
X-19347Y23161D01*
X-19253Y23128D01*
X-19142Y23099D01*
X-19023Y23079D01*
X-18962Y23075D01*
X-18896Y23071D01*
X-18855D01*
X-18826Y23075D01*
X-18789Y23079D01*
X-18748Y23083D01*
X-18699Y23091D01*
X-18650Y23099D01*
X-18535Y23128D01*
X-18478Y23149D01*
X-18416Y23173D01*
X-18355Y23202D01*
X-18297Y23235D01*
X-18240Y23272D01*
X-18183Y23313D01*
X-18179Y23317D01*
X-18170Y23325D01*
X-18154Y23337D01*
X-18133Y23358D01*
X-18113Y23382D01*
X-18084Y23415D01*
X-18056Y23452D01*
X-18023Y23493D01*
X-17990Y23542D01*
X-17957Y23595D01*
X-17924Y23653D01*
X-17892Y23719D01*
X-17863Y23788D01*
X-17834Y23866D01*
X-17805Y23948D01*
X-17785Y24034D01*
X-17285Y23907D01*
Y23899D01*
X-17293Y23878D01*
X-17301Y23850D01*
X-17318Y23805D01*
X-17334Y23755D01*
X-17358Y23694D01*
X-17383Y23628D01*
X-17416Y23559D01*
X-17453Y23481D01*
X-17494Y23407D01*
X-17539Y23325D01*
X-17592Y23247D01*
X-17650Y23173D01*
X-17711Y23099D01*
X-17781Y23030D01*
X-17855Y22964D01*
X-17859Y22960D01*
X-17875Y22952D01*
X-17896Y22935D01*
X-17929Y22915D01*
X-17965Y22890D01*
X-18014Y22862D01*
X-18068Y22833D01*
X-18133Y22804D01*
X-18203Y22775D01*
X-18277Y22747D01*
X-18359Y22718D01*
X-18449Y22693D01*
X-18543Y22673D01*
X-18642Y22657D01*
X-18744Y22648D01*
X-18855Y22644D01*
X-18913D01*
X-18958Y22648D01*
X-19007Y22652D01*
X-19068Y22657D01*
X-19134Y22665D01*
X-19208Y22677D01*
X-19286Y22689D01*
X-19367Y22706D01*
X-19450Y22726D01*
X-19532Y22747D01*
X-19618Y22775D01*
X-19700Y22808D01*
X-19778Y22845D01*
X-19851Y22890D01*
X-19855Y22894D01*
X-19868Y22903D01*
X-19888Y22915D01*
X-19913Y22935D01*
X-19946Y22964D01*
X-19983Y22993D01*
X-20024Y23030D01*
X-20069Y23075D01*
X-20114Y23124D01*
X-20163Y23177D01*
X-20208Y23235D01*
X-20257Y23300D01*
X-20306Y23370D01*
X-20352Y23444D01*
X-20392Y23526D01*
X-20434Y23612D01*
X-20438Y23616D01*
X-20442Y23632D01*
X-20450Y23661D01*
X-20462Y23694D01*
X-20479Y23739D01*
X-20495Y23788D01*
X-20511Y23850D01*
X-20532Y23915D01*
X-20548Y23989D01*
X-20569Y24067D01*
X-20585Y24149D01*
X-20598Y24239D01*
X-20622Y24428D01*
X-20626Y24526D01*
X-20630Y24625D01*
Y24633D01*
Y24649D01*
Y24682D01*
X-20626Y24723D01*
X-20622Y24776D01*
X-20618Y24838D01*
X-20610Y24903D01*
X-20602Y24977D01*
X-20589Y25055D01*
X-20577Y25137D01*
X-20536Y25313D01*
X-20507Y25400D01*
X-20479Y25486D01*
X-20446Y25576D01*
X-20405Y25658D01*
X-20401Y25662D01*
X-20392Y25678D01*
X-20380Y25699D01*
X-20364Y25732D01*
X-20339Y25769D01*
X-20311Y25809D01*
X-20278Y25855D01*
X-20241Y25908D01*
X-20196Y25957D01*
X-20151Y26015D01*
X-20097Y26068D01*
X-20040Y26125D01*
X-19978Y26179D01*
X-19913Y26232D01*
X-19839Y26281D01*
X-19765Y26326D01*
X-19761Y26330D01*
X-19745Y26334D01*
X-19724Y26347D01*
X-19692Y26363D01*
X-19655Y26379D01*
X-19605Y26400D01*
X-19552Y26420D01*
X-19495Y26441D01*
X-19429Y26461D01*
X-19355Y26482D01*
X-19282Y26502D01*
X-19199Y26519D01*
X-19031Y26548D01*
X-18941Y26552D01*
X-18847Y26556D01*
X-18793D01*
X-18753Y26552D01*
D02*
G37*
G36*
X-15608Y26498D02*
X-15575D01*
X-15538Y26490D01*
X-15493Y26486D01*
X-15448Y26478D01*
X-15341Y26453D01*
X-15231Y26416D01*
X-15173Y26396D01*
X-15112Y26367D01*
X-15054Y26338D01*
X-14997Y26302D01*
X-14993Y26297D01*
X-14985Y26293D01*
X-14968Y26281D01*
X-14948Y26265D01*
X-14919Y26244D01*
X-14890Y26219D01*
X-14858Y26191D01*
X-14825Y26158D01*
X-14788Y26121D01*
X-14747Y26076D01*
X-14710Y26031D01*
X-14669Y25982D01*
X-14632Y25924D01*
X-14595Y25867D01*
X-14562Y25801D01*
X-14530Y25736D01*
Y25732D01*
X-14521Y25719D01*
X-14513Y25699D01*
X-14505Y25666D01*
X-14493Y25629D01*
X-14480Y25584D01*
X-14464Y25531D01*
X-14448Y25465D01*
X-14435Y25395D01*
X-14419Y25317D01*
X-14406Y25227D01*
X-14394Y25133D01*
X-14386Y25030D01*
X-14378Y24920D01*
X-14370Y24801D01*
Y24674D01*
Y24666D01*
Y24641D01*
Y24604D01*
X-14374Y24555D01*
Y24493D01*
X-14378Y24420D01*
X-14382Y24342D01*
X-14390Y24256D01*
X-14398Y24165D01*
X-14406Y24071D01*
X-14435Y23878D01*
X-14476Y23690D01*
X-14501Y23604D01*
X-14530Y23518D01*
Y23514D01*
X-14538Y23497D01*
X-14546Y23477D01*
X-14558Y23448D01*
X-14575Y23411D01*
X-14595Y23370D01*
X-14620Y23325D01*
X-14644Y23276D01*
X-14710Y23173D01*
X-14792Y23063D01*
X-14886Y22960D01*
X-14940Y22911D01*
X-14997Y22866D01*
X-15001Y22862D01*
X-15009Y22858D01*
X-15030Y22845D01*
X-15050Y22833D01*
X-15083Y22817D01*
X-15116Y22796D01*
X-15157Y22775D01*
X-15206Y22755D01*
X-15255Y22735D01*
X-15313Y22714D01*
X-15370Y22698D01*
X-15436Y22677D01*
X-15575Y22652D01*
X-15649Y22648D01*
X-15727Y22644D01*
X-15768D01*
X-15801Y22648D01*
X-15837Y22652D01*
X-15883Y22657D01*
X-15932Y22665D01*
X-15985Y22677D01*
X-16100Y22706D01*
X-16157Y22726D01*
X-16219Y22747D01*
X-16280Y22775D01*
X-16342Y22808D01*
X-16399Y22845D01*
X-16452Y22890D01*
X-16456Y22894D01*
X-16465Y22903D01*
X-16477Y22915D01*
X-16498Y22935D01*
X-16518Y22960D01*
X-16543Y22993D01*
X-16571Y23030D01*
X-16600Y23071D01*
X-16629Y23116D01*
X-16657Y23169D01*
X-16682Y23226D01*
X-16711Y23288D01*
X-16735Y23354D01*
X-16756Y23423D01*
X-16772Y23501D01*
X-16784Y23583D01*
X-16338Y23620D01*
Y23616D01*
X-16333Y23608D01*
Y23591D01*
X-16325Y23567D01*
X-16321Y23542D01*
X-16313Y23514D01*
X-16293Y23444D01*
X-16264Y23370D01*
X-16227Y23296D01*
X-16178Y23226D01*
X-16153Y23194D01*
X-16124Y23165D01*
X-16116Y23161D01*
X-16096Y23144D01*
X-16059Y23120D01*
X-16014Y23095D01*
X-15952Y23071D01*
X-15883Y23046D01*
X-15805Y23030D01*
X-15714Y23026D01*
X-15677D01*
X-15637Y23030D01*
X-15587Y23038D01*
X-15530Y23050D01*
X-15469Y23067D01*
X-15403Y23087D01*
X-15341Y23120D01*
X-15333Y23124D01*
X-15313Y23136D01*
X-15284Y23161D01*
X-15247Y23190D01*
X-15206Y23226D01*
X-15161Y23272D01*
X-15116Y23325D01*
X-15075Y23382D01*
X-15071Y23391D01*
X-15058Y23411D01*
X-15038Y23448D01*
X-15013Y23501D01*
X-14989Y23563D01*
X-14960Y23637D01*
X-14931Y23727D01*
X-14903Y23825D01*
Y23829D01*
X-14899Y23837D01*
X-14895Y23854D01*
X-14890Y23874D01*
X-14886Y23899D01*
X-14882Y23928D01*
X-14874Y23965D01*
X-14866Y24001D01*
X-14853Y24088D01*
X-14845Y24182D01*
X-14837Y24284D01*
X-14833Y24391D01*
Y24399D01*
Y24416D01*
Y24444D01*
Y24481D01*
X-14841Y24477D01*
X-14845Y24465D01*
X-14858Y24448D01*
X-14890Y24407D01*
X-14931Y24358D01*
X-14989Y24301D01*
X-15054Y24239D01*
X-15128Y24182D01*
X-15214Y24124D01*
X-15218D01*
X-15227Y24120D01*
X-15239Y24112D01*
X-15255Y24104D01*
X-15280Y24092D01*
X-15304Y24083D01*
X-15370Y24059D01*
X-15448Y24030D01*
X-15538Y24010D01*
X-15637Y23993D01*
X-15739Y23989D01*
X-15759D01*
X-15784Y23993D01*
X-15817D01*
X-15858Y24001D01*
X-15903Y24005D01*
X-15956Y24018D01*
X-16014Y24030D01*
X-16075Y24051D01*
X-16137Y24071D01*
X-16202Y24100D01*
X-16268Y24133D01*
X-16338Y24170D01*
X-16403Y24215D01*
X-16469Y24268D01*
X-16530Y24325D01*
X-16534Y24329D01*
X-16543Y24342D01*
X-16559Y24362D01*
X-16580Y24387D01*
X-16604Y24420D01*
X-16633Y24461D01*
X-16661Y24510D01*
X-16690Y24567D01*
X-16723Y24625D01*
X-16752Y24694D01*
X-16780Y24768D01*
X-16805Y24846D01*
X-16826Y24932D01*
X-16842Y25026D01*
X-16850Y25121D01*
X-16854Y25223D01*
Y25231D01*
Y25248D01*
X-16850Y25281D01*
Y25317D01*
X-16842Y25367D01*
X-16838Y25424D01*
X-16826Y25486D01*
X-16813Y25555D01*
X-16793Y25625D01*
X-16772Y25703D01*
X-16744Y25781D01*
X-16711Y25855D01*
X-16674Y25932D01*
X-16629Y26010D01*
X-16576Y26080D01*
X-16518Y26150D01*
X-16514Y26154D01*
X-16502Y26166D01*
X-16481Y26183D01*
X-16456Y26203D01*
X-16424Y26232D01*
X-16383Y26261D01*
X-16338Y26293D01*
X-16284Y26326D01*
X-16227Y26359D01*
X-16161Y26392D01*
X-16092Y26420D01*
X-16018Y26449D01*
X-15936Y26470D01*
X-15850Y26486D01*
X-15764Y26498D01*
X-15669Y26502D01*
X-15632D01*
X-15608Y26498D01*
D02*
G37*
G36*
X16116Y10170D02*
X16165Y10166D01*
X16222Y10158D01*
X16284Y10150D01*
X16353Y10137D01*
X16427Y10121D01*
X16505Y10105D01*
X16583Y10080D01*
X16665Y10051D01*
X16747Y10018D01*
X16825Y9978D01*
X16903Y9937D01*
X16977Y9883D01*
X16981Y9879D01*
X16993Y9871D01*
X17014Y9854D01*
X17038Y9830D01*
X17071Y9801D01*
X17108Y9764D01*
X17145Y9723D01*
X17190Y9674D01*
X17235Y9621D01*
X17280Y9559D01*
X17325Y9494D01*
X17366Y9420D01*
X17411Y9342D01*
X17448Y9256D01*
X17485Y9166D01*
X17518Y9071D01*
X17026Y8957D01*
Y8961D01*
X17018Y8973D01*
X17014Y8998D01*
X17001Y9026D01*
X16989Y9059D01*
X16968Y9096D01*
X16927Y9186D01*
X16874Y9285D01*
X16804Y9387D01*
X16731Y9481D01*
X16686Y9522D01*
X16640Y9559D01*
X16636Y9563D01*
X16628Y9567D01*
X16616Y9576D01*
X16595Y9588D01*
X16571Y9604D01*
X16542Y9621D01*
X16509Y9637D01*
X16468Y9654D01*
X16423Y9670D01*
X16378Y9686D01*
X16271Y9719D01*
X16148Y9740D01*
X16083Y9748D01*
X15972D01*
X15939Y9744D01*
X15902Y9740D01*
X15857Y9736D01*
X15808Y9731D01*
X15759Y9723D01*
X15640Y9695D01*
X15517Y9658D01*
X15455Y9633D01*
X15394Y9604D01*
X15337Y9572D01*
X15279Y9535D01*
X15275Y9531D01*
X15267Y9527D01*
X15250Y9514D01*
X15230Y9498D01*
X15210Y9477D01*
X15181Y9449D01*
X15152Y9420D01*
X15119Y9387D01*
X15087Y9346D01*
X15050Y9305D01*
X14984Y9211D01*
X14922Y9100D01*
X14869Y8973D01*
Y8969D01*
X14865Y8957D01*
X14857Y8936D01*
X14853Y8912D01*
X14845Y8879D01*
X14832Y8842D01*
X14824Y8797D01*
X14812Y8752D01*
X14799Y8698D01*
X14791Y8641D01*
X14771Y8518D01*
X14759Y8387D01*
X14754Y8247D01*
Y8243D01*
Y8227D01*
Y8202D01*
X14759Y8165D01*
Y8124D01*
X14763Y8075D01*
X14767Y8022D01*
X14771Y7960D01*
X14779Y7895D01*
X14787Y7829D01*
X14812Y7686D01*
X14849Y7542D01*
X14894Y7403D01*
Y7399D01*
X14902Y7386D01*
X14910Y7370D01*
X14918Y7345D01*
X14935Y7312D01*
X14955Y7280D01*
X15000Y7202D01*
X15062Y7112D01*
X15136Y7025D01*
X15226Y6939D01*
X15275Y6903D01*
X15328Y6866D01*
X15333D01*
X15341Y6857D01*
X15357Y6849D01*
X15382Y6837D01*
X15410Y6825D01*
X15443Y6808D01*
X15480Y6796D01*
X15521Y6780D01*
X15615Y6747D01*
X15726Y6718D01*
X15845Y6697D01*
X15906Y6693D01*
X15972Y6689D01*
X16013D01*
X16042Y6693D01*
X16079Y6697D01*
X16120Y6702D01*
X16169Y6710D01*
X16218Y6718D01*
X16333Y6747D01*
X16390Y6767D01*
X16452Y6792D01*
X16513Y6820D01*
X16571Y6853D01*
X16628Y6890D01*
X16686Y6931D01*
X16690Y6935D01*
X16698Y6944D01*
X16714Y6956D01*
X16735Y6976D01*
X16755Y7001D01*
X16784Y7034D01*
X16813Y7071D01*
X16845Y7112D01*
X16878Y7161D01*
X16911Y7214D01*
X16944Y7271D01*
X16977Y7337D01*
X17005Y7407D01*
X17034Y7485D01*
X17063Y7567D01*
X17083Y7653D01*
X17583Y7526D01*
Y7518D01*
X17575Y7497D01*
X17567Y7468D01*
X17551Y7423D01*
X17534Y7374D01*
X17510Y7312D01*
X17485Y7247D01*
X17452Y7177D01*
X17415Y7099D01*
X17374Y7025D01*
X17329Y6944D01*
X17276Y6866D01*
X17219Y6792D01*
X17157Y6718D01*
X17087Y6648D01*
X17014Y6583D01*
X17009Y6579D01*
X16993Y6570D01*
X16973Y6554D01*
X16940Y6533D01*
X16903Y6509D01*
X16854Y6480D01*
X16800Y6452D01*
X16735Y6423D01*
X16665Y6394D01*
X16591Y6365D01*
X16509Y6337D01*
X16419Y6312D01*
X16325Y6292D01*
X16226Y6275D01*
X16124Y6267D01*
X16013Y6263D01*
X15956D01*
X15911Y6267D01*
X15861Y6271D01*
X15800Y6275D01*
X15734Y6283D01*
X15661Y6296D01*
X15583Y6308D01*
X15501Y6324D01*
X15419Y6345D01*
X15337Y6365D01*
X15250Y6394D01*
X15168Y6427D01*
X15091Y6464D01*
X15017Y6509D01*
X15013Y6513D01*
X15000Y6521D01*
X14980Y6533D01*
X14955Y6554D01*
X14922Y6583D01*
X14886Y6611D01*
X14845Y6648D01*
X14799Y6693D01*
X14754Y6743D01*
X14705Y6796D01*
X14660Y6853D01*
X14611Y6919D01*
X14562Y6989D01*
X14517Y7062D01*
X14476Y7144D01*
X14435Y7231D01*
X14431Y7235D01*
X14426Y7251D01*
X14418Y7280D01*
X14406Y7312D01*
X14390Y7358D01*
X14373Y7407D01*
X14357Y7468D01*
X14336Y7534D01*
X14320Y7608D01*
X14299Y7686D01*
X14283Y7768D01*
X14271Y7858D01*
X14246Y8046D01*
X14242Y8145D01*
X14238Y8243D01*
Y8251D01*
Y8268D01*
Y8301D01*
X14242Y8342D01*
X14246Y8395D01*
X14250Y8456D01*
X14258Y8522D01*
X14266Y8596D01*
X14279Y8674D01*
X14291Y8756D01*
X14332Y8932D01*
X14361Y9018D01*
X14390Y9104D01*
X14422Y9194D01*
X14463Y9276D01*
X14467Y9280D01*
X14476Y9297D01*
X14488Y9317D01*
X14504Y9350D01*
X14529Y9387D01*
X14558Y9428D01*
X14590Y9473D01*
X14627Y9527D01*
X14672Y9576D01*
X14717Y9633D01*
X14771Y9686D01*
X14828Y9744D01*
X14890Y9797D01*
X14955Y9850D01*
X15029Y9900D01*
X15103Y9945D01*
X15107Y9949D01*
X15123Y9953D01*
X15144Y9965D01*
X15177Y9982D01*
X15214Y9998D01*
X15263Y10018D01*
X15316Y10039D01*
X15373Y10059D01*
X15439Y10080D01*
X15513Y10101D01*
X15587Y10121D01*
X15669Y10137D01*
X15837Y10166D01*
X15927Y10170D01*
X16021Y10174D01*
X16075D01*
X16116Y10170D01*
D02*
G37*
G36*
X19322Y10117D02*
X19363Y10113D01*
X19412Y10105D01*
X19465Y10096D01*
X19527Y10084D01*
X19588Y10068D01*
X19654Y10051D01*
X19719Y10027D01*
X19785Y9998D01*
X19855Y9965D01*
X19916Y9924D01*
X19982Y9883D01*
X20039Y9830D01*
X20043Y9826D01*
X20052Y9818D01*
X20068Y9801D01*
X20088Y9781D01*
X20109Y9752D01*
X20134Y9719D01*
X20162Y9678D01*
X20191Y9637D01*
X20220Y9588D01*
X20248Y9535D01*
X20273Y9477D01*
X20293Y9416D01*
X20314Y9350D01*
X20330Y9280D01*
X20339Y9207D01*
X20343Y9133D01*
Y9129D01*
Y9121D01*
Y9108D01*
Y9088D01*
X20339Y9067D01*
X20335Y9039D01*
X20326Y8977D01*
X20310Y8907D01*
X20285Y8829D01*
X20248Y8752D01*
X20203Y8674D01*
Y8670D01*
X20195Y8665D01*
X20179Y8641D01*
X20146Y8608D01*
X20101Y8563D01*
X20039Y8518D01*
X19970Y8465D01*
X19884Y8420D01*
X19785Y8374D01*
X19789D01*
X19802Y8370D01*
X19818Y8362D01*
X19842Y8354D01*
X19871Y8342D01*
X19904Y8325D01*
X19982Y8284D01*
X20068Y8235D01*
X20154Y8169D01*
X20240Y8096D01*
X20314Y8005D01*
X20318Y8001D01*
X20322Y7993D01*
X20330Y7981D01*
X20343Y7960D01*
X20355Y7936D01*
X20371Y7907D01*
X20388Y7874D01*
X20408Y7837D01*
X20441Y7751D01*
X20470Y7649D01*
X20490Y7534D01*
X20498Y7472D01*
Y7407D01*
Y7403D01*
Y7386D01*
X20494Y7362D01*
Y7325D01*
X20486Y7284D01*
X20482Y7235D01*
X20470Y7181D01*
X20458Y7124D01*
X20437Y7058D01*
X20416Y6993D01*
X20388Y6927D01*
X20355Y6857D01*
X20314Y6788D01*
X20269Y6722D01*
X20216Y6652D01*
X20154Y6591D01*
X20150Y6587D01*
X20138Y6579D01*
X20117Y6562D01*
X20093Y6542D01*
X20056Y6513D01*
X20015Y6488D01*
X19965Y6456D01*
X19912Y6427D01*
X19851Y6398D01*
X19781Y6365D01*
X19707Y6341D01*
X19629Y6316D01*
X19543Y6292D01*
X19453Y6275D01*
X19355Y6267D01*
X19252Y6263D01*
X19228D01*
X19199Y6267D01*
X19158D01*
X19113Y6271D01*
X19055Y6279D01*
X18994Y6292D01*
X18928Y6304D01*
X18858Y6320D01*
X18785Y6345D01*
X18711Y6369D01*
X18633Y6402D01*
X18559Y6439D01*
X18485Y6484D01*
X18412Y6533D01*
X18346Y6591D01*
X18342Y6595D01*
X18330Y6607D01*
X18313Y6624D01*
X18293Y6652D01*
X18268Y6685D01*
X18239Y6722D01*
X18207Y6767D01*
X18178Y6820D01*
X18145Y6878D01*
X18112Y6939D01*
X18084Y7009D01*
X18059Y7079D01*
X18038Y7157D01*
X18022Y7243D01*
X18010Y7329D01*
X18006Y7419D01*
Y7423D01*
Y7435D01*
Y7456D01*
X18010Y7481D01*
Y7513D01*
X18014Y7550D01*
X18022Y7591D01*
X18030Y7636D01*
X18051Y7731D01*
X18084Y7833D01*
X18129Y7936D01*
X18157Y7985D01*
X18190Y8034D01*
X18194Y8038D01*
X18198Y8046D01*
X18211Y8059D01*
X18227Y8075D01*
X18244Y8096D01*
X18268Y8116D01*
X18297Y8145D01*
X18330Y8169D01*
X18403Y8227D01*
X18494Y8284D01*
X18600Y8333D01*
X18723Y8374D01*
X18719D01*
X18711Y8378D01*
X18695Y8387D01*
X18678Y8395D01*
X18654Y8403D01*
X18625Y8420D01*
X18563Y8452D01*
X18494Y8493D01*
X18424Y8547D01*
X18354Y8604D01*
X18297Y8674D01*
Y8678D01*
X18293Y8682D01*
X18284Y8694D01*
X18276Y8711D01*
X18252Y8752D01*
X18227Y8805D01*
X18203Y8875D01*
X18178Y8957D01*
X18161Y9047D01*
X18157Y9145D01*
Y9149D01*
Y9162D01*
X18161Y9186D01*
Y9215D01*
X18166Y9248D01*
X18174Y9289D01*
X18182Y9334D01*
X18194Y9387D01*
X18211Y9440D01*
X18231Y9494D01*
X18252Y9551D01*
X18280Y9613D01*
X18317Y9670D01*
X18354Y9727D01*
X18399Y9785D01*
X18453Y9838D01*
X18457Y9842D01*
X18465Y9850D01*
X18481Y9863D01*
X18506Y9883D01*
X18535Y9904D01*
X18572Y9928D01*
X18612Y9953D01*
X18662Y9982D01*
X18715Y10006D01*
X18777Y10031D01*
X18838Y10055D01*
X18908Y10076D01*
X18986Y10096D01*
X19063Y10109D01*
X19150Y10117D01*
X19240Y10121D01*
X19289D01*
X19322Y10117D01*
D02*
G37*
%LPC*%
G36*
X55925Y29374D02*
X54650D01*
Y28124D01*
X55781D01*
X55810Y28128D01*
X55843D01*
X55921Y28132D01*
X56007Y28140D01*
X56097Y28152D01*
X56183Y28168D01*
X56261Y28193D01*
X56265D01*
X56269Y28197D01*
X56294Y28205D01*
X56327Y28222D01*
X56372Y28246D01*
X56417Y28279D01*
X56466Y28316D01*
X56515Y28365D01*
X56556Y28419D01*
X56560Y28427D01*
X56573Y28447D01*
X56589Y28476D01*
X56610Y28521D01*
X56626Y28570D01*
X56642Y28628D01*
X56655Y28693D01*
X56659Y28759D01*
Y28763D01*
Y28771D01*
Y28784D01*
X56655Y28804D01*
Y28824D01*
X56651Y28853D01*
X56634Y28915D01*
X56610Y28984D01*
X56577Y29058D01*
X56528Y29128D01*
X56495Y29165D01*
X56462Y29198D01*
X56458Y29202D01*
X56454Y29206D01*
X56441Y29214D01*
X56425Y29226D01*
X56405Y29239D01*
X56376Y29255D01*
X56347Y29271D01*
X56310Y29288D01*
X56269Y29304D01*
X56224Y29317D01*
X56175Y29333D01*
X56122Y29345D01*
X56060Y29357D01*
X55995Y29366D01*
X55925Y29374D01*
D02*
G37*
G36*
X25837Y40578D02*
X25808D01*
X25784Y40574D01*
X25759Y40570D01*
X25726Y40566D01*
X25652Y40550D01*
X25566Y40521D01*
X25476Y40480D01*
X25431Y40455D01*
X25386Y40427D01*
X25341Y40390D01*
X25300Y40349D01*
X25296Y40345D01*
X25291Y40336D01*
X25279Y40324D01*
X25267Y40308D01*
X25251Y40287D01*
X25230Y40259D01*
X25210Y40226D01*
X25193Y40189D01*
X25173Y40152D01*
X25152Y40107D01*
X25115Y40004D01*
X25091Y39890D01*
X25087Y39824D01*
X25082Y39758D01*
Y39754D01*
Y39746D01*
Y39734D01*
Y39717D01*
X25087Y39697D01*
Y39672D01*
X25095Y39611D01*
X25107Y39541D01*
X25123Y39463D01*
X25148Y39381D01*
X25181Y39299D01*
Y39295D01*
X25185Y39291D01*
X25193Y39279D01*
X25201Y39262D01*
X25222Y39225D01*
X25255Y39176D01*
X25296Y39123D01*
X25345Y39070D01*
X25398Y39016D01*
X25464Y38967D01*
X25468D01*
X25472Y38963D01*
X25497Y38951D01*
X25533Y38930D01*
X25583Y38910D01*
X25640Y38889D01*
X25706Y38869D01*
X25779Y38856D01*
X25853Y38852D01*
X25882D01*
X25902Y38856D01*
X25931Y38860D01*
X25960Y38865D01*
X26030Y38881D01*
X26107Y38910D01*
X26153Y38930D01*
X26193Y38951D01*
X26239Y38979D01*
X26280Y39008D01*
X26321Y39045D01*
X26362Y39086D01*
X26366Y39090D01*
X26370Y39098D01*
X26382Y39111D01*
X26394Y39131D01*
X26411Y39156D01*
X26427Y39184D01*
X26448Y39217D01*
X26468Y39258D01*
X26489Y39299D01*
X26509Y39348D01*
X26526Y39402D01*
X26542Y39459D01*
X26554Y39520D01*
X26567Y39590D01*
X26571Y39660D01*
X26575Y39734D01*
Y39738D01*
Y39750D01*
Y39771D01*
X26571Y39799D01*
X26567Y39832D01*
X26562Y39869D01*
X26558Y39910D01*
X26550Y39955D01*
X26526Y40054D01*
X26489Y40156D01*
X26464Y40209D01*
X26435Y40259D01*
X26403Y40304D01*
X26366Y40349D01*
X26362Y40353D01*
X26357Y40357D01*
X26345Y40369D01*
X26329Y40386D01*
X26308Y40402D01*
X26284Y40423D01*
X26222Y40464D01*
X26144Y40505D01*
X26054Y40541D01*
X25952Y40570D01*
X25894Y40574D01*
X25837Y40578D01*
D02*
G37*
G36*
X22725Y41899D02*
X21450D01*
Y40648D01*
X22581D01*
X22610Y40652D01*
X22643D01*
X22721Y40656D01*
X22807Y40664D01*
X22897Y40677D01*
X22983Y40693D01*
X23061Y40718D01*
X23065D01*
X23069Y40722D01*
X23094Y40730D01*
X23127Y40746D01*
X23172Y40771D01*
X23217Y40804D01*
X23266Y40841D01*
X23315Y40890D01*
X23356Y40943D01*
X23360Y40951D01*
X23373Y40972D01*
X23389Y41001D01*
X23410Y41046D01*
X23426Y41095D01*
X23442Y41152D01*
X23455Y41218D01*
X23459Y41284D01*
Y41288D01*
Y41296D01*
Y41308D01*
X23455Y41329D01*
Y41349D01*
X23451Y41378D01*
X23434Y41439D01*
X23410Y41509D01*
X23377Y41583D01*
X23328Y41653D01*
X23295Y41689D01*
X23262Y41722D01*
X23258Y41726D01*
X23254Y41730D01*
X23242Y41739D01*
X23225Y41751D01*
X23205Y41763D01*
X23176Y41780D01*
X23147Y41796D01*
X23110Y41813D01*
X23069Y41829D01*
X23024Y41841D01*
X22975Y41857D01*
X22922Y41870D01*
X22860Y41882D01*
X22795Y41890D01*
X22725Y41899D01*
D02*
G37*
G36*
X-51756Y-36555D02*
X-52584D01*
Y-37699D01*
X-51686D01*
X-51653Y-37694D01*
X-51584D01*
X-51506Y-37690D01*
X-51424Y-37682D01*
X-51350Y-37670D01*
X-51317Y-37666D01*
X-51289Y-37658D01*
X-51285D01*
X-51280Y-37654D01*
X-51256Y-37645D01*
X-51223Y-37633D01*
X-51182Y-37613D01*
X-51137Y-37588D01*
X-51088Y-37555D01*
X-51043Y-37514D01*
X-51002Y-37469D01*
X-50998Y-37461D01*
X-50985Y-37444D01*
X-50969Y-37416D01*
X-50952Y-37379D01*
X-50936Y-37330D01*
X-50920Y-37272D01*
X-50907Y-37211D01*
X-50903Y-37137D01*
Y-37133D01*
Y-37129D01*
Y-37104D01*
X-50907Y-37071D01*
X-50916Y-37026D01*
X-50928Y-36973D01*
X-50944Y-36916D01*
X-50965Y-36858D01*
X-50998Y-36805D01*
X-51002Y-36797D01*
X-51014Y-36780D01*
X-51034Y-36756D01*
X-51063Y-36727D01*
X-51100Y-36694D01*
X-51145Y-36661D01*
X-51194Y-36633D01*
X-51256Y-36608D01*
X-51264Y-36604D01*
X-51272D01*
X-51289Y-36600D01*
X-51305Y-36596D01*
X-51330Y-36592D01*
X-51358Y-36588D01*
X-51387Y-36579D01*
X-51424Y-36575D01*
X-51469Y-36571D01*
X-51514Y-36567D01*
X-51567Y-36563D01*
X-51625Y-36559D01*
X-51686D01*
X-51756Y-36555D01*
D02*
G37*
G36*
X-51711Y-38146D02*
X-52584D01*
Y-39445D01*
X-51559D01*
X-51506Y-39441D01*
X-51453D01*
X-51395Y-39437D01*
X-51342Y-39433D01*
X-51301Y-39429D01*
X-51293D01*
X-51272Y-39425D01*
X-51239Y-39417D01*
X-51199Y-39404D01*
X-51153Y-39392D01*
X-51108Y-39371D01*
X-51059Y-39351D01*
X-51014Y-39326D01*
X-51010Y-39322D01*
X-50994Y-39314D01*
X-50973Y-39298D01*
X-50944Y-39273D01*
X-50916Y-39244D01*
X-50883Y-39208D01*
X-50850Y-39166D01*
X-50821Y-39117D01*
X-50817Y-39109D01*
X-50809Y-39093D01*
X-50797Y-39064D01*
X-50780Y-39023D01*
X-50768Y-38978D01*
X-50756Y-38925D01*
X-50747Y-38863D01*
X-50743Y-38797D01*
Y-38793D01*
Y-38789D01*
Y-38777D01*
Y-38761D01*
X-50747Y-38724D01*
X-50756Y-38670D01*
X-50772Y-38613D01*
X-50788Y-38551D01*
X-50817Y-38490D01*
X-50854Y-38428D01*
X-50858Y-38420D01*
X-50875Y-38404D01*
X-50899Y-38375D01*
X-50932Y-38342D01*
X-50977Y-38306D01*
X-51030Y-38273D01*
X-51088Y-38240D01*
X-51157Y-38211D01*
X-51161D01*
X-51166Y-38207D01*
X-51178Y-38203D01*
X-51194Y-38199D01*
X-51215Y-38195D01*
X-51235Y-38191D01*
X-51264Y-38183D01*
X-51297Y-38178D01*
X-51338Y-38170D01*
X-51379Y-38166D01*
X-51424Y-38162D01*
X-51473Y-38154D01*
X-51584Y-38150D01*
X-51711Y-38146D01*
D02*
G37*
G36*
X-438Y-36457D02*
X-1266D01*
Y-37601D01*
X-368D01*
X-335Y-37597D01*
X-265D01*
X-187Y-37593D01*
X-106Y-37584D01*
X-32Y-37572D01*
X1Y-37568D01*
X30Y-37560D01*
X34D01*
X38Y-37556D01*
X63Y-37547D01*
X95Y-37535D01*
X136Y-37515D01*
X181Y-37490D01*
X231Y-37457D01*
X276Y-37416D01*
X317Y-37371D01*
X321Y-37363D01*
X333Y-37347D01*
X350Y-37318D01*
X366Y-37281D01*
X382Y-37232D01*
X399Y-37174D01*
X411Y-37113D01*
X415Y-37039D01*
Y-37035D01*
Y-37031D01*
Y-37006D01*
X411Y-36973D01*
X403Y-36928D01*
X391Y-36875D01*
X374Y-36818D01*
X354Y-36760D01*
X321Y-36707D01*
X317Y-36699D01*
X304Y-36682D01*
X284Y-36658D01*
X255Y-36629D01*
X218Y-36596D01*
X173Y-36563D01*
X124Y-36535D01*
X63Y-36510D01*
X54Y-36506D01*
X46D01*
X30Y-36502D01*
X13Y-36498D01*
X-11Y-36494D01*
X-40Y-36490D01*
X-69Y-36481D01*
X-106Y-36477D01*
X-151Y-36473D01*
X-196Y-36469D01*
X-249Y-36465D01*
X-306Y-36461D01*
X-368D01*
X-438Y-36457D01*
D02*
G37*
G36*
X-392Y-38048D02*
X-1266D01*
Y-39347D01*
X-241D01*
X-187Y-39343D01*
X-134D01*
X-77Y-39339D01*
X-23Y-39335D01*
X17Y-39331D01*
X26D01*
X46Y-39327D01*
X79Y-39319D01*
X120Y-39306D01*
X165Y-39294D01*
X210Y-39274D01*
X259Y-39253D01*
X304Y-39228D01*
X309Y-39224D01*
X325Y-39216D01*
X345Y-39200D01*
X374Y-39175D01*
X403Y-39146D01*
X436Y-39110D01*
X469Y-39068D01*
X497Y-39019D01*
X501Y-39011D01*
X509Y-38995D01*
X522Y-38966D01*
X538Y-38925D01*
X550Y-38880D01*
X563Y-38827D01*
X571Y-38765D01*
X575Y-38699D01*
Y-38695D01*
Y-38691D01*
Y-38679D01*
Y-38663D01*
X571Y-38626D01*
X563Y-38572D01*
X546Y-38515D01*
X530Y-38454D01*
X501Y-38392D01*
X464Y-38331D01*
X460Y-38322D01*
X444Y-38306D01*
X419Y-38277D01*
X387Y-38244D01*
X341Y-38208D01*
X288Y-38175D01*
X231Y-38142D01*
X161Y-38113D01*
X157D01*
X153Y-38109D01*
X140Y-38105D01*
X124Y-38101D01*
X104Y-38097D01*
X83Y-38093D01*
X54Y-38085D01*
X22Y-38080D01*
X-19Y-38072D01*
X-60Y-38068D01*
X-106Y-38064D01*
X-155Y-38056D01*
X-265Y-38052D01*
X-392Y-38048D01*
D02*
G37*
G36*
X66709Y-36357D02*
X65881D01*
Y-37501D01*
X66778D01*
X66811Y-37497D01*
X66881D01*
X66959Y-37492D01*
X67041Y-37484D01*
X67115Y-37472D01*
X67148Y-37468D01*
X67176Y-37460D01*
X67180D01*
X67185Y-37456D01*
X67209Y-37447D01*
X67242Y-37435D01*
X67283Y-37415D01*
X67328Y-37390D01*
X67377Y-37357D01*
X67422Y-37316D01*
X67463Y-37271D01*
X67467Y-37263D01*
X67480Y-37247D01*
X67496Y-37218D01*
X67513Y-37181D01*
X67529Y-37132D01*
X67545Y-37074D01*
X67558Y-37013D01*
X67562Y-36939D01*
Y-36935D01*
Y-36931D01*
Y-36906D01*
X67558Y-36873D01*
X67549Y-36828D01*
X67537Y-36775D01*
X67521Y-36718D01*
X67500Y-36660D01*
X67467Y-36607D01*
X67463Y-36599D01*
X67451Y-36582D01*
X67430Y-36558D01*
X67402Y-36529D01*
X67365Y-36496D01*
X67320Y-36463D01*
X67271Y-36435D01*
X67209Y-36410D01*
X67201Y-36406D01*
X67193D01*
X67176Y-36402D01*
X67160Y-36398D01*
X67135Y-36394D01*
X67107Y-36390D01*
X67078Y-36381D01*
X67041Y-36377D01*
X66996Y-36373D01*
X66951Y-36369D01*
X66897Y-36365D01*
X66840Y-36361D01*
X66778D01*
X66709Y-36357D01*
D02*
G37*
G36*
X66754Y-37948D02*
X65881D01*
Y-39247D01*
X66906D01*
X66959Y-39243D01*
X67012D01*
X67070Y-39239D01*
X67123Y-39235D01*
X67164Y-39231D01*
X67172D01*
X67193Y-39227D01*
X67225Y-39219D01*
X67266Y-39206D01*
X67312Y-39194D01*
X67357Y-39173D01*
X67406Y-39153D01*
X67451Y-39128D01*
X67455Y-39124D01*
X67471Y-39116D01*
X67492Y-39100D01*
X67521Y-39075D01*
X67549Y-39046D01*
X67582Y-39009D01*
X67615Y-38969D01*
X67644Y-38919D01*
X67648Y-38911D01*
X67656Y-38895D01*
X67668Y-38866D01*
X67685Y-38825D01*
X67697Y-38780D01*
X67709Y-38727D01*
X67717Y-38665D01*
X67722Y-38600D01*
Y-38595D01*
Y-38591D01*
Y-38579D01*
Y-38563D01*
X67717Y-38526D01*
X67709Y-38472D01*
X67693Y-38415D01*
X67676Y-38353D01*
X67648Y-38292D01*
X67611Y-38230D01*
X67607Y-38222D01*
X67590Y-38206D01*
X67566Y-38177D01*
X67533Y-38144D01*
X67488Y-38107D01*
X67435Y-38075D01*
X67377Y-38042D01*
X67307Y-38013D01*
X67303D01*
X67299Y-38009D01*
X67287Y-38005D01*
X67271Y-38001D01*
X67250Y-37997D01*
X67229Y-37993D01*
X67201Y-37984D01*
X67168Y-37980D01*
X67127Y-37972D01*
X67086Y-37968D01*
X67041Y-37964D01*
X66992Y-37956D01*
X66881Y-37952D01*
X66754Y-37948D01*
D02*
G37*
G36*
X38911Y41505D02*
X37635D01*
Y40254D01*
X38767D01*
X38796Y40258D01*
X38829D01*
X38906Y40262D01*
X38993Y40271D01*
X39083Y40283D01*
X39169Y40299D01*
X39247Y40324D01*
X39251D01*
X39255Y40328D01*
X39280Y40336D01*
X39312Y40353D01*
X39358Y40377D01*
X39403Y40410D01*
X39452Y40447D01*
X39501Y40496D01*
X39542Y40549D01*
X39546Y40558D01*
X39558Y40578D01*
X39575Y40607D01*
X39595Y40652D01*
X39612Y40701D01*
X39628Y40758D01*
X39640Y40824D01*
X39645Y40890D01*
Y40894D01*
Y40902D01*
Y40914D01*
X39640Y40935D01*
Y40955D01*
X39636Y40984D01*
X39620Y41045D01*
X39595Y41115D01*
X39562Y41189D01*
X39513Y41259D01*
X39481Y41296D01*
X39448Y41328D01*
X39443Y41333D01*
X39439Y41337D01*
X39427Y41345D01*
X39411Y41357D01*
X39390Y41369D01*
X39362Y41386D01*
X39333Y41402D01*
X39296Y41419D01*
X39255Y41435D01*
X39210Y41447D01*
X39161Y41464D01*
X39107Y41476D01*
X39046Y41488D01*
X38980Y41497D01*
X38911Y41505D01*
D02*
G37*
G36*
X34569Y41246D02*
X33375Y39540D01*
X34569D01*
Y41246D01*
D02*
G37*
G36*
X31231Y41574D02*
X29956D01*
Y40323D01*
X31087D01*
X31116Y40328D01*
X31149D01*
X31227Y40332D01*
X31313Y40340D01*
X31403Y40352D01*
X31489Y40369D01*
X31567Y40393D01*
X31571D01*
X31576Y40397D01*
X31600Y40405D01*
X31633Y40422D01*
X31678Y40446D01*
X31723Y40479D01*
X31772Y40516D01*
X31821Y40565D01*
X31863Y40619D01*
X31867Y40627D01*
X31879Y40647D01*
X31895Y40676D01*
X31916Y40721D01*
X31932Y40770D01*
X31949Y40828D01*
X31961Y40893D01*
X31965Y40959D01*
Y40963D01*
Y40971D01*
Y40984D01*
X31961Y41004D01*
Y41025D01*
X31957Y41053D01*
X31940Y41115D01*
X31916Y41184D01*
X31883Y41258D01*
X31834Y41328D01*
X31801Y41365D01*
X31768Y41398D01*
X31764Y41402D01*
X31760Y41406D01*
X31748Y41414D01*
X31731Y41426D01*
X31711Y41439D01*
X31682Y41455D01*
X31653Y41471D01*
X31616Y41488D01*
X31576Y41504D01*
X31530Y41517D01*
X31481Y41533D01*
X31428Y41545D01*
X31366Y41557D01*
X31301Y41566D01*
X31231Y41574D01*
D02*
G37*
G36*
X-775Y-5399D02*
X-2050D01*
Y-6650D01*
X-919D01*
X-890Y-6646D01*
X-857D01*
X-779Y-6642D01*
X-693Y-6634D01*
X-603Y-6621D01*
X-517Y-6605D01*
X-439Y-6580D01*
X-435D01*
X-431Y-6576D01*
X-406Y-6568D01*
X-373Y-6551D01*
X-328Y-6527D01*
X-283Y-6494D01*
X-234Y-6457D01*
X-185Y-6408D01*
X-144Y-6355D01*
X-140Y-6346D01*
X-127Y-6326D01*
X-111Y-6297D01*
X-90Y-6252D01*
X-74Y-6203D01*
X-58Y-6146D01*
X-45Y-6080D01*
X-41Y-6014D01*
Y-6010D01*
Y-6002D01*
Y-5990D01*
X-45Y-5969D01*
Y-5949D01*
X-49Y-5920D01*
X-66Y-5859D01*
X-90Y-5789D01*
X-123Y-5715D01*
X-172Y-5645D01*
X-205Y-5609D01*
X-238Y-5576D01*
X-242Y-5572D01*
X-246Y-5567D01*
X-258Y-5559D01*
X-275Y-5547D01*
X-295Y-5535D01*
X-324Y-5518D01*
X-353Y-5502D01*
X-390Y-5486D01*
X-431Y-5469D01*
X-476Y-5457D01*
X-525Y-5440D01*
X-578Y-5428D01*
X-640Y-5416D01*
X-705Y-5408D01*
X-775Y-5399D01*
D02*
G37*
G36*
X-41110Y19368D02*
X-42385D01*
Y18117D01*
X-41254D01*
X-41225Y18121D01*
X-41192D01*
X-41114Y18125D01*
X-41028Y18134D01*
X-40938Y18146D01*
X-40852Y18162D01*
X-40774Y18187D01*
X-40770D01*
X-40766Y18191D01*
X-40741Y18199D01*
X-40708Y18216D01*
X-40663Y18240D01*
X-40618Y18273D01*
X-40569Y18310D01*
X-40520Y18359D01*
X-40479Y18413D01*
X-40475Y18421D01*
X-40462Y18441D01*
X-40446Y18470D01*
X-40426Y18515D01*
X-40409Y18564D01*
X-40393Y18622D01*
X-40380Y18687D01*
X-40376Y18753D01*
Y18757D01*
Y18765D01*
Y18777D01*
X-40380Y18798D01*
Y18818D01*
X-40385Y18847D01*
X-40401Y18909D01*
X-40426Y18978D01*
X-40458Y19052D01*
X-40508Y19122D01*
X-40540Y19159D01*
X-40573Y19192D01*
X-40577Y19196D01*
X-40581Y19200D01*
X-40594Y19208D01*
X-40610Y19220D01*
X-40630Y19232D01*
X-40659Y19249D01*
X-40688Y19265D01*
X-40725Y19282D01*
X-40766Y19298D01*
X-40811Y19310D01*
X-40860Y19327D01*
X-40913Y19339D01*
X-40975Y19351D01*
X-41041Y19360D01*
X-41110Y19368D01*
D02*
G37*
G36*
X-90263Y25978D02*
X-90292D01*
X-90316Y25974D01*
X-90341Y25970D01*
X-90374Y25966D01*
X-90448Y25950D01*
X-90534Y25921D01*
X-90624Y25880D01*
X-90669Y25855D01*
X-90714Y25827D01*
X-90759Y25790D01*
X-90800Y25749D01*
X-90804Y25745D01*
X-90808Y25736D01*
X-90821Y25724D01*
X-90833Y25708D01*
X-90850Y25687D01*
X-90870Y25659D01*
X-90891Y25626D01*
X-90907Y25589D01*
X-90927Y25552D01*
X-90948Y25507D01*
X-90985Y25404D01*
X-91009Y25289D01*
X-91013Y25224D01*
X-91018Y25158D01*
Y25154D01*
Y25146D01*
Y25134D01*
Y25117D01*
X-91013Y25097D01*
Y25072D01*
X-91005Y25011D01*
X-90993Y24941D01*
X-90977Y24863D01*
X-90952Y24781D01*
X-90919Y24699D01*
Y24695D01*
X-90915Y24691D01*
X-90907Y24679D01*
X-90899Y24662D01*
X-90878Y24625D01*
X-90845Y24576D01*
X-90804Y24523D01*
X-90755Y24470D01*
X-90702Y24416D01*
X-90636Y24367D01*
X-90632D01*
X-90628Y24363D01*
X-90604Y24351D01*
X-90567Y24330D01*
X-90517Y24310D01*
X-90460Y24289D01*
X-90394Y24269D01*
X-90321Y24256D01*
X-90247Y24252D01*
X-90218D01*
X-90198Y24256D01*
X-90169Y24261D01*
X-90140Y24264D01*
X-90070Y24281D01*
X-89993Y24310D01*
X-89947Y24330D01*
X-89907Y24351D01*
X-89861Y24379D01*
X-89820Y24408D01*
X-89779Y24445D01*
X-89738Y24486D01*
X-89734Y24490D01*
X-89730Y24498D01*
X-89718Y24511D01*
X-89706Y24531D01*
X-89689Y24556D01*
X-89673Y24584D01*
X-89652Y24617D01*
X-89632Y24658D01*
X-89611Y24699D01*
X-89591Y24748D01*
X-89574Y24802D01*
X-89558Y24859D01*
X-89546Y24921D01*
X-89533Y24990D01*
X-89529Y25060D01*
X-89525Y25134D01*
Y25138D01*
Y25150D01*
Y25171D01*
X-89529Y25199D01*
X-89533Y25232D01*
X-89538Y25269D01*
X-89542Y25310D01*
X-89550Y25355D01*
X-89574Y25454D01*
X-89611Y25556D01*
X-89636Y25609D01*
X-89665Y25659D01*
X-89697Y25704D01*
X-89734Y25749D01*
X-89738Y25753D01*
X-89742Y25757D01*
X-89755Y25769D01*
X-89771Y25786D01*
X-89792Y25802D01*
X-89816Y25823D01*
X-89878Y25864D01*
X-89956Y25905D01*
X-90046Y25941D01*
X-90148Y25970D01*
X-90206Y25974D01*
X-90263Y25978D01*
D02*
G37*
G36*
X-15848Y7217D02*
X-15877D01*
X-15902Y7213D01*
X-15926Y7209D01*
X-15959Y7205D01*
X-16033Y7184D01*
X-16115Y7151D01*
X-16156Y7131D01*
X-16201Y7102D01*
X-16242Y7074D01*
X-16283Y7037D01*
X-16324Y6996D01*
X-16361Y6946D01*
X-16365Y6942D01*
X-16369Y6930D01*
X-16381Y6910D01*
X-16398Y6877D01*
X-16414Y6836D01*
X-16434Y6786D01*
X-16459Y6729D01*
X-16480Y6655D01*
X-16500Y6573D01*
X-16525Y6483D01*
X-16545Y6376D01*
X-16562Y6262D01*
X-16578Y6135D01*
X-16586Y5991D01*
X-16594Y5839D01*
X-16599Y5671D01*
Y5667D01*
Y5659D01*
Y5647D01*
Y5630D01*
Y5610D01*
Y5581D01*
X-16594Y5520D01*
X-16590Y5446D01*
X-16586Y5360D01*
X-16582Y5265D01*
X-16570Y5167D01*
X-16545Y4958D01*
X-16529Y4855D01*
X-16508Y4753D01*
X-16484Y4659D01*
X-16451Y4572D01*
X-16418Y4495D01*
X-16381Y4429D01*
X-16377Y4425D01*
X-16373Y4417D01*
X-16361Y4400D01*
X-16340Y4380D01*
X-16320Y4359D01*
X-16295Y4335D01*
X-16234Y4277D01*
X-16156Y4220D01*
X-16061Y4175D01*
X-16012Y4154D01*
X-15959Y4138D01*
X-15902Y4130D01*
X-15844Y4126D01*
X-15832D01*
X-15811Y4130D01*
X-15791D01*
X-15762Y4134D01*
X-15729Y4142D01*
X-15655Y4163D01*
X-15615Y4179D01*
X-15574Y4199D01*
X-15529Y4224D01*
X-15483Y4257D01*
X-15438Y4290D01*
X-15393Y4331D01*
X-15348Y4380D01*
X-15307Y4433D01*
X-15303Y4437D01*
X-15299Y4450D01*
X-15286Y4466D01*
X-15274Y4495D01*
X-15254Y4532D01*
X-15237Y4581D01*
X-15217Y4638D01*
X-15196Y4704D01*
X-15176Y4782D01*
X-15155Y4872D01*
X-15135Y4970D01*
X-15119Y5085D01*
X-15106Y5212D01*
X-15094Y5351D01*
X-15090Y5503D01*
X-15086Y5671D01*
Y5675D01*
Y5684D01*
Y5696D01*
Y5712D01*
Y5733D01*
Y5757D01*
X-15090Y5823D01*
X-15094Y5897D01*
X-15098Y5983D01*
X-15102Y6077D01*
X-15114Y6176D01*
X-15139Y6385D01*
X-15159Y6487D01*
X-15180Y6586D01*
X-15205Y6680D01*
X-15233Y6770D01*
X-15266Y6844D01*
X-15307Y6910D01*
X-15311Y6914D01*
X-15315Y6922D01*
X-15327Y6938D01*
X-15344Y6959D01*
X-15369Y6979D01*
X-15393Y7008D01*
X-15422Y7037D01*
X-15455Y7065D01*
X-15533Y7119D01*
X-15627Y7168D01*
X-15676Y7188D01*
X-15733Y7205D01*
X-15787Y7213D01*
X-15848Y7217D01*
D02*
G37*
G36*
X-15612Y26117D02*
X-15641D01*
X-15665Y26113D01*
X-15690Y26109D01*
X-15723Y26105D01*
X-15796Y26084D01*
X-15883Y26055D01*
X-15928Y26035D01*
X-15973Y26010D01*
X-16018Y25982D01*
X-16063Y25945D01*
X-16108Y25908D01*
X-16153Y25863D01*
X-16157Y25859D01*
X-16161Y25850D01*
X-16174Y25838D01*
X-16190Y25818D01*
X-16206Y25793D01*
X-16223Y25760D01*
X-16243Y25727D01*
X-16264Y25686D01*
X-16288Y25641D01*
X-16309Y25592D01*
X-16325Y25539D01*
X-16342Y25477D01*
X-16370Y25350D01*
X-16375Y25281D01*
X-16379Y25207D01*
Y25203D01*
Y25190D01*
Y25174D01*
X-16375Y25145D01*
X-16370Y25117D01*
X-16366Y25080D01*
X-16350Y24998D01*
X-16325Y24903D01*
X-16288Y24809D01*
X-16264Y24760D01*
X-16235Y24711D01*
X-16202Y24666D01*
X-16165Y24621D01*
X-16161Y24616D01*
X-16157Y24612D01*
X-16145Y24600D01*
X-16124Y24588D01*
X-16104Y24571D01*
X-16079Y24551D01*
X-16051Y24530D01*
X-16018Y24510D01*
X-15936Y24469D01*
X-15846Y24432D01*
X-15739Y24407D01*
X-15682Y24403D01*
X-15624Y24399D01*
X-15592D01*
X-15571Y24403D01*
X-15542Y24407D01*
X-15514Y24411D01*
X-15440Y24428D01*
X-15354Y24452D01*
X-15268Y24493D01*
X-15223Y24518D01*
X-15177Y24547D01*
X-15136Y24584D01*
X-15095Y24621D01*
X-15091Y24625D01*
X-15087Y24633D01*
X-15075Y24645D01*
X-15063Y24661D01*
X-15046Y24686D01*
X-15030Y24715D01*
X-15009Y24748D01*
X-14989Y24784D01*
X-14972Y24825D01*
X-14952Y24875D01*
X-14935Y24924D01*
X-14919Y24981D01*
X-14907Y25043D01*
X-14895Y25104D01*
X-14890Y25174D01*
X-14886Y25248D01*
Y25252D01*
Y25264D01*
Y25285D01*
X-14890Y25313D01*
X-14895Y25346D01*
X-14899Y25387D01*
X-14903Y25428D01*
X-14911Y25477D01*
X-14940Y25576D01*
X-14976Y25682D01*
X-15001Y25736D01*
X-15030Y25785D01*
X-15063Y25834D01*
X-15099Y25879D01*
X-15104Y25883D01*
X-15108Y25892D01*
X-15120Y25900D01*
X-15136Y25916D01*
X-15157Y25932D01*
X-15181Y25953D01*
X-15243Y25998D01*
X-15317Y26043D01*
X-15407Y26080D01*
X-15452Y26096D01*
X-15505Y26109D01*
X-15559Y26113D01*
X-15612Y26117D01*
D02*
G37*
G36*
X19297Y9740D02*
X19223D01*
X19203Y9736D01*
X19182D01*
X19154Y9731D01*
X19092Y9719D01*
X19023Y9699D01*
X18949Y9666D01*
X18875Y9625D01*
X18805Y9567D01*
X18797Y9559D01*
X18777Y9539D01*
X18752Y9502D01*
X18719Y9453D01*
X18686Y9395D01*
X18662Y9326D01*
X18641Y9248D01*
X18633Y9162D01*
Y9157D01*
Y9149D01*
Y9137D01*
X18637Y9116D01*
Y9092D01*
X18641Y9067D01*
X18654Y9006D01*
X18674Y8936D01*
X18703Y8862D01*
X18744Y8788D01*
X18801Y8723D01*
X18809Y8715D01*
X18834Y8698D01*
X18871Y8670D01*
X18924Y8641D01*
X18986Y8608D01*
X19063Y8579D01*
X19154Y8563D01*
X19252Y8555D01*
X19277D01*
X19297Y8559D01*
X19322D01*
X19346Y8563D01*
X19408Y8575D01*
X19478Y8596D01*
X19551Y8625D01*
X19625Y8665D01*
X19695Y8723D01*
X19703Y8731D01*
X19724Y8752D01*
X19748Y8788D01*
X19781Y8838D01*
X19814Y8895D01*
X19838Y8969D01*
X19859Y9047D01*
X19867Y9133D01*
Y9137D01*
Y9145D01*
Y9157D01*
X19863Y9178D01*
X19859Y9223D01*
X19847Y9285D01*
X19826Y9350D01*
X19793Y9424D01*
X19748Y9494D01*
X19724Y9531D01*
X19691Y9563D01*
Y9567D01*
X19683Y9572D01*
X19658Y9592D01*
X19621Y9621D01*
X19568Y9654D01*
X19506Y9682D01*
X19428Y9711D01*
X19342Y9731D01*
X19297Y9740D01*
D02*
G37*
G36*
X19240Y8174D02*
X19207D01*
X19186Y8169D01*
X19158Y8165D01*
X19125Y8161D01*
X19047Y8145D01*
X18961Y8120D01*
X18871Y8083D01*
X18826Y8059D01*
X18781Y8030D01*
X18735Y7993D01*
X18695Y7956D01*
X18690Y7952D01*
X18686Y7948D01*
X18674Y7936D01*
X18662Y7919D01*
X18645Y7895D01*
X18629Y7870D01*
X18608Y7841D01*
X18588Y7809D01*
X18547Y7731D01*
X18514Y7636D01*
X18489Y7530D01*
X18485Y7476D01*
X18481Y7415D01*
Y7411D01*
Y7407D01*
Y7382D01*
X18485Y7341D01*
X18494Y7292D01*
X18502Y7235D01*
X18518Y7169D01*
X18543Y7099D01*
X18572Y7030D01*
X18576Y7021D01*
X18588Y7001D01*
X18612Y6964D01*
X18641Y6923D01*
X18682Y6878D01*
X18727Y6833D01*
X18785Y6784D01*
X18850Y6743D01*
X18854D01*
X18858Y6739D01*
X18883Y6726D01*
X18920Y6710D01*
X18973Y6693D01*
X19031Y6677D01*
X19100Y6661D01*
X19174Y6648D01*
X19252Y6644D01*
X19285D01*
X19309Y6648D01*
X19338Y6652D01*
X19371Y6656D01*
X19449Y6673D01*
X19535Y6697D01*
X19629Y6734D01*
X19674Y6759D01*
X19719Y6788D01*
X19765Y6820D01*
X19806Y6857D01*
X19810Y6861D01*
X19814Y6866D01*
X19826Y6878D01*
X19838Y6894D01*
X19855Y6919D01*
X19875Y6944D01*
X19896Y6972D01*
X19916Y7005D01*
X19953Y7083D01*
X19990Y7177D01*
X20015Y7280D01*
X20019Y7337D01*
X20023Y7399D01*
Y7403D01*
Y7415D01*
Y7431D01*
X20019Y7456D01*
X20015Y7485D01*
X20011Y7518D01*
X19994Y7595D01*
X19970Y7682D01*
X19929Y7776D01*
X19904Y7821D01*
X19871Y7866D01*
X19838Y7911D01*
X19797Y7952D01*
X19793Y7956D01*
X19789Y7960D01*
X19777Y7973D01*
X19756Y7985D01*
X19736Y8005D01*
X19711Y8022D01*
X19679Y8042D01*
X19646Y8063D01*
X19564Y8104D01*
X19469Y8141D01*
X19359Y8165D01*
X19301Y8169D01*
X19240Y8174D01*
D02*
G37*
%LPD*%
D10*
X-10354Y2024D02*
X-11092Y2450D01*
Y1597D01*
X-10354Y2024D01*
D11*
X-5512Y10882D02*
X-5957Y11805D01*
X-6956Y12033D01*
X-7757Y11394D01*
Y10369D01*
X-6956Y9730D01*
X-5957Y9958D01*
X-5512Y10882D01*
D12*
X-8673Y-8181D02*
Y-5819D01*
X-5327Y-8181D02*
Y-5819D01*
X-10630Y6945D02*
X10630D01*
X-10630Y25055D02*
X10630D01*
X-10630Y6945D02*
Y25055D01*
X10630Y6945D02*
Y25055D01*
X-18994Y-1835D02*
X-18206D01*
X-18994Y1235D02*
X-18206D01*
X-40781Y13673D02*
X-38419D01*
X-40781Y10327D02*
X-38419D01*
X-38994Y4465D02*
X-38206D01*
X-38994Y7535D02*
X-38206D01*
X-17635Y16406D02*
Y17194D01*
X-14565Y16406D02*
Y17194D01*
X-11394Y33465D02*
X-10606D01*
X-11394Y36535D02*
X-10606D01*
X22327Y29819D02*
Y32181D01*
X25673Y29819D02*
Y32181D01*
X15935Y28206D02*
Y28994D01*
X12865Y28206D02*
Y28994D01*
X33673Y29819D02*
Y32181D01*
X30327Y29819D02*
Y32181D01*
X41673Y29819D02*
Y32181D01*
X38327Y29819D02*
Y32181D01*
X55219Y19727D02*
X57581D01*
X55219Y23073D02*
X57581D01*
X36665Y-13094D02*
Y-12306D01*
X39735Y-13094D02*
Y-12306D01*
X38481Y-31496D02*
Y-23622D01*
X63881D01*
Y-31496D02*
Y-23622D01*
X38481Y-31496D02*
X63881D01*
X-12700D02*
Y-23622D01*
X12700D01*
Y-31496D02*
Y-23622D01*
X-12700Y-31496D02*
X12700D01*
X-63881Y-23622D02*
X-38481D01*
X-63881Y-31496D02*
Y-23622D01*
Y-31496D02*
X-38481D01*
Y-23622D01*
X18835Y-1394D02*
Y-606D01*
X15765Y-1394D02*
Y-606D01*
D13*
X80646Y5596D02*
X98819D01*
X80646Y42604D02*
X98819D01*
X80646Y5596D02*
Y42604D01*
X-52497Y40599D02*
Y34601D01*
X-48498D01*
X-42500Y39599D02*
X-43500Y40599D01*
X-45499D01*
X-46499Y39599D01*
Y35601D01*
X-45499Y34601D01*
X-43500D01*
X-42500Y35601D01*
X-40501Y40599D02*
Y34601D01*
X-37502D01*
X-36502Y35601D01*
Y39599D01*
X-37502Y40599D01*
X-40501D01*
X-34503Y34601D02*
X-32503D01*
X-33503D01*
Y40599D01*
X-34503Y39599D01*
M02*
