G04*
G04 #@! TF.GenerationSoftware,Altium Limited,Altium Designer,20.2.4 (192)*
G04*
G04 Layer_Color=16711935*
%FSLAX25Y25*%
%MOIN*%
G70*
G04*
G04 #@! TF.SameCoordinates,121250D4-26CC-48BE-A980-2B83B7959B4A*
G04*
G04*
G04 #@! TF.FilePolarity,Negative*
G04*
G01*
G75*
%ADD30R,0.03950X0.06312*%
%ADD31R,0.04658X0.03477*%
%ADD38C,0.08674*%
%ADD39C,0.07887*%
%ADD52R,0.06312X0.09461*%
%ADD53R,0.05918X0.12611*%
%ADD54R,0.05328X0.03162*%
%ADD55R,0.04737X0.05131*%
%ADD56O,0.01981X0.06509*%
%ADD57O,0.06509X0.01981*%
%ADD58O,0.08674X0.03359*%
D30*
X-46965Y-4000D02*
D03*
X-55035D02*
D03*
Y10000D02*
D03*
X-46965D02*
D03*
D31*
X-82000Y-13244D02*
D03*
Y-18756D02*
D03*
X-37000Y-23756D02*
D03*
Y-18244D02*
D03*
X-30000Y-23756D02*
D03*
Y-18244D02*
D03*
X85300Y26156D02*
D03*
Y20644D02*
D03*
D38*
X18400Y-14600D02*
D03*
X27500Y-2900D02*
D03*
X-69685Y748D02*
D03*
Y10748D02*
D03*
Y20748D02*
D03*
Y30748D02*
D03*
X-81900Y-26989D02*
D03*
Y-38800D02*
D03*
D39*
X70400Y-20000D02*
D03*
D52*
X-27079Y-2598D02*
D03*
X-36921D02*
D03*
Y22598D02*
D03*
X-27079D02*
D03*
D53*
X-72331Y-18000D02*
D03*
X-63669D02*
D03*
D54*
X-44685Y-20260D02*
D03*
Y-24000D02*
D03*
Y-27740D02*
D03*
X-55315D02*
D03*
Y-20260D02*
D03*
D55*
X-44898Y-12000D02*
D03*
X-57102D02*
D03*
D56*
X-9827Y-7634D02*
D03*
X-7858D02*
D03*
X-5890D02*
D03*
X-3921D02*
D03*
X-1953D02*
D03*
X16D02*
D03*
X1984D02*
D03*
X3953D02*
D03*
X5921D02*
D03*
X7890D02*
D03*
X9858D02*
D03*
X11827D02*
D03*
Y25634D02*
D03*
X9858D02*
D03*
X7890D02*
D03*
X5921D02*
D03*
X3953D02*
D03*
X1984D02*
D03*
X16D02*
D03*
X-1953D02*
D03*
X-3921D02*
D03*
X-5890D02*
D03*
X-7858D02*
D03*
X-9827D02*
D03*
D57*
X17634Y-1827D02*
D03*
Y142D02*
D03*
Y2110D02*
D03*
Y4079D02*
D03*
Y6047D02*
D03*
Y8016D02*
D03*
Y9984D02*
D03*
Y11953D02*
D03*
Y13921D02*
D03*
Y15890D02*
D03*
Y17858D02*
D03*
Y19827D02*
D03*
X-15634D02*
D03*
Y17858D02*
D03*
Y15890D02*
D03*
Y13921D02*
D03*
Y11953D02*
D03*
Y9984D02*
D03*
Y8016D02*
D03*
Y6047D02*
D03*
Y4079D02*
D03*
Y2110D02*
D03*
Y142D02*
D03*
Y-1827D02*
D03*
D58*
X76898Y25500D02*
D03*
Y20500D02*
D03*
Y15500D02*
D03*
Y10500D02*
D03*
Y5500D02*
D03*
Y500D02*
D03*
Y-4500D02*
D03*
Y-9500D02*
D03*
X39102Y25500D02*
D03*
Y20500D02*
D03*
Y15500D02*
D03*
Y10500D02*
D03*
Y5500D02*
D03*
Y500D02*
D03*
Y-4500D02*
D03*
Y-9500D02*
D03*
M02*
