M48
;Layer_Color=9474304
;FILE_FORMAT=2:4
INCH,TZ
;TYPE=PLATED
T1F00S00C0.0197
T2F00S00C0.0394
T3F00S00C0.0433
%
T01
X-9320Y-2190
X-8090Y-500
X-8080Y490
X-5600Y200
X-5080Y-2540
X-2970Y-1370
X-1600Y-820
X-53Y-1510
X410Y-2260
X970Y-2230
X2330Y-2770
X3180Y-950
X1119Y-202
X1180Y360
X6970Y40
X7700Y-2240
X5386Y-3503
X4580Y-3870
X4660Y1590
X4588Y2520
X4870Y3310
X7390Y3170
X5890Y1180
X3214Y898
X2520Y758
X2400Y1980
X3150Y2010
X1870Y2320
X1190Y1960
X470Y1910
X-360Y1600
X-800Y1900
X-2160Y1420
X-2640Y1280
X-1620Y2970
X270Y3700
T02
X-8190Y-3880
Y-2699
X1840Y-1460
X2750Y-290
X7040Y-2000
T03
X-6969Y75
Y1075
Y2075
Y3075
M30
