G04*
G04 #@! TF.GenerationSoftware,Altium Limited,Altium Designer,20.2.4 (192)*
G04*
G04 Layer_Color=8388736*
%FSLAX25Y25*%
%MOIN*%
G70*
G04*
G04 #@! TF.SameCoordinates,121250D4-26CC-48BE-A980-2B83B7959B4A*
G04*
G04*
G04 #@! TF.FilePolarity,Negative*
G04*
G01*
G75*
%ADD26R,0.06312X0.03950*%
%ADD27O,0.03162X0.07493*%
%ADD28R,0.16548X0.06706*%
%ADD29R,0.03477X0.04658*%
%ADD30R,0.03950X0.06312*%
%ADD31R,0.04658X0.03477*%
%ADD32R,0.05918X0.07296*%
%ADD33R,0.08280X0.07887*%
%ADD34R,0.06902X0.06410*%
%ADD35R,0.06312X0.02572*%
%ADD36R,0.08280X0.04737*%
%ADD37R,0.12611X0.04737*%
%ADD38C,0.08674*%
%ADD39C,0.07887*%
D26*
X-7000Y-11035D02*
D03*
Y-2965D02*
D03*
X24000Y26965D02*
D03*
Y35035D02*
D03*
X32000D02*
D03*
Y26965D02*
D03*
X40000Y35035D02*
D03*
Y26965D02*
D03*
D27*
X-7500Y2024D02*
D03*
X-2500D02*
D03*
X2500D02*
D03*
X7500D02*
D03*
X-7500Y29976D02*
D03*
X-2500D02*
D03*
X2500D02*
D03*
X7500D02*
D03*
D28*
X92520Y-38622D02*
D03*
Y-28622D02*
D03*
Y-18622D02*
D03*
Y-8622D02*
D03*
X-92520Y15000D02*
D03*
Y5000D02*
D03*
Y-5000D02*
D03*
Y-15000D02*
D03*
D29*
X-15844Y-300D02*
D03*
X-21356D02*
D03*
X-35844Y6000D02*
D03*
X-41356D02*
D03*
X-8244Y35000D02*
D03*
X-13756D02*
D03*
D30*
X-43635Y12000D02*
D03*
X-35565D02*
D03*
X60435Y21400D02*
D03*
X52365D02*
D03*
D31*
X-16100Y14044D02*
D03*
Y19556D02*
D03*
X14400Y31356D02*
D03*
Y25844D02*
D03*
X38200Y-15456D02*
D03*
Y-9944D02*
D03*
X17300Y1756D02*
D03*
Y-3756D02*
D03*
D32*
X95079Y38076D02*
D03*
Y10124D02*
D03*
D33*
Y19572D02*
D03*
D34*
X84941Y33903D02*
D03*
Y14297D02*
D03*
D35*
X84646Y21541D02*
D03*
Y18982D02*
D03*
Y29218D02*
D03*
Y24100D02*
D03*
Y26659D02*
D03*
D36*
X95079Y30202D02*
D03*
D37*
X65158Y-27559D02*
D03*
X37205D02*
D03*
X13976D02*
D03*
X-13976D02*
D03*
X-37205D02*
D03*
X-65158D02*
D03*
D38*
X18400Y-14600D02*
D03*
X27500Y-2900D02*
D03*
X-69685Y748D02*
D03*
Y10748D02*
D03*
Y20748D02*
D03*
Y30748D02*
D03*
X-81900Y-26989D02*
D03*
Y-38800D02*
D03*
D39*
X70400Y-20000D02*
D03*
M02*
