G04*
G04 #@! TF.GenerationSoftware,Altium Limited,Altium Designer,20.2.4 (192)*
G04*
G04 Layer_Color=8421504*
%FSLAX25Y25*%
%MOIN*%
G70*
G04*
G04 #@! TF.SameCoordinates,121250D4-26CC-48BE-A980-2B83B7959B4A*
G04*
G04*
G04 #@! TF.FilePolarity,Positive*
G04*
G01*
G75*
%ADD14R,0.05512X0.03150*%
%ADD15O,0.02362X0.06693*%
%ADD16R,0.15748X0.05906*%
%ADD17R,0.02677X0.03858*%
%ADD18R,0.03150X0.05512*%
%ADD19R,0.03858X0.02677*%
%ADD20R,0.05118X0.06496*%
%ADD21R,0.07480X0.07087*%
%ADD22R,0.06102X0.05610*%
%ADD23R,0.05512X0.01772*%
%ADD24R,0.07480X0.03937*%
%ADD25R,0.11811X0.03937*%
D14*
X-7000Y-11035D02*
D03*
Y-2965D02*
D03*
X24000Y26965D02*
D03*
Y35035D02*
D03*
X32000D02*
D03*
Y26965D02*
D03*
X40000Y35035D02*
D03*
Y26965D02*
D03*
D15*
X-7500Y2024D02*
D03*
X-2500D02*
D03*
X2500D02*
D03*
X7500D02*
D03*
X-7500Y29976D02*
D03*
X-2500D02*
D03*
X2500D02*
D03*
X7500D02*
D03*
D16*
X92520Y-38622D02*
D03*
Y-28622D02*
D03*
Y-18622D02*
D03*
Y-8622D02*
D03*
X-92520Y15000D02*
D03*
Y5000D02*
D03*
Y-5000D02*
D03*
Y-15000D02*
D03*
D17*
X-15844Y-300D02*
D03*
X-21356D02*
D03*
X-35844Y6000D02*
D03*
X-41356D02*
D03*
X-8244Y35000D02*
D03*
X-13756D02*
D03*
D18*
X-43635Y12000D02*
D03*
X-35565D02*
D03*
X60435Y21400D02*
D03*
X52365D02*
D03*
D19*
X-16100Y14044D02*
D03*
Y19556D02*
D03*
X14400Y31356D02*
D03*
Y25844D02*
D03*
X38200Y-15456D02*
D03*
Y-9944D02*
D03*
X17300Y1756D02*
D03*
Y-3756D02*
D03*
D20*
X95079Y38076D02*
D03*
Y10124D02*
D03*
D21*
Y19572D02*
D03*
D22*
X84941Y33903D02*
D03*
Y14297D02*
D03*
D23*
X84646Y21541D02*
D03*
Y18982D02*
D03*
Y29218D02*
D03*
Y24100D02*
D03*
Y26659D02*
D03*
D24*
X95079Y30202D02*
D03*
D25*
X65158Y-27559D02*
D03*
X37205D02*
D03*
X13976D02*
D03*
X-13976D02*
D03*
X-37205D02*
D03*
X-65158D02*
D03*
M02*
