G04*
G04 #@! TF.GenerationSoftware,Altium Limited,Altium Designer,20.2.4 (192)*
G04*
G04 Layer_Physical_Order=2*
G04 Layer_Color=16711680*
%FSLAX25Y25*%
%MOIN*%
G70*
G04*
G04 #@! TF.SameCoordinates,121250D4-26CC-48BE-A980-2B83B7959B4A*
G04*
G04*
G04 #@! TF.FilePolarity,Positive*
G04*
G01*
G75*
%ADD10C,0.00984*%
%ADD12C,0.00787*%
%ADD18R,0.03150X0.05512*%
%ADD19R,0.03858X0.02677*%
%ADD40C,0.01181*%
%ADD41C,0.01968*%
%ADD42C,0.07874*%
%ADD43C,0.07087*%
%ADD44C,0.03937*%
%ADD45R,0.05512X0.08661*%
%ADD46R,0.05118X0.11811*%
%ADD47R,0.04528X0.02362*%
%ADD48R,0.03937X0.04331*%
%ADD49O,0.01181X0.05709*%
%ADD50O,0.05709X0.01181*%
%ADD51O,0.07874X0.02559*%
G36*
X100447Y-43361D02*
X-80010D01*
X-79410Y-43112D01*
X-78379Y-42321D01*
X-77587Y-41290D01*
X-77090Y-40089D01*
X-76986Y-39300D01*
X-81900D01*
X-86814D01*
X-86710Y-40089D01*
X-86212Y-41290D01*
X-85421Y-42321D01*
X-84390Y-43112D01*
X-83790Y-43361D01*
X-100447D01*
Y43361D01*
X100447D01*
Y-43361D01*
D02*
G37*
%LPC*%
G36*
X2700Y40375D02*
X1826Y40260D01*
X1012Y39923D01*
X313Y39387D01*
X-223Y38688D01*
X-560Y37874D01*
X-672Y37024D01*
X-7200Y30496D01*
X-7614Y29878D01*
X-7618Y29857D01*
X-7858Y29905D01*
X-8626Y29752D01*
X-8843Y29607D01*
X-9059Y29752D01*
X-9827Y29905D01*
X-10595Y29752D01*
X-11246Y29317D01*
X-11681Y28666D01*
X-11834Y27898D01*
Y23370D01*
X-11681Y22602D01*
X-11246Y21951D01*
X-10595Y21516D01*
X-10296Y21456D01*
X-10387Y21387D01*
X-10923Y20688D01*
X-11260Y19874D01*
X-11375Y19000D01*
X-11260Y18126D01*
X-10923Y17312D01*
X-10387Y16613D01*
X-9688Y16077D01*
X-8874Y15740D01*
X-8000Y15625D01*
X-7126Y15740D01*
X-6951Y15812D01*
X-6860Y15126D01*
X-6523Y14312D01*
X-5987Y13613D01*
X-5288Y13077D01*
X-4474Y12740D01*
X-3600Y12625D01*
X-2726Y12740D01*
X-1912Y13077D01*
X-1213Y13613D01*
X-677Y14312D01*
X-340Y15126D01*
X-225Y16000D01*
X-340Y16874D01*
X-677Y17688D01*
X-1213Y18387D01*
X-1912Y18923D01*
X-1977Y18950D01*
Y19167D01*
X-562Y17752D01*
X-562Y17752D01*
X56Y17338D01*
X786Y17193D01*
X1945D01*
X2313Y16713D01*
X3012Y16177D01*
X3826Y15840D01*
X4700Y15725D01*
X5574Y15840D01*
X6388Y16177D01*
X7087Y16713D01*
X7623Y17412D01*
X7960Y18226D01*
X8075Y19100D01*
X7960Y19974D01*
X7623Y20788D01*
X7087Y21487D01*
X6882Y21644D01*
X6905Y21660D01*
X7122Y21516D01*
X7890Y21363D01*
X8658Y21516D01*
X9214Y21888D01*
X9238Y21872D01*
X9400Y21839D01*
X8977Y21288D01*
X8640Y20474D01*
X8525Y19600D01*
X8640Y18726D01*
X8977Y17912D01*
X9513Y17213D01*
X10212Y16677D01*
X11026Y16340D01*
X11900Y16225D01*
X12774Y16340D01*
X13513Y16646D01*
X13363Y15890D01*
X13516Y15122D01*
X13660Y14906D01*
X13516Y14689D01*
X13363Y13921D01*
X13516Y13153D01*
X13660Y12937D01*
X13516Y12721D01*
X13363Y11953D01*
X13516Y11185D01*
X13660Y10968D01*
X13516Y10752D01*
X13363Y9984D01*
X13516Y9216D01*
X13660Y9000D01*
X13516Y8784D01*
X13363Y8016D01*
X13516Y7248D01*
X13660Y7032D01*
X13516Y6815D01*
X13363Y6047D01*
X13516Y5279D01*
X13660Y5063D01*
X13516Y4847D01*
X13363Y4079D01*
X13516Y3311D01*
X13660Y3094D01*
X13516Y2878D01*
X13363Y2110D01*
X13516Y1342D01*
X13887Y786D01*
X13872Y762D01*
X13756Y180D01*
X13713D01*
X13573Y363D01*
X12874Y900D01*
X12060Y1237D01*
X11186Y1352D01*
X10312Y1237D01*
X9498Y900D01*
X8799Y363D01*
X8263Y-336D01*
X7925Y-1150D01*
X7811Y-2024D01*
X7925Y-2897D01*
X8139Y-3413D01*
X7890Y-3363D01*
X7122Y-3516D01*
X6905Y-3660D01*
X6689Y-3516D01*
X5921Y-3363D01*
X5153Y-3516D01*
X4937Y-3660D01*
X4721Y-3516D01*
X3953Y-3363D01*
X3185Y-3516D01*
X2968Y-3660D01*
X2752Y-3516D01*
X1984Y-3363D01*
X1216Y-3516D01*
X1000Y-3660D01*
X784Y-3516D01*
X16Y-3363D01*
X-752Y-3516D01*
X-1309Y-3887D01*
X-1332Y-3872D01*
X-1953Y-3748D01*
X-2573Y-3872D01*
X-2597Y-3887D01*
X-3153Y-3516D01*
X-3921Y-3363D01*
X-4689Y-3516D01*
X-4905Y-3660D01*
X-5122Y-3516D01*
X-5890Y-3363D01*
X-6658Y-3516D01*
X-7214Y-3887D01*
X-7238Y-3872D01*
X-7858Y-3748D01*
X-8479Y-3872D01*
X-8502Y-3887D01*
X-9059Y-3516D01*
X-9827Y-3363D01*
X-10595Y-3516D01*
X-10647Y-3551D01*
X-10998Y-3316D01*
X-11383Y-3239D01*
X-11721Y-2902D01*
X-11516Y-2595D01*
X-11363Y-1827D01*
X-11516Y-1059D01*
X-11660Y-843D01*
X-11516Y-626D01*
X-11363Y142D01*
X-11516Y910D01*
X-11660Y1126D01*
X-11516Y1342D01*
X-11363Y2110D01*
X-11516Y2878D01*
X-11660Y3094D01*
X-11516Y3311D01*
X-11363Y4079D01*
X-11516Y4847D01*
X-11660Y5063D01*
X-11516Y5279D01*
X-11363Y6047D01*
X-11516Y6815D01*
X-11660Y7032D01*
X-11516Y7248D01*
X-11363Y8016D01*
X-11516Y8784D01*
X-11660Y9000D01*
X-11516Y9216D01*
X-11363Y9984D01*
X-11516Y10752D01*
X-11887Y11309D01*
X-11872Y11332D01*
X-11748Y11953D01*
X-11872Y12573D01*
X-11887Y12597D01*
X-11516Y13153D01*
X-11363Y13921D01*
X-11516Y14689D01*
X-11660Y14906D01*
X-11516Y15122D01*
X-11363Y15890D01*
X-11516Y16658D01*
X-11660Y16874D01*
X-11516Y17090D01*
X-11363Y17858D01*
X-11516Y18626D01*
X-11660Y18843D01*
X-11516Y19059D01*
X-11363Y19827D01*
X-11516Y20595D01*
X-11951Y21246D01*
X-12602Y21681D01*
X-13370Y21834D01*
X-17898D01*
X-18666Y21681D01*
X-19317Y21246D01*
X-19752Y20595D01*
X-19905Y19827D01*
X-19752Y19059D01*
X-19608Y18843D01*
X-19752Y18626D01*
X-19905Y17858D01*
X-19752Y17090D01*
X-19628Y16905D01*
X-19912Y17123D01*
X-20726Y17460D01*
X-21600Y17575D01*
X-22474Y17460D01*
X-22945Y17265D01*
Y28307D01*
X-31213D01*
Y20411D01*
X-31247Y20236D01*
Y16007D01*
X-32477Y14777D01*
X-32869Y14191D01*
X-33006Y13500D01*
Y13206D01*
X-44012D01*
Y14134D01*
X-49917D01*
Y5866D01*
X-44012D01*
Y9594D01*
X-31948D01*
X-30149Y7794D01*
X-30542Y7716D01*
X-31128Y7324D01*
X-35342Y3110D01*
X-41055D01*
Y-2194D01*
X-44012D01*
Y134D01*
X-49917D01*
Y-8134D01*
X-44012D01*
Y-5806D01*
X-41055D01*
Y-8307D01*
X-32787D01*
Y556D01*
X-31213Y2131D01*
Y-8307D01*
X-22945D01*
Y3110D01*
X-30233D01*
X-29102Y4241D01*
X-19873D01*
X-19905Y4079D01*
X-19752Y3311D01*
X-19608Y3094D01*
X-19752Y2878D01*
X-19905Y2110D01*
X-19752Y1342D01*
X-19608Y1126D01*
X-19752Y910D01*
X-19905Y142D01*
X-19752Y-626D01*
X-19608Y-843D01*
X-19752Y-1059D01*
X-19905Y-1827D01*
X-19752Y-2595D01*
X-19317Y-3246D01*
X-18666Y-3681D01*
X-17898Y-3834D01*
X-15943D01*
X-15867Y-4216D01*
X-15475Y-4802D01*
X-15556Y-4883D01*
X-16000Y-4825D01*
X-16874Y-4940D01*
X-17688Y-5277D01*
X-18387Y-5813D01*
X-18923Y-6512D01*
X-19260Y-7326D01*
X-19375Y-8200D01*
X-19260Y-9074D01*
X-18923Y-9888D01*
X-18387Y-10587D01*
X-17688Y-11123D01*
X-16874Y-11460D01*
X-16000Y-11575D01*
X-15126Y-11460D01*
X-14312Y-11123D01*
X-13613Y-10587D01*
X-13077Y-9888D01*
X-12740Y-9074D01*
X-12710Y-8849D01*
X-12080Y-8219D01*
X-11834Y-8465D01*
Y-9898D01*
X-11681Y-10666D01*
X-11246Y-11317D01*
X-10595Y-11752D01*
X-9827Y-11905D01*
X-9059Y-11752D01*
X-8502Y-11380D01*
X-8479Y-11396D01*
X-7858Y-11519D01*
X-7238Y-11396D01*
X-7214Y-11380D01*
X-6658Y-11752D01*
X-5890Y-11905D01*
X-5122Y-11752D01*
X-4905Y-11608D01*
X-4689Y-11752D01*
X-3921Y-11905D01*
X-3153Y-11752D01*
X-2597Y-11380D01*
X-2573Y-11396D01*
X-1953Y-11519D01*
X-1332Y-11396D01*
X-1309Y-11380D01*
X-752Y-11752D01*
X-746Y-11753D01*
X-1402Y-11840D01*
X-2217Y-12177D01*
X-2916Y-12713D01*
X-3452Y-13412D01*
X-3789Y-14226D01*
X-3904Y-15100D01*
X-3789Y-15974D01*
X-3452Y-16788D01*
X-2916Y-17487D01*
X-2217Y-18023D01*
X-1402Y-18360D01*
X-529Y-18475D01*
X345Y-18360D01*
X1159Y-18023D01*
X1858Y-17487D01*
X2394Y-16788D01*
X2732Y-15974D01*
X2847Y-15100D01*
X2829Y-14968D01*
X4115Y-13682D01*
Y-19227D01*
X4100Y-19225D01*
X3226Y-19340D01*
X2412Y-19677D01*
X1713Y-20213D01*
X1177Y-20912D01*
X840Y-21726D01*
X725Y-22600D01*
X840Y-23474D01*
X1177Y-24288D01*
X1713Y-24987D01*
X2412Y-25523D01*
X3226Y-25860D01*
X4100Y-25975D01*
X4974Y-25860D01*
X5788Y-25523D01*
X6487Y-24987D01*
X7015Y-24298D01*
X7313Y-24687D01*
X8012Y-25223D01*
X8826Y-25560D01*
X9700Y-25675D01*
X10574Y-25560D01*
X11388Y-25223D01*
X12087Y-24687D01*
X12623Y-23988D01*
X12960Y-23174D01*
X13075Y-22300D01*
X12960Y-21426D01*
X12623Y-20612D01*
X12087Y-19913D01*
X11388Y-19377D01*
X10574Y-19040D01*
X9700Y-18925D01*
X9696Y-18925D01*
Y-11873D01*
X9858Y-11905D01*
X10626Y-11752D01*
X10842Y-11608D01*
X11059Y-11752D01*
X11827Y-11905D01*
X12595Y-11752D01*
X13246Y-11317D01*
X13681Y-10666D01*
X13805Y-10043D01*
X14593Y-10831D01*
X13757Y-11920D01*
X13222Y-13213D01*
X13039Y-14600D01*
X13222Y-15988D01*
X13757Y-17280D01*
X14609Y-18391D01*
X15720Y-19243D01*
X17012Y-19778D01*
X18400Y-19961D01*
X19787Y-19778D01*
X21080Y-19243D01*
X22191Y-18391D01*
X23043Y-17280D01*
X23578Y-15988D01*
X23761Y-14600D01*
X23578Y-13213D01*
X23043Y-11920D01*
X22191Y-10809D01*
X21080Y-9957D01*
X19787Y-9422D01*
X18720Y-9281D01*
X15419Y-5981D01*
X14768Y-5546D01*
X14000Y-5393D01*
X13834D01*
Y-5370D01*
X13681Y-4602D01*
X13560Y-4420D01*
X13573Y-4410D01*
X14015Y-3834D01*
X19898D01*
X20666Y-3681D01*
X21317Y-3246D01*
X21752Y-2595D01*
X21905Y-1827D01*
X21752Y-1059D01*
X21380Y-502D01*
X21396Y-479D01*
X21512Y103D01*
X21658D01*
X22601Y-839D01*
X22322Y-1512D01*
X22139Y-2900D01*
X22322Y-4287D01*
X22857Y-5580D01*
X23709Y-6691D01*
X24820Y-7543D01*
X26112Y-8078D01*
X27500Y-8261D01*
X28888Y-8078D01*
X30180Y-7543D01*
X31291Y-6691D01*
X32143Y-5580D01*
X32678Y-4287D01*
X32861Y-2900D01*
X32678Y-1512D01*
X32143Y-220D01*
X31291Y891D01*
X30180Y1743D01*
X28888Y2278D01*
X28219Y2366D01*
X28658Y2660D01*
X31664Y5666D01*
X32139Y5603D01*
X33013Y5718D01*
X33827Y6055D01*
X34335Y6446D01*
X34298Y6389D01*
X34220Y6000D01*
X38602D01*
Y7824D01*
X36445D01*
X35555Y7647D01*
X35077Y7328D01*
X35399Y8105D01*
X35442Y8429D01*
X35555Y8353D01*
X36445Y8176D01*
X38602D01*
Y10500D01*
X39102D01*
Y11000D01*
X43985D01*
X43907Y11389D01*
X43403Y12143D01*
X42649Y12647D01*
X41774Y12821D01*
X42454Y12911D01*
X42890Y13092D01*
X44763D01*
X44912Y12977D01*
X45726Y12640D01*
X46600Y12525D01*
X47474Y12640D01*
X48288Y12977D01*
X48987Y13513D01*
X49093Y13652D01*
Y-32710D01*
X46400Y-35404D01*
X45800Y-35325D01*
X44926Y-35440D01*
X44112Y-35777D01*
X43413Y-36313D01*
X42877Y-37012D01*
X42540Y-37826D01*
X42425Y-38700D01*
X42540Y-39574D01*
X42877Y-40388D01*
X43413Y-41087D01*
X44112Y-41623D01*
X44926Y-41960D01*
X45800Y-42075D01*
X46674Y-41960D01*
X47488Y-41623D01*
X48187Y-41087D01*
X48723Y-40388D01*
X49060Y-39574D01*
X49175Y-38700D01*
X49096Y-38100D01*
X50805Y-36391D01*
X50941Y-36719D01*
X51477Y-37418D01*
X52177Y-37955D01*
X52991Y-38292D01*
X53864Y-38407D01*
X54738Y-38292D01*
X55552Y-37955D01*
X56251Y-37418D01*
X56787Y-36719D01*
X57125Y-35905D01*
X57240Y-35032D01*
X57125Y-34158D01*
X56787Y-33344D01*
X56251Y-32645D01*
X55771Y-32277D01*
Y10610D01*
X55977Y10112D01*
X56513Y9413D01*
X57212Y8877D01*
X58026Y8540D01*
X58900Y8425D01*
X59774Y8540D01*
X60588Y8877D01*
X61287Y9413D01*
X61655Y9893D01*
X68035D01*
X68764Y10038D01*
X69383Y10452D01*
X72453Y13522D01*
X72900Y13179D01*
X73331Y13000D01*
X72900Y12821D01*
X72345Y12395D01*
X71919Y11840D01*
X71651Y11194D01*
X71560Y10500D01*
X71651Y9806D01*
X71919Y9160D01*
X72345Y8605D01*
X72900Y8179D01*
X73546Y7911D01*
X74226Y7821D01*
X73351Y7647D01*
X72597Y7143D01*
X72093Y6389D01*
X72015Y6000D01*
X76898D01*
X81780D01*
X81702Y6389D01*
X81199Y7143D01*
X80445Y7647D01*
X79569Y7821D01*
X80249Y7911D01*
X80895Y8179D01*
X81450Y8605D01*
X81876Y9160D01*
X82144Y9806D01*
X82235Y10500D01*
X82144Y11194D01*
X81876Y11840D01*
X81450Y12395D01*
X80895Y12821D01*
X80464Y13000D01*
X80895Y13179D01*
X81450Y13605D01*
X81876Y14160D01*
X82144Y14806D01*
X82235Y15500D01*
X82144Y16194D01*
X81876Y16840D01*
X81450Y17395D01*
X80895Y17821D01*
X80464Y18000D01*
X80859Y18164D01*
X81993D01*
Y17928D01*
X88607D01*
Y23361D01*
X81993D01*
Y22980D01*
X80511D01*
X80464Y23000D01*
X80895Y23179D01*
X81450Y23605D01*
X81876Y24160D01*
X82144Y24806D01*
X82235Y25500D01*
X82144Y26194D01*
X81876Y26840D01*
X81450Y27395D01*
X80895Y27821D01*
X80249Y28089D01*
X79555Y28180D01*
X74240D01*
X73546Y28089D01*
X72900Y27821D01*
X72345Y27395D01*
X71919Y26840D01*
X71651Y26194D01*
X71560Y25500D01*
X71651Y24806D01*
X71919Y24160D01*
X72345Y23605D01*
X72900Y23179D01*
X73331Y23000D01*
X73110Y22908D01*
X67898D01*
X56003Y34803D01*
X55222Y35325D01*
X54300Y35508D01*
X51058D01*
X50388Y36023D01*
X49574Y36360D01*
X48700Y36475D01*
X47826Y36360D01*
X47012Y36023D01*
X46313Y35487D01*
X45777Y34788D01*
X45440Y33974D01*
X45325Y33100D01*
X45440Y32226D01*
X45777Y31412D01*
X46313Y30713D01*
X47012Y30177D01*
X47826Y29840D01*
X48700Y29725D01*
X49574Y29840D01*
X50388Y30177D01*
X51058Y30691D01*
X53302D01*
X65197Y18797D01*
X65978Y18275D01*
X66900Y18091D01*
X73110D01*
X73331Y18000D01*
X72900Y17821D01*
X72360Y17407D01*
X71735D01*
X71005Y17262D01*
X70386Y16848D01*
X67245Y13707D01*
X61655D01*
X61287Y14187D01*
X60588Y14723D01*
X59774Y15060D01*
X58900Y15175D01*
X58026Y15060D01*
X57212Y14723D01*
X56513Y14187D01*
X55977Y13488D01*
X55771Y12991D01*
Y15220D01*
X55807Y15400D01*
X55807Y15400D01*
Y20500D01*
X55662Y21230D01*
X55248Y21848D01*
X55248Y21848D01*
X50548Y26548D01*
X49930Y26962D01*
X49200Y27107D01*
X48633D01*
X48265Y27587D01*
X47566Y28123D01*
X46752Y28460D01*
X45878Y28575D01*
X45004Y28460D01*
X44190Y28123D01*
X43491Y27587D01*
X43460Y27545D01*
X43100Y27821D01*
X42454Y28089D01*
X41760Y28180D01*
X41009D01*
Y28998D01*
X40864Y29728D01*
X40451Y30346D01*
X31549Y39248D01*
X30930Y39662D01*
X30200Y39807D01*
X10300D01*
X9570Y39662D01*
X8952Y39248D01*
X5980Y36277D01*
X6075Y37000D01*
X5960Y37874D01*
X5623Y38688D01*
X5087Y39387D01*
X4388Y39923D01*
X3574Y40260D01*
X2700Y40375D01*
D02*
G37*
G36*
X88229Y28495D02*
X85800D01*
Y26656D01*
X88229D01*
Y28495D01*
D02*
G37*
G36*
X84800D02*
X82371D01*
Y26656D01*
X84800D01*
Y28495D01*
D02*
G37*
G36*
X88229Y25656D02*
X85800D01*
Y23817D01*
X88229D01*
Y25656D01*
D02*
G37*
G36*
X84800D02*
X82371D01*
Y23817D01*
X84800D01*
Y25656D01*
D02*
G37*
G36*
X-32787Y28307D02*
X-41055D01*
Y16890D01*
X-32787D01*
Y28307D01*
D02*
G37*
G36*
X-52461Y13756D02*
X-54536D01*
Y10500D01*
X-52461D01*
Y13756D01*
D02*
G37*
G36*
X-55536D02*
X-57610D01*
Y10500D01*
X-55536D01*
Y13756D01*
D02*
G37*
G36*
X43985Y10000D02*
X39602D01*
Y8176D01*
X41760D01*
X42649Y8353D01*
X43403Y8857D01*
X43907Y9611D01*
X43985Y10000D01*
D02*
G37*
G36*
X-52461Y9500D02*
X-54536D01*
Y6244D01*
X-52461D01*
Y9500D01*
D02*
G37*
G36*
X-55536D02*
X-57610D01*
Y6244D01*
X-55536D01*
Y9500D01*
D02*
G37*
G36*
X41760Y7824D02*
X39602D01*
Y6000D01*
X43985D01*
X43907Y6389D01*
X43403Y7143D01*
X42649Y7647D01*
X41760Y7824D01*
D02*
G37*
G36*
X81780Y5000D02*
X77398D01*
Y3176D01*
X79555D01*
X80445Y3353D01*
X81199Y3857D01*
X81702Y4611D01*
X81780Y5000D01*
D02*
G37*
G36*
X76398D02*
X72015D01*
X72093Y4611D01*
X72597Y3857D01*
X73351Y3353D01*
X74240Y3176D01*
X76398D01*
Y5000D01*
D02*
G37*
G36*
X43985D02*
X39602D01*
Y3176D01*
X41760D01*
X42649Y3353D01*
X43403Y3857D01*
X43907Y4611D01*
X43985Y5000D01*
D02*
G37*
G36*
X38602D02*
X34220D01*
X34298Y4611D01*
X34801Y3857D01*
X35555Y3353D01*
X36445Y3176D01*
X38602D01*
Y5000D01*
D02*
G37*
G36*
X-65653Y40409D02*
X-87200D01*
X-88122Y40225D01*
X-88903Y39703D01*
X-94903Y33703D01*
X-95425Y32922D01*
X-95609Y32000D01*
Y-19542D01*
X-96123Y-20212D01*
X-96460Y-21026D01*
X-96575Y-21900D01*
X-96460Y-22774D01*
X-96123Y-23588D01*
X-95587Y-24287D01*
X-94888Y-24823D01*
X-94074Y-25160D01*
X-93200Y-25275D01*
X-92326Y-25160D01*
X-91512Y-24823D01*
X-90813Y-24287D01*
X-90277Y-23588D01*
X-89940Y-22774D01*
X-89825Y-21900D01*
X-89940Y-21026D01*
X-90277Y-20212D01*
X-90791Y-19542D01*
Y31002D01*
X-86202Y35592D01*
X-71881D01*
X-72365Y35391D01*
X-73476Y34539D01*
X-74328Y33428D01*
X-74585Y32807D01*
X-79000D01*
X-79730Y32662D01*
X-80348Y32248D01*
X-89348Y23248D01*
X-89762Y22630D01*
X-89907Y21900D01*
Y-2700D01*
X-89762Y-3430D01*
X-89348Y-4048D01*
X-87048Y-6348D01*
X-86430Y-6762D01*
X-85700Y-6907D01*
X-83655D01*
X-83287Y-7387D01*
X-82588Y-7923D01*
X-81774Y-8260D01*
X-80900Y-8375D01*
X-80026Y-8260D01*
X-79212Y-7923D01*
X-78513Y-7387D01*
X-77977Y-6688D01*
X-77640Y-5874D01*
X-77525Y-5000D01*
X-77640Y-4126D01*
X-77977Y-3312D01*
X-78513Y-2613D01*
X-79212Y-2077D01*
X-80026Y-1740D01*
X-80900Y-1625D01*
X-81774Y-1740D01*
X-82588Y-2077D01*
X-83287Y-2613D01*
X-83655Y-3093D01*
X-84910D01*
X-86093Y-1910D01*
Y21110D01*
X-78210Y28993D01*
X-74711D01*
X-74328Y28068D01*
X-73476Y26957D01*
X-72365Y26105D01*
X-71503Y25748D01*
X-72365Y25391D01*
X-73476Y24539D01*
X-74328Y23428D01*
X-74863Y22136D01*
X-75046Y20748D01*
X-74863Y19361D01*
X-74328Y18068D01*
X-73476Y16957D01*
X-72365Y16105D01*
X-71503Y15748D01*
X-72365Y15391D01*
X-73476Y14539D01*
X-74328Y13428D01*
X-74863Y12135D01*
X-75046Y10748D01*
X-74863Y9361D01*
X-74328Y8068D01*
X-73476Y6957D01*
X-72365Y6105D01*
X-71073Y5570D01*
X-70976Y5557D01*
X-72175Y5060D01*
X-73206Y4269D01*
X-73997Y3238D01*
X-74495Y2037D01*
X-74599Y1248D01*
X-64771D01*
X-64875Y2037D01*
X-65373Y3238D01*
X-66164Y4269D01*
X-67195Y5060D01*
X-68394Y5557D01*
X-68298Y5570D01*
X-67005Y6105D01*
X-65894Y6957D01*
X-65042Y8068D01*
X-64507Y9361D01*
X-64324Y10748D01*
X-64507Y12135D01*
X-64619Y12407D01*
X-62273Y14754D01*
X-61751Y15535D01*
X-61568Y16457D01*
Y36323D01*
X-61751Y37245D01*
X-62273Y38026D01*
X-63950Y39703D01*
X-64731Y40225D01*
X-65653Y40409D01*
D02*
G37*
G36*
X79555Y2824D02*
X77398D01*
Y1000D01*
X81780D01*
X81702Y1389D01*
X81199Y2143D01*
X80445Y2647D01*
X79555Y2824D01*
D02*
G37*
G36*
X41760D02*
X39602D01*
Y1000D01*
X43985D01*
X43907Y1389D01*
X43403Y2143D01*
X42649Y2647D01*
X41760Y2824D01*
D02*
G37*
G36*
X76398D02*
X74240D01*
X73351Y2647D01*
X72597Y2143D01*
X72093Y1389D01*
X72015Y1000D01*
X76398D01*
Y2824D01*
D02*
G37*
G36*
X38602D02*
X36445D01*
X35555Y2647D01*
X34801Y2143D01*
X34298Y1389D01*
X34220Y1000D01*
X38602D01*
Y2824D01*
D02*
G37*
G36*
X81780Y0D02*
X77398D01*
Y-1824D01*
X79555D01*
X80445Y-1647D01*
X81199Y-1143D01*
X81702Y-389D01*
X81780Y0D01*
D02*
G37*
G36*
X76398D02*
X72015D01*
X72093Y-389D01*
X72597Y-1143D01*
X73351Y-1647D01*
X74240Y-1824D01*
X76398D01*
Y0D01*
D02*
G37*
G36*
X43985D02*
X39602D01*
Y-1824D01*
X41760D01*
X42649Y-1647D01*
X43403Y-1143D01*
X43907Y-389D01*
X43985Y0D01*
D02*
G37*
G36*
X38602D02*
X34220D01*
X34298Y-389D01*
X34801Y-1143D01*
X35555Y-1647D01*
X36445Y-1824D01*
X38602D01*
Y0D01*
D02*
G37*
G36*
X-52461Y-244D02*
X-54536D01*
Y-3500D01*
X-52461D01*
Y-244D01*
D02*
G37*
G36*
X-55536D02*
X-57610D01*
Y-3500D01*
X-55536D01*
Y-244D01*
D02*
G37*
G36*
X79555Y-2176D02*
X77398D01*
Y-4000D01*
X81780D01*
X81702Y-3611D01*
X81199Y-2857D01*
X80445Y-2353D01*
X79555Y-2176D01*
D02*
G37*
G36*
X41760D02*
X39602D01*
Y-4000D01*
X43985D01*
X43907Y-3611D01*
X43403Y-2857D01*
X42649Y-2353D01*
X41760Y-2176D01*
D02*
G37*
G36*
X76398D02*
X74240D01*
X73351Y-2353D01*
X72597Y-2857D01*
X72093Y-3611D01*
X72015Y-4000D01*
X76398D01*
Y-2176D01*
D02*
G37*
G36*
X38602D02*
X36445D01*
X35555Y-2353D01*
X34801Y-2857D01*
X34298Y-3611D01*
X34220Y-4000D01*
X38602D01*
Y-2176D01*
D02*
G37*
G36*
X-64771Y248D02*
X-69185D01*
Y-4166D01*
X-68396Y-4062D01*
X-67195Y-3564D01*
X-66164Y-2773D01*
X-65373Y-1742D01*
X-64875Y-541D01*
X-64771Y248D01*
D02*
G37*
G36*
X-70185D02*
X-74599D01*
X-74495Y-541D01*
X-73997Y-1742D01*
X-73206Y-2773D01*
X-72175Y-3564D01*
X-70974Y-4062D01*
X-70185Y-4166D01*
Y248D01*
D02*
G37*
G36*
X81780Y-5000D02*
X77398D01*
Y-6824D01*
X79555D01*
X80445Y-6647D01*
X81199Y-6143D01*
X81702Y-5389D01*
X81780Y-5000D01*
D02*
G37*
G36*
X76398D02*
X72015D01*
X72093Y-5389D01*
X72597Y-6143D01*
X73351Y-6647D01*
X74240Y-6824D01*
X76398D01*
Y-5000D01*
D02*
G37*
G36*
X43985D02*
X39602D01*
Y-6824D01*
X41760D01*
X42649Y-6647D01*
X43403Y-6143D01*
X43907Y-5389D01*
X43985Y-5000D01*
D02*
G37*
G36*
X38602D02*
X34220D01*
X34298Y-5389D01*
X34801Y-6143D01*
X35555Y-6647D01*
X36445Y-6824D01*
X38602D01*
Y-5000D01*
D02*
G37*
G36*
X-52461Y-4500D02*
X-54536D01*
Y-7756D01*
X-52461D01*
Y-4500D01*
D02*
G37*
G36*
X-55536D02*
X-57610D01*
Y-7756D01*
X-55536D01*
Y-4500D01*
D02*
G37*
G36*
X79555Y-7176D02*
X77398D01*
Y-9000D01*
X81780D01*
X81702Y-8611D01*
X81199Y-7857D01*
X80445Y-7353D01*
X79555Y-7176D01*
D02*
G37*
G36*
X41760D02*
X39602D01*
Y-9000D01*
X43985D01*
X43907Y-8611D01*
X43403Y-7857D01*
X42649Y-7353D01*
X41760Y-7176D01*
D02*
G37*
G36*
X76398D02*
X74240D01*
X73351Y-7353D01*
X72597Y-7857D01*
X72093Y-8611D01*
X72015Y-9000D01*
X76398D01*
Y-7176D01*
D02*
G37*
G36*
X38602D02*
X36445D01*
X35555Y-7353D01*
X34801Y-7857D01*
X34298Y-8611D01*
X34220Y-9000D01*
X38602D01*
Y-7176D01*
D02*
G37*
G36*
X81780Y-10000D02*
X77398D01*
Y-11824D01*
X79555D01*
X80445Y-11647D01*
X81199Y-11143D01*
X81702Y-10389D01*
X81780Y-10000D01*
D02*
G37*
G36*
X76398D02*
X72015D01*
X72093Y-10389D01*
X72597Y-11143D01*
X73351Y-11647D01*
X74240Y-11824D01*
X76398D01*
Y-10000D01*
D02*
G37*
G36*
X43985D02*
X39602D01*
Y-11824D01*
X41760D01*
X42649Y-11647D01*
X43403Y-11143D01*
X43907Y-10389D01*
X43985Y-10000D01*
D02*
G37*
G36*
X38602D02*
X34220D01*
X34298Y-10389D01*
X34801Y-11143D01*
X35555Y-11647D01*
X36445Y-11824D01*
X38602D01*
Y-10000D01*
D02*
G37*
G36*
X-79071Y-10905D02*
X-81500D01*
Y-12744D01*
X-79071D01*
Y-10905D01*
D02*
G37*
G36*
X-82500D02*
X-84929D01*
Y-12744D01*
X-82500D01*
Y-10905D01*
D02*
G37*
G36*
X-79071Y-13744D02*
X-81500D01*
Y-15583D01*
X-79071D01*
Y-13744D01*
D02*
G37*
G36*
X-82500D02*
X-84929D01*
Y-15583D01*
X-82500D01*
Y-13744D01*
D02*
G37*
G36*
X-68394Y-10717D02*
X-76268D01*
Y-16347D01*
X-78693D01*
Y-16039D01*
X-85307D01*
Y-21472D01*
X-84408D01*
Y-22275D01*
X-84580Y-22346D01*
X-85691Y-23198D01*
X-86543Y-24309D01*
X-87078Y-25602D01*
X-87261Y-26989D01*
X-87078Y-28376D01*
X-86543Y-29669D01*
X-85691Y-30780D01*
X-84580Y-31632D01*
X-83288Y-32167D01*
X-81900Y-32350D01*
X-80512Y-32167D01*
X-79220Y-31632D01*
X-78109Y-30780D01*
X-77257Y-29669D01*
X-76722Y-28376D01*
X-76539Y-26989D01*
X-76722Y-25602D01*
X-77257Y-24309D01*
X-78109Y-23198D01*
X-79220Y-22346D01*
X-79592Y-22192D01*
Y-21472D01*
X-78693D01*
Y-21164D01*
X-76268D01*
Y-25284D01*
X-68394D01*
Y-10717D01*
D02*
G37*
G36*
X70900Y-15483D02*
Y-19500D01*
X74917D01*
X74826Y-18814D01*
X74369Y-17709D01*
X73640Y-16760D01*
X72691Y-16031D01*
X71586Y-15574D01*
X70900Y-15483D01*
D02*
G37*
G36*
X69900Y-15483D02*
X69214Y-15574D01*
X68109Y-16031D01*
X67160Y-16760D01*
X66431Y-17709D01*
X65974Y-18814D01*
X65883Y-19500D01*
X69900D01*
Y-15483D01*
D02*
G37*
G36*
X-41551Y-8457D02*
X-48244D01*
Y-15543D01*
X-47200D01*
Y-17701D01*
X-48327D01*
Y-22819D01*
Y-26559D01*
Y-30299D01*
X-41043D01*
Y-26559D01*
Y-22819D01*
Y-21107D01*
X-40589Y-20653D01*
X-40307D01*
Y-20961D01*
X-33693D01*
Y-20653D01*
X-33307D01*
Y-20961D01*
X-26693D01*
Y-15528D01*
X-26884D01*
X-26777Y-15388D01*
X-26440Y-14574D01*
X-26325Y-13700D01*
X-26440Y-12826D01*
X-26777Y-12012D01*
X-27313Y-11313D01*
X-28012Y-10777D01*
X-28826Y-10440D01*
X-29700Y-10325D01*
X-30574Y-10440D01*
X-31388Y-10777D01*
X-32087Y-11313D01*
X-32623Y-12012D01*
X-32960Y-12826D01*
X-33075Y-13700D01*
X-32960Y-14574D01*
X-32623Y-15388D01*
X-32516Y-15528D01*
X-33307D01*
Y-15836D01*
X-33693D01*
Y-15528D01*
X-40307D01*
Y-15836D01*
X-41587D01*
X-42383Y-15994D01*
Y-15543D01*
X-41551D01*
Y-8457D01*
D02*
G37*
G36*
X-53756D02*
X-60449D01*
Y-10717D01*
X-67606D01*
Y-25284D01*
X-59732D01*
Y-22668D01*
X-58957D01*
Y-22819D01*
X-51673D01*
Y-17701D01*
X-52907D01*
Y-13787D01*
X-53090Y-12866D01*
X-53612Y-12084D01*
X-53756Y-11940D01*
Y-8457D01*
D02*
G37*
G36*
X-27071Y-21417D02*
X-29500D01*
Y-23256D01*
X-27071D01*
Y-21417D01*
D02*
G37*
G36*
X-30500D02*
X-32929D01*
Y-23256D01*
X-30500D01*
Y-21417D01*
D02*
G37*
G36*
X-34071D02*
X-36500D01*
Y-23256D01*
X-34071D01*
Y-21417D01*
D02*
G37*
G36*
X-37500D02*
X-39929D01*
Y-23256D01*
X-37500D01*
Y-21417D01*
D02*
G37*
G36*
X74917Y-20500D02*
X70900D01*
Y-24517D01*
X71586Y-24426D01*
X72691Y-23969D01*
X73640Y-23240D01*
X74369Y-22291D01*
X74826Y-21186D01*
X74917Y-20500D01*
D02*
G37*
G36*
X69900D02*
X65883D01*
X65974Y-21186D01*
X66431Y-22291D01*
X67160Y-23240D01*
X68109Y-23969D01*
X69214Y-24426D01*
X69900Y-24517D01*
Y-20500D01*
D02*
G37*
G36*
X-27071Y-24256D02*
X-29500D01*
Y-26094D01*
X-27071D01*
Y-24256D01*
D02*
G37*
G36*
X-30500D02*
X-32929D01*
Y-26094D01*
X-30500D01*
Y-24256D01*
D02*
G37*
G36*
X-34071D02*
X-36500D01*
Y-26094D01*
X-34071D01*
Y-24256D01*
D02*
G37*
G36*
X-37500D02*
X-39929D01*
Y-26094D01*
X-37500D01*
Y-24256D01*
D02*
G37*
G36*
X-52051Y-25559D02*
X-54815D01*
Y-27240D01*
X-52051D01*
Y-25559D01*
D02*
G37*
G36*
X-55815D02*
X-58579D01*
Y-27240D01*
X-55815D01*
Y-25559D01*
D02*
G37*
G36*
X-52051Y-28240D02*
X-54815D01*
Y-29921D01*
X-52051D01*
Y-28240D01*
D02*
G37*
G36*
X-55815D02*
X-58579D01*
Y-29921D01*
X-55815D01*
Y-28240D01*
D02*
G37*
G36*
X-81400Y-33886D02*
Y-38300D01*
X-76986D01*
X-77090Y-37511D01*
X-77587Y-36310D01*
X-78379Y-35279D01*
X-79410Y-34488D01*
X-80611Y-33990D01*
X-81400Y-33886D01*
D02*
G37*
G36*
X-82400D02*
X-83189Y-33990D01*
X-84390Y-34488D01*
X-85421Y-35279D01*
X-86212Y-36310D01*
X-86710Y-37511D01*
X-86814Y-38300D01*
X-82400D01*
Y-33886D01*
D02*
G37*
%LPD*%
G36*
X29893Y30210D02*
Y23057D01*
X29812Y23023D01*
X29113Y22487D01*
X28577Y21788D01*
X28240Y20974D01*
X28125Y20100D01*
X28240Y19226D01*
X28577Y18412D01*
X29113Y17713D01*
X29812Y17177D01*
X30626Y16840D01*
X31500Y16725D01*
X32374Y16840D01*
X33188Y17177D01*
X33887Y17713D01*
X34423Y18412D01*
X34498Y18593D01*
X34564D01*
X35105Y18179D01*
X35536Y18000D01*
X35105Y17821D01*
X34549Y17395D01*
X34124Y16840D01*
X33856Y16194D01*
X33764Y15500D01*
X33856Y14806D01*
X34124Y14160D01*
X34549Y13605D01*
X35105Y13179D01*
X35751Y12911D01*
X36431Y12821D01*
X35555Y12647D01*
X34801Y12143D01*
X34364Y11489D01*
X33827Y11902D01*
X33013Y12239D01*
X32139Y12354D01*
X31265Y12239D01*
X30451Y11902D01*
X29752Y11365D01*
X29216Y10666D01*
X28879Y9852D01*
X28763Y8978D01*
X28826Y8504D01*
X28497Y8175D01*
X28460Y8458D01*
X28123Y9272D01*
X27587Y9971D01*
X26888Y10508D01*
X26074Y10845D01*
X25200Y10960D01*
X24326Y10845D01*
X23512Y10508D01*
X22813Y9971D01*
X22277Y9272D01*
X21940Y8458D01*
X21891Y8086D01*
X21752Y8784D01*
X21608Y9000D01*
X21752Y9216D01*
X21905Y9984D01*
X21752Y10752D01*
X21608Y10968D01*
X21752Y11185D01*
X21905Y11953D01*
X21752Y12721D01*
X21608Y12937D01*
X21752Y13153D01*
X21905Y13921D01*
X21752Y14689D01*
X21608Y14906D01*
X21752Y15122D01*
X21905Y15890D01*
X21752Y16658D01*
X21608Y16874D01*
X21752Y17090D01*
X21789Y17278D01*
X22312Y16877D01*
X23126Y16540D01*
X24000Y16425D01*
X24874Y16540D01*
X25688Y16877D01*
X26387Y17413D01*
X26923Y18112D01*
X27260Y18926D01*
X27375Y19800D01*
X27260Y20674D01*
X26923Y21488D01*
X26387Y22187D01*
X25688Y22723D01*
X24874Y23060D01*
X24000Y23175D01*
X23126Y23060D01*
X22312Y22723D01*
X21613Y22187D01*
X21255Y21720D01*
X20470D01*
X19898Y21834D01*
X15370D01*
X14602Y21681D01*
X14549Y21645D01*
X14287Y21987D01*
X13834Y22334D01*
Y25634D01*
Y27898D01*
X13681Y28666D01*
X13246Y29317D01*
X12595Y29752D01*
X11827Y29905D01*
X11059Y29752D01*
X10502Y29380D01*
X10479Y29396D01*
X9858Y29519D01*
X9797Y29507D01*
Y31193D01*
X28910D01*
X29893Y30210D01*
D02*
G37*
D10*
X-1953Y-1653D02*
X3300Y3600D01*
X11800D01*
X-1953Y-7634D02*
Y-1653D01*
X76898Y-32902D02*
Y-9500D01*
X9821Y22421D02*
Y29723D01*
X-15634Y11953D02*
X-7400D01*
X-56035Y-3000D02*
Y23000D01*
X73900Y31700D02*
X84000D01*
X85300Y26156D02*
Y30400D01*
X84000Y31700D02*
X85300Y30400D01*
X93200Y5577D02*
Y22200D01*
X76898Y5500D02*
X86052D01*
X86552Y5000D01*
X92623D01*
X93200Y5577D01*
X91500Y23900D02*
X93200Y22200D01*
X88147Y23900D02*
X91500D01*
X85300Y26156D02*
X85891D01*
X88147Y23900D01*
X23300Y-31400D02*
Y-27700D01*
Y-35100D02*
Y-31400D01*
X-33600Y-31300D02*
X23200D01*
X23300Y-31400D01*
X76848Y450D02*
X76898Y500D01*
X69750Y450D02*
X76848D01*
X69700Y400D02*
X69750Y450D01*
X30500Y-42300D02*
X67500D01*
X23300Y-35100D02*
X30500Y-42300D01*
X67500D02*
X76898Y-32902D01*
X7890Y32290D02*
X8700Y33100D01*
X7890Y25634D02*
Y32290D01*
X8700Y33100D02*
X29700D01*
X10397Y30300D02*
X16400D01*
X9821Y29723D02*
X10397Y30300D01*
X18700Y23200D02*
Y28000D01*
X16400Y30300D02*
X18700Y28000D01*
X31800Y21077D02*
Y31000D01*
X29700Y33100D02*
X31800Y31000D01*
X5921Y33521D02*
X10300Y37900D01*
X5921Y25634D02*
Y33521D01*
X10300Y37900D02*
X30200D01*
X39102Y25500D02*
X45878D01*
X30200Y37900D02*
X39102Y28998D01*
X7948Y13654D02*
Y20548D01*
X6247Y11953D02*
X7948Y13654D01*
Y20548D02*
X9821Y22421D01*
X786Y19100D02*
X4700D01*
X-1953Y21839D02*
X786Y19100D01*
X-1953Y21839D02*
Y25634D01*
X-55035Y24000D02*
Y27765D01*
X-53100Y29700D02*
X-16200D01*
X-55035Y27765D02*
X-53100Y29700D01*
X-7400Y11953D02*
X6247D01*
X-7858Y-7634D02*
Y11495D01*
X-7400Y11953D01*
X11235Y4165D02*
X11800Y3600D01*
X11235Y4165D02*
Y6965D01*
X6247Y11953D02*
X11235Y6965D01*
X-30000Y-23756D02*
X-18756D01*
X-7858Y-12858D02*
Y-7634D01*
X-18756Y-23756D02*
X-7858Y-12858D01*
X-56035Y23000D02*
X-55035Y24000D01*
X-65777Y-3000D02*
X-56035D01*
X-69525Y748D02*
X-65777Y-3000D01*
X-69685Y748D02*
X-69525D01*
X-56035Y-3000D02*
X-55935Y-3100D01*
X-53800D01*
X-52000Y-4900D01*
Y-9200D02*
Y-4900D01*
X-50800Y-25400D02*
Y-10400D01*
X-52000Y-9200D02*
X-50800Y-10400D01*
X-55315Y-27740D02*
X-54232D01*
X-52457Y-25965D01*
X-51365D01*
X-50800Y-25400D01*
X-37000Y-23756D02*
X-30000D01*
Y-27700D02*
Y-23756D01*
X-33600Y-31300D02*
X-30000Y-27700D01*
X-50672Y-31300D02*
X-33600D01*
X-54232Y-27740D02*
X-50672Y-31300D01*
X11800Y2400D02*
Y3600D01*
Y2400D02*
X14021Y179D01*
X17596D02*
X17634Y142D01*
X14021Y179D02*
X17596D01*
X49200Y25200D02*
X53900Y20500D01*
X45878Y25200D02*
X49200D01*
X58900Y11800D02*
X68035D01*
X50423Y20500D02*
X51000Y19923D01*
Y-33500D02*
Y19923D01*
X45800Y-38700D02*
X51000Y-33500D01*
X39102Y20500D02*
X50423D01*
X68035Y11800D02*
X71735Y15500D01*
X53864Y15364D02*
X53900Y15400D01*
X53864Y-35032D02*
Y15364D01*
X32377Y20500D02*
X39102D01*
X53900Y15400D02*
Y20500D01*
X71735Y15500D02*
X76898D01*
X-8000Y19000D02*
X-7896Y19104D01*
Y25596D01*
X-7858Y25634D01*
X-5852Y25671D02*
Y29148D01*
X2000Y37000D01*
X2700D01*
X-88800Y-32011D02*
X-82011Y-38800D01*
X-88800Y-16600D02*
X-85500Y-13300D01*
X-88800Y-32011D02*
Y-16600D01*
X-85500Y-13300D02*
X-82056D01*
X-82011Y-38800D02*
X-81900D01*
X-3884Y16284D02*
X-3600Y16000D01*
X-3921Y25634D02*
X-3884Y25596D01*
Y16284D02*
Y25596D01*
X-5890Y25634D02*
X-5852Y25671D01*
X17634Y19827D02*
X17647Y19813D01*
X23987D01*
X24000Y19800D01*
X-80563Y-12398D02*
Y-12398D01*
X-71003Y-2838D01*
Y-570D02*
X-69685Y748D01*
X-71003Y-2838D02*
Y-570D01*
X-81410Y-13244D02*
X-80563Y-12398D01*
X-82000Y-13244D02*
X-81410D01*
X-82056Y-13300D02*
X-82000Y-13244D01*
X-76648Y748D02*
X-69685D01*
X-80800Y4900D02*
X-80800D01*
X-76648Y748D01*
X-88000Y-2700D02*
Y21900D01*
X-79000Y30900D02*
X-69837D01*
X-88000Y21900D02*
X-79000Y30900D01*
X-69837D02*
X-69685Y30748D01*
X-85700Y-5000D02*
X-80900D01*
X-88000Y-2700D02*
X-85700Y-5000D01*
X23300Y-27700D02*
X26700D01*
X31600Y-9700D02*
X31800Y-9500D01*
X26700Y-27700D02*
X31600Y-22800D01*
Y-9700D01*
X31800Y-9500D02*
X39102D01*
Y5500D02*
Y10500D01*
Y500D02*
Y5500D01*
Y-4500D02*
Y500D01*
Y-9500D02*
Y-4500D01*
X76898Y500D02*
Y5500D01*
Y-9500D02*
Y-4500D01*
X31800Y21077D02*
X32377Y20500D01*
X39102Y25500D02*
Y28998D01*
D12*
X-46965Y-4000D02*
X-38323D01*
X-36921Y-2598D01*
X-46965Y10000D02*
Y10219D01*
X-45783Y11400D01*
X-31200D01*
X-29850Y6047D02*
X-15634D01*
X-36921Y-1024D02*
X-29850Y6047D01*
X-36921Y-2598D02*
Y-1024D01*
X-27816Y8016D02*
X-15634D01*
X-31200Y11400D02*
X-27816Y8016D01*
X-24284Y9984D02*
X-15634D01*
X-27100Y12800D02*
X-24284Y9984D01*
X-27100Y12800D02*
X-26400D01*
X-31200Y11400D02*
Y13500D01*
X-29441Y20236D02*
X-27079Y22598D01*
X-29441Y15259D02*
Y20236D01*
X-31200Y13500D02*
X-29441Y15259D01*
X7890Y-20308D02*
Y-7634D01*
Y-20308D02*
X9700Y-22119D01*
Y-22300D02*
Y-22119D01*
X5921Y-20619D02*
Y-7634D01*
X4100Y-22600D02*
Y-22441D01*
X5921Y-20619D01*
X3953Y-11290D02*
Y-7634D01*
X142Y-15100D02*
X3953Y-11290D01*
X-529Y-15100D02*
X142D01*
D18*
X-46965Y-4000D02*
D03*
X-55035D02*
D03*
Y10000D02*
D03*
X-46965D02*
D03*
D19*
X-82000Y-13244D02*
D03*
Y-18756D02*
D03*
X-37000Y-23756D02*
D03*
Y-18244D02*
D03*
X-30000Y-23756D02*
D03*
Y-18244D02*
D03*
X85300Y26156D02*
D03*
Y20644D02*
D03*
D40*
X11383Y-1827D02*
X17634D01*
X11186Y-2024D02*
X11383Y-1827D01*
X-14013Y-3448D02*
Y-1827D01*
X11827Y19673D02*
X11900Y19600D01*
X11827Y19673D02*
Y25634D01*
X-21321Y13921D02*
X-15634D01*
X-21600Y14200D02*
X-21321Y13921D01*
X-11920Y-5541D02*
X-9827Y-7634D01*
X-14013Y-3448D02*
X-11920Y-5541D01*
X-15634Y-1827D02*
X-14013D01*
X24454Y7585D02*
X25200D01*
X22917Y6047D02*
X24454Y7585D01*
X17634Y6047D02*
X22917D01*
X11827Y-7400D02*
X14000D01*
X20500Y-13900D02*
Y-13900D01*
X14000Y-7400D02*
X20500Y-13900D01*
X11827Y-7634D02*
Y-7400D01*
X17634Y2110D02*
X22490D01*
X27500Y-2900D01*
X27239Y4079D02*
X32139Y8978D01*
X17634Y4079D02*
X27239D01*
D41*
X-44791Y-20260D02*
Y-12106D01*
Y-23894D02*
Y-20260D01*
X-65653Y38000D02*
X-63976Y36323D01*
X-69685Y10748D02*
X-63976Y16457D01*
Y36323D01*
X-87200Y38000D02*
X-65653D01*
X-93200Y32000D02*
X-87200Y38000D01*
X-93200Y-21900D02*
Y32000D01*
X-16000Y-8200D02*
X-15467D01*
X-12808Y-5541D01*
X-11920D01*
X48700Y33100D02*
X54300D01*
X66900Y20500D01*
X76898D01*
X39102Y15500D02*
X46200D01*
X46600Y15900D01*
X-30000Y-18244D02*
X-29850Y-18094D01*
Y-13850D01*
X-29700Y-13700D01*
X76898Y20500D02*
X76970Y20572D01*
X85228D01*
X85300Y20644D01*
X-37000Y-18244D02*
X-30000D01*
X-41587D02*
X-37000D01*
X-44685Y-20260D02*
X-43602D01*
X-44791D02*
X-44685D01*
X-43602D02*
X-41587Y-18244D01*
X-44898Y-12000D02*
X-44791Y-12106D01*
Y-23894D02*
X-44685Y-24000D01*
X-55315Y-20260D02*
Y-13787D01*
X-57102Y-12000D02*
X-55315Y-13787D01*
X-63669Y-18685D02*
Y-18000D01*
Y-18685D02*
X-62094Y-20260D01*
X-55315D01*
X-82000Y-18756D02*
X-73087D01*
X-72331Y-18000D01*
X-82000Y-27000D02*
Y-18756D01*
D42*
X18400Y-14600D02*
D03*
X27500Y-2900D02*
D03*
X-69685Y748D02*
D03*
Y10748D02*
D03*
Y20748D02*
D03*
Y30748D02*
D03*
X-81900Y-26989D02*
D03*
Y-38800D02*
D03*
D43*
X70400Y-20000D02*
D03*
D44*
X-26400Y12800D02*
D03*
X-56000Y2000D02*
D03*
X11186Y-2024D02*
D03*
X73900Y31700D02*
D03*
X69700Y400D02*
D03*
X77000Y-22400D02*
D03*
X18700Y23200D02*
D03*
X11900Y19600D02*
D03*
X4700Y19100D02*
D03*
X-16200Y29700D02*
D03*
X-50800Y-25400D02*
D03*
X-93200Y-21900D02*
D03*
X-21600Y14200D02*
D03*
X-16000Y-8200D02*
D03*
X11800Y3600D02*
D03*
X25200Y7585D02*
D03*
X45878Y25200D02*
D03*
X58900Y11800D02*
D03*
X48700Y33100D02*
D03*
X46600Y15900D02*
D03*
X53864Y-35032D02*
D03*
X-8000Y19000D02*
D03*
X2700Y37000D02*
D03*
X-3600Y16000D02*
D03*
X9700Y-22300D02*
D03*
X4100Y-22600D02*
D03*
X-29700Y-13700D02*
D03*
X24000Y19800D02*
D03*
X-80800Y4900D02*
D03*
X23300Y-27700D02*
D03*
X31800Y-9500D02*
D03*
X45800Y-38700D02*
D03*
X31500Y20100D02*
D03*
X-80900Y-5000D02*
D03*
X-529Y-15100D02*
D03*
X32139Y8978D02*
D03*
D45*
X-27079Y-2598D02*
D03*
X-36921D02*
D03*
Y22598D02*
D03*
X-27079D02*
D03*
D46*
X-72331Y-18000D02*
D03*
X-63669D02*
D03*
D47*
X-44685Y-20260D02*
D03*
Y-24000D02*
D03*
Y-27740D02*
D03*
X-55315D02*
D03*
Y-20260D02*
D03*
D48*
X-44898Y-12000D02*
D03*
X-57102D02*
D03*
D49*
X-9827Y-7634D02*
D03*
X-7858D02*
D03*
X-5890D02*
D03*
X-3921D02*
D03*
X-1953D02*
D03*
X16D02*
D03*
X1984D02*
D03*
X3953D02*
D03*
X5921D02*
D03*
X7890D02*
D03*
X9858D02*
D03*
X11827D02*
D03*
Y25634D02*
D03*
X9858D02*
D03*
X7890D02*
D03*
X5921D02*
D03*
X3953D02*
D03*
X1984D02*
D03*
X16D02*
D03*
X-1953D02*
D03*
X-3921D02*
D03*
X-5890D02*
D03*
X-7858D02*
D03*
X-9827D02*
D03*
D50*
X17634Y-1827D02*
D03*
Y142D02*
D03*
Y2110D02*
D03*
Y4079D02*
D03*
Y6047D02*
D03*
Y8016D02*
D03*
Y9984D02*
D03*
Y11953D02*
D03*
Y13921D02*
D03*
Y15890D02*
D03*
Y17858D02*
D03*
Y19827D02*
D03*
X-15634D02*
D03*
Y17858D02*
D03*
Y15890D02*
D03*
Y13921D02*
D03*
Y11953D02*
D03*
Y9984D02*
D03*
Y8016D02*
D03*
Y6047D02*
D03*
Y4079D02*
D03*
Y2110D02*
D03*
Y142D02*
D03*
Y-1827D02*
D03*
D51*
X76898Y25500D02*
D03*
Y20500D02*
D03*
Y15500D02*
D03*
Y10500D02*
D03*
Y5500D02*
D03*
Y500D02*
D03*
Y-4500D02*
D03*
Y-9500D02*
D03*
X39102Y25500D02*
D03*
Y20500D02*
D03*
Y15500D02*
D03*
Y10500D02*
D03*
Y5500D02*
D03*
Y500D02*
D03*
Y-4500D02*
D03*
Y-9500D02*
D03*
M02*
