G04*
G04 #@! TF.GenerationSoftware,Altium Limited,Altium Designer,20.2.4 (192)*
G04*
G04 Layer_Color=128*
%FSLAX25Y25*%
%MOIN*%
G70*
G04*
G04 #@! TF.SameCoordinates,121250D4-26CC-48BE-A980-2B83B7959B4A*
G04*
G04*
G04 #@! TF.FilePolarity,Positive*
G04*
G01*
G75*
%ADD18R,0.03150X0.05512*%
%ADD19R,0.03858X0.02677*%
%ADD45R,0.05512X0.08661*%
%ADD46R,0.05118X0.11811*%
%ADD47R,0.04528X0.02362*%
%ADD48R,0.03937X0.04331*%
%ADD49O,0.01181X0.05709*%
%ADD50O,0.05709X0.01181*%
%ADD51O,0.07874X0.02559*%
D18*
X-46965Y-4000D02*
D03*
X-55035D02*
D03*
Y10000D02*
D03*
X-46965D02*
D03*
D19*
X-82000Y-13244D02*
D03*
Y-18756D02*
D03*
X-37000Y-23756D02*
D03*
Y-18244D02*
D03*
X-30000Y-23756D02*
D03*
Y-18244D02*
D03*
X85300Y26156D02*
D03*
Y20644D02*
D03*
D45*
X-27079Y-2598D02*
D03*
X-36921D02*
D03*
Y22598D02*
D03*
X-27079D02*
D03*
D46*
X-72331Y-18000D02*
D03*
X-63669D02*
D03*
D47*
X-44685Y-20260D02*
D03*
Y-24000D02*
D03*
Y-27740D02*
D03*
X-55315D02*
D03*
Y-20260D02*
D03*
D48*
X-44898Y-12000D02*
D03*
X-57102D02*
D03*
D49*
X-9827Y-7634D02*
D03*
X-7858D02*
D03*
X-5890D02*
D03*
X-3921D02*
D03*
X-1953D02*
D03*
X16D02*
D03*
X1984D02*
D03*
X3953D02*
D03*
X5921D02*
D03*
X7890D02*
D03*
X9858D02*
D03*
X11827D02*
D03*
Y25634D02*
D03*
X9858D02*
D03*
X7890D02*
D03*
X5921D02*
D03*
X3953D02*
D03*
X1984D02*
D03*
X16D02*
D03*
X-1953D02*
D03*
X-3921D02*
D03*
X-5890D02*
D03*
X-7858D02*
D03*
X-9827D02*
D03*
D50*
X17634Y-1827D02*
D03*
Y142D02*
D03*
Y2110D02*
D03*
Y4079D02*
D03*
Y6047D02*
D03*
Y8016D02*
D03*
Y9984D02*
D03*
Y11953D02*
D03*
Y13921D02*
D03*
Y15890D02*
D03*
Y17858D02*
D03*
Y19827D02*
D03*
X-15634D02*
D03*
Y17858D02*
D03*
Y15890D02*
D03*
Y13921D02*
D03*
Y11953D02*
D03*
Y9984D02*
D03*
Y8016D02*
D03*
Y6047D02*
D03*
Y4079D02*
D03*
Y2110D02*
D03*
Y142D02*
D03*
Y-1827D02*
D03*
D51*
X76898Y25500D02*
D03*
Y20500D02*
D03*
Y15500D02*
D03*
Y10500D02*
D03*
Y5500D02*
D03*
Y500D02*
D03*
Y-4500D02*
D03*
Y-9500D02*
D03*
X39102Y25500D02*
D03*
Y20500D02*
D03*
Y15500D02*
D03*
Y10500D02*
D03*
Y5500D02*
D03*
Y500D02*
D03*
Y-4500D02*
D03*
Y-9500D02*
D03*
M02*
